<?xml version="1.0" encoding="UTF-8"?>
<svg width="380px" height="360px" viewBox="0 0 380 360" version="1.1" xmlns="http://www.w3.org/2000/svg" xmlns:xlink="http://www.w3.org/1999/xlink">
    <!-- Generator: Sketch 49.2 (51160) - http://www.bohemiancoding.com/sketch -->
    <title>crm-large</title>
    <desc>Created with Sketch.</desc>
    <defs>
        <linearGradient x1="0%" y1="0%" x2="101.999998%" y2="100.999999%" id="linearGradient-1">
            <stop stop-color="#FF7675" offset="0%"></stop>
            <stop stop-color="#C86DD7" offset="100%"></stop>
        </linearGradient>
        <polygon id="path-2" points="0 0.295133333 0 172.5618 64.5779221 172.5618 64.5779221 170.0272 2.53246753 170.0272 2.53246753 2.82846667 254.512987 2.82846667 254.512987 71.2284667 257.045455 71.2284667 257.045455 0.295133333"></polygon>
        <linearGradient x1="0%" y1="0%" x2="101.999998%" y2="100.999999%" id="linearGradient-4">
            <stop stop-color="#3023AE" offset="0%"></stop>
            <stop stop-color="#C86DD7" offset="100%"></stop>
        </linearGradient>
        <path d="M0.838246753,30.1834 C0.838246753,46.7957333 14.3008442,60.2629333 30.9075,60.2629333 C47.5166883,60.2629333 60.9792857,46.7957333 60.9792857,30.1834 C60.9792857,13.5685333 47.5166883,0.101333333 30.9075,0.101333333 C14.3008442,0.101333333 0.838246753,13.5685333 0.838246753,30.1834" id="path-5"></path>
        <linearGradient x1="-15.4055361%" y1="0%" x2="50%" y2="100%" id="linearGradient-7">
            <stop stop-color="#FAD961" offset="0%"></stop>
            <stop stop-color="#F76B1C" offset="100%"></stop>
        </linearGradient>
        <path d="M0.203863636,30.1834 C0.203863636,46.7957333 13.6677273,60.2629333 30.2743831,60.2629333 C46.8823052,60.2629333 60.3474351,46.7957333 60.3474351,30.1834 C60.3474351,13.5685333 46.8823052,0.101333333 30.2743831,0.101333333 C13.6677273,0.101333333 0.203863636,13.5685333 0.203863636,30.1834" id="path-8"></path>
        <path d="M0.203863636,30.1834 C0.203863636,46.7957333 13.6677273,60.2629333 30.2756494,60.2629333 C46.8823052,60.2629333 60.3461688,46.7957333 60.3461688,30.1834 C60.3461688,13.5685333 46.8823052,0.101333333 30.2756494,0.101333333 C13.6677273,0.101333333 0.203863636,13.5685333 0.203863636,30.1834" id="path-10"></path>
        <linearGradient x1="-14.3140951%" y1="0%" x2="50%" y2="100%" id="linearGradient-12">
            <stop stop-color="#F5515F" offset="0%"></stop>
            <stop stop-color="#9F041B" offset="100%"></stop>
        </linearGradient>
        <path d="M0.255779221,13.9346 C0.255779221,21.4535333 6.3488961,27.55 13.8639935,27.55 C21.3803571,27.55 27.4747403,21.4535333 27.4747403,13.9346 C27.4747403,6.41566667 21.3803571,0.3192 13.8639935,0.3192 C6.3488961,0.3192 0.255779221,6.41566667 0.255779221,13.9346" id="path-13"></path>
        <linearGradient x1="0.25781251%" y1="49.7500002%" x2="101.257813%" y2="49.7500002%" id="linearGradient-15">
            <stop stop-color="#3023AE" offset="0%"></stop>
            <stop stop-color="#53A0FD" offset="47.5247532%"></stop>
            <stop stop-color="#B4EC51" offset="100%"></stop>
        </linearGradient>
    </defs>
    <g id="landing-page" stroke="none" stroke-width="1" fill="none" fill-rule="evenodd">
        <g id="features" transform="translate(-166.000000, -136.000000)">
            <g id="crm-large" transform="translate(156.000000, 135.000000)">
                <g id="Group-5" transform="translate(16.461039, 0.677667)">
                    <path d="M247.533886,347.219427 C237.68512,357.07156 218.618172,362.18256 205.164438,358.57636 L69.1785292,322.12676 C55.7247955,318.521827 41.7671006,304.55936 38.1621331,291.101027 L1.72372403,155.06736 C-1.88124351,141.609027 3.22927597,122.536827 13.0780422,112.684693 L112.625542,13.10316 C122.473042,3.24976 141.53999,-1.85997333 154.993724,1.74622667 L290.980899,38.1958267 C304.434633,41.8020267 318.391062,55.7644933 321.997295,69.2228267 L358.433172,205.255227 C362.03814,218.71356 356.928886,237.78576 347.078854,247.63916 L247.533886,347.219427 Z" id="Fill-1" fill="url(#linearGradient-1)"></path>
                    <path d="M284.363435,310.377287 L118.079084,144.036087 L91.1716169,170.952753 L73.4443442,153.21942 L50.8104156,175.861087 L28.176487,153.21942 L6.92401948,174.479153 L38.1620065,291.101153 C41.766974,304.559487 55.7246688,318.521953 69.1784026,322.126887 L205.164312,358.576487 C218.618045,362.182687 237.684994,357.071687 247.53376,347.219553 L284.363435,310.377287 Z" id="Fill-3" fill="#D46FC2"></path>
                </g>
                <g id="Group-8" transform="translate(0.000000, 72.877667)">
                    <mask id="mask-3" fill="white">
                        <use xlink:href="#path-2"></use>
                    </mask>
                    <g id="Clip-7"></g>
                    <polygon id="Fill-6" mask="url(#mask-3)" points="0 0.295133333 0 172.5618 64.5779221 172.5618 64.5779221 170.0272 2.53246753 170.0272 2.53246753 2.82846667 254.512987 2.82846667 254.512987 71.2284667 257.045455 71.2284667 257.045455 0.295133333"></polygon>
                </g>
                <path d="M318.893123,282.172673 L161.008968,282.172673 C158.102961,282.172673 155.7465,279.815407 155.7465,276.908407 L155.7465,169.638207 C155.7465,166.72994 158.104227,164.372673 161.010234,164.372673 L318.893123,164.372673 C321.79913,164.372673 324.155591,166.72994 324.155591,169.63694 L324.155591,276.908407 C324.155591,279.815407 321.79913,282.172673 318.893123,282.172673" id="Fill-9" fill="#5E7382"></path>
                <polygon id="Fill-11" fill="url(#linearGradient-4)" points="164.61039 268.239467 316.559708 268.239467 316.559708 171.971533 164.61039 171.971533"></polygon>
                <g id="Group-29" transform="translate(67.110390, 147.611000)">
                    <path d="M173.213182,20.16584 C173.213182,20.5585067 172.89789,20.8739067 172.509156,20.8739067 C172.11789,20.8739067 171.803864,20.5585067 171.803864,20.16584 C171.803864,19.7769733 172.11789,19.46284 172.509156,19.46284 C172.89789,19.46284 173.213182,19.7769733 173.213182,20.16584" id="Fill-13" fill="#E5E8EC"></path>
                    <polygon id="Fill-15" fill="#E5E8EC" points="60.7792208 135.828467 286.168831 135.828467 286.168831 129.495133 60.7792208 129.495133"></polygon>
                    <path d="M60.8572208,135.82834 C63.5251753,138.55674 68.4343636,139.62834 71.821539,139.62834 L274.981149,139.62834 C278.367058,139.62834 283.278779,138.55674 285.946734,135.82834 L60.8572208,135.82834 Z" id="Fill-17" fill="#CDD5D7"></path>
                    <path d="M158.279221,129.495007 L158.279221,129.60014 C158.06776,130.902273 159.125065,131.961207 160.426753,132.02834 L186.376948,132.02834 C187.678636,131.961207 188.735942,130.902273 188.668831,129.60014 L188.668831,129.495007 L158.279221,129.495007 Z" id="Fill-18" fill="#CDD5D7"></path>
                    <polygon id="Fill-19" fill="#FFFFFF" points="105.097403 107.9618 276.038961 107.9618 276.038961 0.295133333 105.097403 0.295133333"></polygon>
                    <polygon id="Fill-20" fill="#CDD5D7" points="105.097403 11.6951333 276.038961 11.6951333 276.038961 0.295133333 105.097403 0.295133333"></polygon>
                    <path d="M108.896104,5.99500667 L111.428571,5.99500667" id="Stroke-21" stroke="#879BA6" stroke-width="3"></path>
                    <path d="M115.227273,5.99500667 L117.75974,5.99500667" id="Stroke-22" stroke="#879BA6" stroke-width="3"></path>
                    <path d="M121.558442,5.99500667 L124.090909,5.99500667" id="Stroke-23" stroke="#879BA6" stroke-width="3"></path>
                    <polygon id="Fill-24" fill="#CDD5D7" points="2.53246753 71.22834 2.5463961 71.22834 1.26623377 71.22834 1.26623377 70.3670067 1.26623377 66.1616733 1.15987013 66.1616733 2.53246753 66.1616733 2.53246753 65.81714"></polygon>
                    <polygon id="Fill-25" fill="#CDD5D7" points="2.53246753 82.62834 2.53246753 82.62834 1.26623377 82.62834 1.26623377 75.02834 2.53246753 75.02834"></polygon>
                    <polygon id="Fill-26" fill="#CDD5D7" points="2.53246753 91.4950067 2.53246753 91.4950067 1.26623377 91.4950067 1.26623377 83.8950067 2.53246753 83.8950067"></polygon>
                    <path d="M44.5197662,156.095007 L8.66509091,156.095007 C4.59541558,156.095007 1.26648701,152.76494 1.26648701,148.693873 L1.26648701,59.62694 C1.26648701,55.55714 4.59414935,52.22834 8.66255844,52.22834 L44.5197662,52.22834 C48.5869091,52.22834 51.9158377,55.55714 51.9158377,59.62694 L51.9158377,148.696407 C51.9158377,152.766207 48.5869091,156.095007 44.5197662,156.095007" id="Fill-27" fill="#CDD5D7"></path>
                    <path d="M2.53246753,149.73824 L2.53246753,59.8517733 C2.53246753,56.3557733 5.39162338,53.49564 8.88769481,53.49564 L44.2953896,53.49564 C47.8041234,53.49564 50.6493506,56.3405733 50.6493506,59.8505067 L50.6493506,149.736973 C50.6493506,153.248173 47.8028571,156.09564 44.2928571,156.09564 L8.88769481,156.09564 C5.37769481,156.09564 2.53246753,153.248173 2.53246753,149.73824" id="Fill-28" fill="#E5E8EC"></path>
                </g>
                <polygon id="Fill-30" fill="url(#linearGradient-4)" points="72.1753247 291.039467 116.493506 291.039467 116.493506 212.506133 72.1753247 212.506133"></polygon>
                <g id="Group-40" transform="translate(84.837662, 202.077667)">
                    <path d="M2.14170779,4.68261333 C2.14170779,5.23361333 1.69346104,5.67821333 1.14518182,5.67821333 C0.595636364,5.67821333 0.148655844,5.23361333 0.148655844,4.68261333 C0.148655844,4.13414667 0.595636364,3.68574667 1.14518182,3.68574667 C1.69346104,3.68574667 2.14170779,4.13414667 2.14170779,4.68261333" id="Fill-32" fill="#596273"></path>
                    <path d="M9.70454221,1.21904 C9.70454221,1.57244 9.41710714,1.85997333 9.06382792,1.85997333 C8.7105487,1.85997333 8.4256461,1.57244 8.4256461,1.21904 C8.4256461,0.866906667 8.7105487,0.58064 9.06382792,0.58064 C9.41710714,0.58064 9.70454221,0.866906667 9.70454221,1.21904" id="Fill-34" fill="#596273"></path>
                    <path d="M12.998776,4.58976667 C12.998776,4.8507 12.7873149,5.06223333 12.5239383,5.36116667 L5.69767208,5.36116667 C5.43809416,5.06223333 5.22283442,4.8507 5.22283442,4.58976667 C5.22283442,4.3263 5.43809416,4.11096667 5.69767208,4.0945 L12.5239383,4.0945 C12.7873149,4.11096667 12.998776,4.3263 12.998776,4.58976667" id="Fill-36" fill="#596273"></path>
                    <path d="M12.6623377,95.5672133 C13.1181818,96.03968 12.7370455,96.42348 12.2660065,96.5615467 L6.00574675,96.5615467 C5.53724026,96.42348 5.15103896,96.03968 5.06493506,95.5672133 L5.06493506,93.8572133 C5.15103896,93.38728 5.53724026,93.0047467 6.00574675,92.7615467 L12.2660065,92.7615467 C12.7370455,93.0047467 13.1181818,93.38728 12.6623377,93.8572133 L12.6623377,95.5672133 Z" id="Fill-38" fill="#CDD5D7"></path>
                </g>
                <g id="Group-43" transform="translate(146.883117, 45.011000)">
                    <mask id="mask-6" fill="white">
                        <use xlink:href="#path-5"></use>
                    </mask>
                    <g id="Clip-42"></g>
                    <path d="M0.838246753,30.1834 C0.838246753,46.7957333 14.3008442,60.2629333 30.9075,60.2629333 C47.5166883,60.2629333 60.9792857,46.7957333 60.9792857,30.1834 C60.9792857,13.5685333 47.5166883,0.101333333 30.9075,0.101333333 C14.3008442,0.101333333 0.838246753,13.5685333 0.838246753,30.1834" id="Fill-41" fill="url(#linearGradient-7)" mask="url(#mask-6)"></path>
                </g>
                <g id="Group-46" transform="translate(68.376623, 45.011000)">
                    <mask id="mask-9" fill="white">
                        <use xlink:href="#path-8"></use>
                    </mask>
                    <g id="Clip-45"></g>
                    <path d="M0.203863636,30.1834 C0.203863636,46.7957333 13.6677273,60.2629333 30.2743831,60.2629333 C46.8823052,60.2629333 60.3474351,46.7957333 60.3474351,30.1834 C60.3474351,13.5685333 46.8823052,0.101333333 30.2743831,0.101333333 C13.6677273,0.101333333 0.203863636,13.5685333 0.203863636,30.1834" id="Fill-44" fill="url(#linearGradient-4)" mask="url(#mask-9)"></path>
                </g>
                <g id="Group-49" transform="translate(226.655844, 45.011000)">
                    <mask id="mask-11" fill="white">
                        <use xlink:href="#path-10"></use>
                    </mask>
                    <g id="Clip-48"></g>
                    <path d="M0.203863636,30.1834 C0.203863636,46.7957333 13.6677273,60.2629333 30.2756494,60.2629333 C46.8823052,60.2629333 60.3461688,46.7957333 60.3461688,30.1834 C60.3461688,13.5685333 46.8823052,0.101333333 30.2756494,0.101333333 C13.6677273,0.101333333 0.203863636,13.5685333 0.203863636,30.1834" id="Fill-47" fill="url(#linearGradient-12)" mask="url(#mask-11)"></path>
                </g>
                <g id="Group-141" transform="translate(84.837662, 60.211000)">
                    <polyline id="Stroke-50" stroke="#B0D9EF" points="254.512987 184.595007 143.717532 184.595007 143.717532 109.22834"></polyline>
                    <path d="M116.451468,144.462447 C112.551468,144.462447 108.866727,143.06658 105.965786,140.514247 L116.979487,129.495513 L132.321175,129.495513 C132.097052,133.39178 130.47374,137.02078 127.693091,139.803647 C124.689584,142.806913 120.698416,144.462447 116.451468,144.462447" id="Fill-52" fill="#39CBFF"></path>
                    <path d="M117.75974,126.961673 L117.75974,112.571073 C125.604058,113.065073 131.838994,119.133673 132.549351,126.961673 L117.75974,126.961673 Z" id="Fill-54" fill="#F95830"></path>
                    <path d="M117.314659,109.191227 C127.493912,109.673827 135.597808,118.084493 135.597808,128.386293 C135.597808,138.999693 126.996282,147.60416 116.387776,147.60416 C111.493782,147.60416 107.029042,145.773827 103.636802,142.760427" id="Stroke-56" stroke="#D9E1E4" stroke-width="2"></path>
                    <path d="M101.607916,139.8856 C99.0881104,136.592267 97.7142468,132.5592 97.7142468,128.3868 C97.7142468,118.938733 104.746909,110.953667 113.961292,109.6414 L113.961292,127.270867 L101.607916,139.8856 Z" id="Fill-58" fill="#B6C2C9"></path>
                    <path d="M115.227273,108.23388 C104.73526,108.96348 96.4477597,117.704747 96.4477597,128.386547 C96.4477597,133.525413 98.3699026,138.213347 101.52789,141.777747 L115.227273,127.78868 L115.227273,108.23388 Z M112.694805,111.761547 L112.694805,126.753813 L101.768474,137.91188 C99.9564935,135.083413 98.9802273,131.785013 98.9802273,128.386547 C98.9802273,120.072147 104.817565,112.971213 112.694805,111.16368 L112.694805,111.761547 Z" id="Fill-60" fill="#B6C2C9"></path>
                    <path d="M101.298701,157.361673 L110.162338,157.361673" id="Stroke-62" stroke="#F95830" stroke-width="2"></path>
                    <path d="M131.688312,157.361673 L113.961039,157.361673" id="Stroke-64" stroke="#A5B6BE" stroke-width="2"></path>
                    <path d="M101.298701,164.961673 L110.162338,164.961673" id="Stroke-66" stroke="#39CBFF" stroke-width="2"></path>
                    <path d="M131.688312,164.961673 L113.961039,164.961673" id="Stroke-68" stroke="#A5B6BE" stroke-width="2"></path>
                    <path d="M101.298701,171.295007 L110.162338,171.295007" id="Stroke-70" stroke="#D8E5ED" stroke-width="2"></path>
                    <path d="M131.688312,171.295007 L113.961039,171.295007" id="Stroke-72" stroke="#A5B6BE" stroke-width="2"></path>
                    <path d="M143.084416,116.195007 L254.512987,116.195007" id="Stroke-74" stroke="#D8E5ED"></path>
                    <path d="M143.084416,126.32834 L254.512987,126.32834" id="Stroke-76" stroke="#D8E5ED"></path>
                    <path d="M143.084416,136.461673 L254.512987,136.461673" id="Stroke-78" stroke="#D8E5ED"></path>
                    <path d="M143.084416,146.595007 L254.512987,146.595007" id="Stroke-80" stroke="#D8E5ED"></path>
                    <path d="M143.084416,156.72834 L254.512987,156.72834" id="Stroke-82" stroke="#D8E5ED"></path>
                    <path d="M143.084416,166.861673 L254.512987,166.861673" id="Stroke-84" stroke="#D8E5ED"></path>
                    <path d="M143.084416,176.995007 L254.512987,176.995007" id="Stroke-86" stroke="#D8E5ED"></path>
                    <path d="M203.230519,185.22834 L203.230519,189.02834" id="Stroke-88" stroke="#D8E5ED"></path>
                    <path d="M194.366883,185.22834 L194.366883,189.02834" id="Stroke-90" stroke="#D8E5ED"></path>
                    <path d="M185.503247,185.22834 L185.503247,189.02834" id="Stroke-92" stroke="#D8E5ED"></path>
                    <path d="M176.63961,185.22834 L176.63961,189.02834" id="Stroke-94" stroke="#D8E5ED"></path>
                    <path d="M166.50974,185.22834 L166.50974,189.02834" id="Stroke-96" stroke="#D8E5ED"></path>
                    <path d="M157.646104,185.22834 L157.646104,189.02834" id="Stroke-98" stroke="#D8E5ED"></path>
                    <path d="M148.782468,185.22834 L148.782468,189.02834" id="Stroke-100" stroke="#D8E5ED"></path>
                    <path d="M250.081169,185.22834 L250.081169,189.02834" id="Stroke-102" stroke="#D8E5ED"></path>
                    <path d="M241.217532,185.22834 L241.217532,189.02834" id="Stroke-104" stroke="#D8E5ED"></path>
                    <path d="M231.087662,185.22834 L231.087662,189.02834" id="Stroke-106" stroke="#D8E5ED"></path>
                    <path d="M222.224026,185.22834 L222.224026,189.02834" id="Stroke-108" stroke="#D8E5ED"></path>
                    <path d="M213.36039,185.22834 L213.36039,189.02834" id="Stroke-110" stroke="#D8E5ED"></path>
                    <polyline id="Stroke-112" stroke="#F95830" stroke-width="3" points="149.639455 175.133387 193.733513 147.22872 221.094292 155.814187 246.987506 132.54552"></polyline>
                    <polyline id="Stroke-114" stroke="#39CBFF" stroke-width="2" points="149.639455 162.25392 173.535818 149.374453 196.39387 165.47252 222.368123 137.56912 245.226175 146.154587"></polyline>
                    <path d="M20.2597403,20.5616733 L18.9935065,20.5616733 C17.5955844,20.5616733 16.461039,21.6966067 16.461039,23.0950067 L16.461039,25.62834 L22.7922078,25.62834 L22.7922078,23.0950067 C22.7922078,21.6966067 21.6576623,20.5616733 20.2597403,20.5616733" id="Fill-116" fill="#FFFFFF"></path>
                    <path d="M2.53246753,28.1618 L25.3246753,28.1618 L25.3246753,5.3618 L2.53246753,5.3618 L2.53246753,28.1618 Z M0,30.6951333 L27.8571429,30.6951333 L27.8571429,2.82846667 L0,2.82846667 L0,30.6951333 Z" id="Fill-118" fill="#FFFFFF"></path>
                    <polygon id="Fill-120" fill="#FFFFFF" points="5.06493506 7.89513333 7.5974026 7.89513333 7.5974026 0.295133333 5.06493506 0.295133333"></polygon>
                    <polygon id="Fill-121" fill="#FFFFFF" points="20.2597403 7.89513333 22.7922078 7.89513333 22.7922078 0.295133333 20.2597403 0.295133333"></polygon>
                    <polygon id="Fill-122" fill="#FFFFFF" points="1.26623377 11.6951333 26.5909091 11.6951333 26.5909091 9.1618 1.26623377 9.1618"></polygon>
                    <polygon id="Fill-123" fill="#FFFFFF" points="5.06493506 21.8284667 7.5974026 21.8284667 7.5974026 19.2951333 5.06493506 19.2951333"></polygon>
                    <polygon id="Fill-124" fill="#FFFFFF" points="8.86363636 21.8284667 11.3961039 21.8284667 11.3961039 19.2951333 8.86363636 19.2951333"></polygon>
                    <polygon id="Fill-125" fill="#FFFFFF" points="12.6623377 21.8284667 15.1948052 21.8284667 15.1948052 19.2951333 12.6623377 19.2951333"></polygon>
                    <polygon id="Fill-126" fill="#FFFFFF" points="8.86363636 18.0284667 11.3961039 18.0284667 11.3961039 15.4951333 8.86363636 15.4951333"></polygon>
                    <polygon id="Fill-127" fill="#FFFFFF" points="12.6623377 18.0284667 15.1948052 18.0284667 15.1948052 15.4951333 12.6623377 15.4951333"></polygon>
                    <polygon id="Fill-128" fill="#FFFFFF" points="5.06493506 25.6284667 7.5974026 25.6284667 7.5974026 23.0951333 5.06493506 23.0951333"></polygon>
                    <polygon id="Fill-129" fill="#FFFFFF" points="8.86363636 25.6284667 11.3961039 25.6284667 11.3961039 23.0951333 8.86363636 23.0951333"></polygon>
                    <polygon id="Fill-130" fill="#FFFFFF" points="12.6623377 25.6284667 15.1948052 25.6284667 15.1948052 23.0951333 12.6623377 23.0951333"></polygon>
                    <path d="M21.525974,16.86744 C21.525974,17.9175067 20.6750649,18.76744 19.6266234,18.76744 C18.5781818,18.76744 17.7272727,17.9175067 17.7272727,16.86744 C17.7272727,15.8173733 18.5781818,14.96744 19.6266234,14.96744 C20.6750649,14.96744 21.525974,15.8173733 21.525974,16.86744" id="Fill-131" fill="#FFFFFF"></path>
                    <path d="M177.272727,23.0950067 L170.941558,23.0950067 L170.941558,20.5616733 L177.272727,20.5616733 C177.971688,20.5616733 178.538961,19.9942067 178.538961,19.2950067 L178.538961,6.62834 C178.538961,5.92914 177.971688,5.36167333 177.272727,5.36167333 L164.61039,5.36167333 C163.911429,5.36167333 163.344156,5.92914 163.344156,6.62834 L163.344156,9.16167333 L160.811688,9.16167333 L160.811688,6.62834 C160.811688,4.52947333 162.51224,2.82834 164.61039,2.82834 L177.272727,2.82834 C179.370877,2.82834 181.071429,4.52947333 181.071429,6.62834 L181.071429,19.2950067 C181.071429,21.3938733 179.370877,23.0950067 177.272727,23.0950067" id="Fill-132" fill="#FFFFFF"></path>
                    <polygon id="Fill-133" fill="#FFFFFF" points="186.136364 21.8253 178.909968 14.5964333 180.700422 12.8053667 183.603896 15.7098333 183.603896 9.15863333 180.700422 12.0631 178.909968 10.2720333 186.136364 3.04316667"></polygon>
                    <polygon id="Fill-134" fill="#FFFFFF" points="173.47162 12.41308 171.572269 14.3029467 169.675451 16.19028 169.675451 12.41308 169.675451 8.63461333 171.572269 10.52448"></polygon>
                    <path d="M162.077922,13.7007733 C161.378961,13.7007733 160.811688,14.2695067 160.811688,14.96744 C160.811688,15.6653733 161.378961,16.2341067 162.077922,16.2341067 C162.776883,16.2341067 163.344156,15.6653733 163.344156,14.96744 C163.344156,14.2695067 162.776883,13.7007733 162.077922,13.7007733 M162.077922,18.76744 C159.983571,18.76744 158.279221,17.0625067 158.279221,14.96744 C158.279221,12.8723733 159.983571,11.16744 162.077922,11.16744 C164.172273,11.16744 165.876623,12.8723733 165.876623,14.96744 C165.876623,17.0625067 164.172273,18.76744 162.077922,18.76744" id="Fill-135" fill="#FFFFFF"></path>
                    <path d="M168.409091,28.1616733 L165.876623,28.1616733 L165.876623,24.3616733 C165.876623,23.6624733 165.309351,23.0950067 164.61039,23.0950067 L159.545455,23.0950067 C158.846494,23.0950067 158.279221,23.6624733 158.279221,24.3616733 L158.279221,28.1616733 L155.746753,28.1616733 L155.746753,24.3616733 C155.746753,22.2628067 157.447305,20.5616733 159.545455,20.5616733 L164.61039,20.5616733 C166.708539,20.5616733 168.409091,22.2628067 168.409091,24.3616733 L168.409091,28.1616733 Z" id="Fill-136" fill="#FFFFFF"></path>
                    <polygon id="Fill-137" fill="#FFFFFF" points="83.5714286 28.1616733 78.5064935 28.1616733 78.5064935 6.10394 84.3134416 0.295006667 98.7662338 0.295006667 98.7662338 12.9616733 96.2337662 12.9616733 96.2337662 2.82834 85.3618831 2.82834 81.038961 7.15274 81.038961 25.62834 83.5714286 25.62834"></polygon>
                    <polygon id="Fill-138" fill="#FFFFFF" points="87.3701299 9.16167333 81.038961 9.16167333 81.038961 6.62834 84.8376623 6.62834 84.8376623 2.82834 87.3701299 2.82834"></polygon>
                    <path d="M88.6363636,28.1618 L106.363636,28.1618 L106.363636,18.0284667 L88.6363636,18.0284667 L88.6363636,28.1618 Z M86.1038961,30.6951333 L108.896104,30.6951333 L108.896104,15.4951333 L86.1038961,15.4951333 L86.1038961,30.6951333 Z" id="Fill-139" fill="#FFFFFF"></path>
                    <polygon id="Fill-140" fill="#FFFFFF" points="97.5 25.41744 86.6103896 17.24744 88.1298701 15.2207733 97.5 22.2507733 106.87013 15.2207733 108.38961 17.24744"></polygon>
                </g>
                <g id="Group-144" transform="translate(79.772727, 229.944333)">
                    <mask id="mask-14" fill="white">
                        <use xlink:href="#path-13"></use>
                    </mask>
                    <g id="Clip-143"></g>
                    <path d="M0.255779221,13.9346 C0.255779221,21.4535333 6.3488961,27.55 13.8639935,27.55 C21.3803571,27.55 27.4747403,21.4535333 27.4747403,13.9346 C27.4747403,6.41566667 21.3803571,0.3192 13.8639935,0.3192 C6.3488961,0.3192 0.255779221,6.41566667 0.255779221,13.9346" id="Fill-142" mask="url(#mask-14)"></path>
                </g>
                <g id="Group-151" transform="translate(87.370130, 109.611000)">
                    <polyline id="Stroke-145" stroke="#FFFFFF" stroke-width="2" points="0.509532468 135.890153 3.64852597 139.031487 13.0667727 129.608753"></polyline>
                    <polygon id="Fill-147" fill="#FFFFFF" points="196.266234 92.7618 302.62987 92.7618 302.62987 0.295133333 196.266234 0.295133333"></polygon>
                    <polygon id="Fill-149" fill="#F3F3F3" points="198.798701 35.7618 301.363636 35.7618 301.363636 18.0284667 198.798701 18.0284667"></polygon>
                    <polygon id="Fill-150" fill="#F3F3F3" points="198.798701 71.2284667 301.363636 71.2284667 301.363636 53.4951333 198.798701 53.4951333"></polygon>
                </g>
                <polygon id="Fill-152" points="286.168831 199.839467 388.733766 199.839467 388.733766 182.106133 286.168831 182.106133"></polygon>
                <g id="Group-190" transform="translate(10.129870, 109.611000)">
                    <polygon id="Fill-154" fill="#E5E8EC" points="273.506494 18.0284667 379.87013 18.0284667 379.87013 0.295133333 273.506494 0.295133333"></polygon>
                    <path d="M281.103896,9.16167333 L326.688312,9.16167333" id="Stroke-156" stroke="#A5B6BE" stroke-width="2"></path>
                    <path d="M346.948052,9.16167333 L355.811688,9.16167333" id="Stroke-157" stroke="#A5B6BE" stroke-width="2"></path>
                    <path d="M362.142857,9.16167333 L371.006494,9.16167333" id="Stroke-158" stroke="#A5B6BE" stroke-width="2"></path>
                    <path d="M281.103896,26.8950067 L326.688312,26.8950067" id="Stroke-159" stroke="#D9E1E4" stroke-width="2"></path>
                    <path d="M346.948052,26.8950067 L355.811688,26.8950067" id="Stroke-160" stroke="#D9E1E4" stroke-width="2"></path>
                    <path d="M362.142857,26.8950067 L371.006494,26.8950067" id="Stroke-161" stroke="#D9E1E4" stroke-width="2"></path>
                    <path d="M281.103896,44.62834 L326.688312,44.62834" id="Stroke-162" stroke="#D9E1E4" stroke-width="2"></path>
                    <path d="M346.948052,44.62834 L355.811688,44.62834" id="Stroke-163" stroke="#D9E1E4" stroke-width="2"></path>
                    <path d="M362.142857,44.62834 L371.006494,44.62834" id="Stroke-164" stroke="#D9E1E4" stroke-width="2"></path>
                    <path d="M281.103896,62.3616733 L326.688312,62.3616733" id="Stroke-165" stroke="#D9E1E4" stroke-width="2"></path>
                    <path d="M346.948052,62.3616733 L355.811688,62.3616733" id="Stroke-166" stroke="#D9E1E4" stroke-width="2"></path>
                    <path d="M362.142857,62.3616733 L371.006494,62.3616733" id="Stroke-167" stroke="#D9E1E4" stroke-width="2"></path>
                    <path d="M281.103896,81.3616733 L326.688312,81.3616733" id="Stroke-168" stroke="#FFFFFF" stroke-width="2"></path>
                    <path d="M346.948052,81.3616733 L355.811688,81.3616733" id="Stroke-169" stroke="#FFFFFF" stroke-width="2"></path>
                    <path d="M362.142857,81.3616733 L371.006494,81.3616733" id="Stroke-170" stroke="#FFFFFF" stroke-width="2"></path>
                    <polygon id="Fill-171" fill="#F3F3F3" points="0 82.6284667 125.357143 82.6284667 125.357143 35.7618 0 35.7618"></polygon>
                    <polygon id="Fill-172" fill="#CDD5D7" points="0 45.8951333 125.357143 45.8951333 125.357143 34.4951333 0 34.4951333"></polygon>
                    <g id="Group-175" transform="translate(3.798701, 39.266667)">
                        <path d="M0,0.92834 L3.7987013,0.92834" id="Fill-173" fill="#D8E5ED"></path>
                        <path d="M0,0.92834 L3.7987013,0.92834" id="Stroke-174" stroke="#879BA6" stroke-width="3"></path>
                    </g>
                    <g id="Group-178" transform="translate(10.129870, 39.266667)">
                        <path d="M0,0.92834 L3.7987013,0.92834" id="Fill-176" fill="#D8E5ED"></path>
                        <path d="M0,0.92834 L3.7987013,0.92834" id="Stroke-177" stroke="#879BA6" stroke-width="3"></path>
                    </g>
                    <g id="Group-181" transform="translate(16.461039, 39.266667)">
                        <path d="M0,0.92834 L3.7987013,0.92834" id="Fill-179" fill="#D8E5ED"></path>
                        <path d="M0,0.92834 L3.7987013,0.92834" id="Stroke-180" stroke="#879BA6" stroke-width="3"></path>
                    </g>
                    <path d="M27.8571429,75.02834 L27.8571429,71.6716733 C27.8571429,68.6278733 25.3917857,66.1616733 22.349026,66.1616733 L13.1055195,66.1616733 C10.0627597,66.1616733 7.5974026,68.6278733 7.5974026,71.6716733 L7.5974026,75.02834 L27.8571429,75.02834 Z" id="Fill-182" fill="#B5D1DE"></path>
                    <path d="M22.232026,57.28082 C22.232026,54.6182867 20.0743636,52.45862 17.411474,52.45862 C14.7498506,52.45862 12.5921883,54.6182867 12.5921883,57.28082 C12.5921883,59.9433533 14.7498506,62.10302 17.411474,62.10302 C20.0743636,62.10302 22.232026,59.9433533 22.232026,57.28082" id="Fill-183" fill="#B5D1DE"></path>
                    <g id="Group-186" transform="translate(31.655844, 60.800000)">
                        <path d="M0,0.295006667 L44.3181818,0.295006667" id="Fill-184" fill="#D8E5ED"></path>
                        <path d="M0,0.295006667 L44.3181818,0.295006667" id="Stroke-185" stroke="#B5D1DE" stroke-width="2"></path>
                    </g>
                    <g id="Group-189" transform="translate(31.655844, 65.866667)">
                        <path d="M0,0.295006667 L29.1233766,0.295006667" id="Fill-187" fill="#D8E5ED"></path>
                        <path d="M0,0.295006667 L29.1233766,0.295006667" id="Stroke-188" stroke="#B5D1DE" stroke-width="2"></path>
                    </g>
                </g>
                <polygon id="Fill-191" fill="url(#linearGradient-15)" points="106.363636 184.639467 127.88961 184.639467 127.88961 163.106133 106.363636 163.106133"></polygon>
                <g id="Group-197" transform="translate(110.162338, 166.611000)" stroke="#FFFFFF" stroke-width="3">
                    <polyline id="Stroke-193" points="6.93592208 12.4576667 12.834039 6.55246667 6.93592208 0.646"></polyline>
                    <path d="M11.3961039,5.99500667 L0,5.99500667" id="Stroke-195"></path>
                </g>
            </g>
        </g>
    </g>
</svg>