<?xml version="1.0" encoding="UTF-8"?>
<svg width="262px" height="248px" viewBox="0 0 262 248" version="1.1" xmlns="http://www.w3.org/2000/svg" xmlns:xlink="http://www.w3.org/1999/xlink">
    <!-- Generator: Sketch 49.2 (51160) - http://www.bohemiancoding.com/sketch -->
    <title>crm</title>
    <desc>Created with Sketch.</desc>
    <defs>
        <linearGradient x1="0%" y1="0%" x2="101.999998%" y2="100.999999%" id="linearGradient-1">
            <stop stop-color="#FF7675" offset="0%"></stop>
            <stop stop-color="#C86DD7" offset="100%"></stop>
        </linearGradient>
        <polygon id="path-2" points="0 0.202750877 0 118.546611 44.3766234 118.546611 44.3766234 116.805389 1.74025974 116.805389 1.74025974 1.94310175 174.896104 1.94310175 174.896104 48.9325754 176.636364 48.9325754 176.636364 0.202750877"></polygon>
        <linearGradient x1="0%" y1="0%" x2="101.999998%" y2="100.999999%" id="linearGradient-4">
            <stop stop-color="#3023AE" offset="0%"></stop>
            <stop stop-color="#C86DD7" offset="100%"></stop>
        </linearGradient>
        <path d="M0.576025974,20.7354105 C0.576025974,32.1477614 9.82724675,41.3994667 21.239,41.3994667 C32.6524935,41.3994667 41.9037143,32.1477614 41.9037143,20.7354105 C41.9037143,9.3213193 32.6524935,0.0696140351 21.239,0.0696140351 C9.82724675,0.0696140351 0.576025974,9.3213193 0.576025974,20.7354105" id="path-5"></path>
        <linearGradient x1="-15.4055361%" y1="0%" x2="50%" y2="100%" id="linearGradient-7">
            <stop stop-color="#FAD961" offset="0%"></stop>
            <stop stop-color="#F76B1C" offset="100%"></stop>
        </linearGradient>
        <path d="M0.140090909,20.7354105 C0.140090909,32.1477614 9.39218182,41.3994667 20.8039351,41.3994667 C32.2165584,41.3994667 41.4695195,32.1477614 41.4695195,20.7354105 C41.4695195,9.3213193 32.2165584,0.0696140351 20.8039351,0.0696140351 C9.39218182,0.0696140351 0.140090909,9.3213193 0.140090909,20.7354105" id="path-8"></path>
        <path d="M0.140090909,20.7354105 C0.140090909,32.1477614 9.39218182,41.3994667 20.8048052,41.3994667 C32.2165584,41.3994667 41.4686494,32.1477614 41.4686494,20.7354105 C41.4686494,9.3213193 32.2165584,0.0696140351 20.8048052,0.0696140351 C9.39218182,0.0696140351 0.140090909,9.3213193 0.140090909,20.7354105" id="path-10"></path>
        <linearGradient x1="-14.3140951%" y1="0%" x2="50%" y2="100%" id="linearGradient-12">
            <stop stop-color="#F5515F" offset="0%"></stop>
            <stop stop-color="#9F041B" offset="100%"></stop>
        </linearGradient>
        <path d="M0.175766234,9.5728 C0.175766234,14.7381614 4.36283117,18.9263158 9.52705195,18.9263158 C14.6921429,18.9263158 18.8800779,14.7381614 18.8800779,9.5728 C18.8800779,4.4074386 14.6921429,0.219284211 9.52705195,0.219284211 C4.36283117,0.219284211 0.175766234,4.4074386 0.175766234,9.5728" id="path-13"></path>
        <linearGradient x1="0.25781251%" y1="49.7500002%" x2="101.257813%" y2="49.7500002%" id="linearGradient-15">
            <stop stop-color="#3023AE" offset="0%"></stop>
            <stop stop-color="#53A0FD" offset="47.5247532%"></stop>
            <stop stop-color="#B4EC51" offset="100%"></stop>
        </linearGradient>
    </defs>
    <g id="landing-page" stroke="none" stroke-width="1" fill="none" fill-rule="evenodd">
        <g id="home" transform="translate(-200.000000, -924.000000)">
            <g id="crm" transform="translate(194.000000, 924.000000)">
                <g id="Group-5" transform="translate(11.311688, 0.465544)">
                    <path d="M170.100209,238.533013 C163.332339,245.301238 150.229923,248.812396 140.984794,246.335006 L47.5380662,221.294838 C38.2929364,218.818319 28.7014948,209.226375 26.2242351,199.980761 L1.18450779,106.528269 C-1.29275195,97.2826554 2.21909221,84.1804239 8.98696234,77.4121993 L77.3939623,9.00161684 C84.1609623,2.23252211 97.2633779,-1.27776561 106.508508,1.19962386 L199.956105,26.2397923 C209.201235,28.7171818 218.791806,38.3091256 221.269936,47.5547396 L246.307923,141.006361 C248.785183,150.251975 245.274209,163.354206 238.505469,170.123301 L170.100209,238.533013 Z" id="Fill-1" fill="url(#linearGradient-1)"></path>
                    <path d="M195.408719,213.223178 L81.1415247,98.9499986 L62.6512649,117.441227 L50.4694468,105.258771 L34.9158753,120.813156 L19.3623039,105.258771 L4.75804416,119.863795 L26.2241481,199.980848 C28.7014078,209.226462 38.2928494,218.818406 47.5379792,221.294925 L140.984706,246.335093 C150.229836,248.812483 163.332252,245.301325 170.100122,238.5331 L195.408719,213.223178 Z" id="Fill-3" fill="#D46FC2"></path>
                </g>
                <g id="Group-8" transform="translate(0.000000, 50.065544)">
                    <mask id="mask-3" fill="white">
                        <use xlink:href="#path-2"></use>
                    </mask>
                    <g id="Clip-7"></g>
                    <polygon id="Fill-6" mask="url(#mask-3)" points="0 0.202750877 0 118.546611 44.3766234 118.546611 44.3766234 116.805389 1.74025974 116.805389 1.74025974 1.94310175 174.896104 1.94310175 174.896104 48.9325754 176.636364 48.9325754 176.636364 0.202750877"></polygon>
                </g>
                <path d="M219.136813,193.847155 L110.64206,193.847155 C108.645112,193.847155 107.0258,192.227759 107.0258,190.230706 L107.0258,116.538159 C107.0258,114.540236 108.645982,112.920839 110.64293,112.920839 L219.136813,112.920839 C221.133761,112.920839 222.753073,114.540236 222.753073,116.537288 L222.753073,190.230706 C222.753073,192.227759 221.133761,193.847155 219.136813,193.847155" id="Fill-9" fill="#5E7382"></path>
                <polygon id="Fill-11" fill="url(#linearGradient-4)" points="113.116883 184.275312 217.533338 184.275312 217.533338 118.141109 113.116883 118.141109"></polygon>
                <g id="Group-29" transform="translate(46.116883, 101.405895)">
                    <path d="M119.028545,13.8535411 C119.028545,14.1232954 118.811883,14.3399691 118.544753,14.3399691 C118.275883,14.3399691 118.060091,14.1232954 118.060091,13.8535411 C118.060091,13.5863972 118.275883,13.3705937 118.544753,13.3705937 C118.811883,13.3705937 119.028545,13.5863972 119.028545,13.8535411" id="Fill-13" fill="#E5E8EC"></path>
                    <polygon id="Fill-15" fill="#E5E8EC" points="41.7662338 93.3115228 196.649351 93.3115228 196.649351 88.9606456 41.7662338 88.9606456"></polygon>
                    <path d="M41.8198338,93.3114358 C43.6531974,95.1857937 47.0266909,95.9219621 49.3542883,95.9219621 L188.961405,95.9219621 C191.288132,95.9219621 194.663366,95.1857937 196.49673,93.3114358 L41.8198338,93.3114358 Z" id="Fill-17" fill="#CDD5D7"></path>
                    <path d="M108.766234,88.9605586 L108.766234,89.0327832 C108.620922,89.9273235 109.347481,90.6547902 110.241974,90.7009095 L128.074416,90.7009095 C128.968909,90.6547902 129.695468,89.9273235 129.649351,89.0327832 L129.649351,88.9605586 L108.766234,88.9605586 Z" id="Fill-18" fill="#CDD5D7"></path>
                    <polygon id="Fill-19" fill="#FFFFFF" points="72.2207792 74.1676632 189.688312 74.1676632 189.688312 0.202750877 72.2207792 0.202750877"></polygon>
                    <polygon id="Fill-20" fill="#CDD5D7" points="72.2207792 8.03432982 189.688312 8.03432982 189.688312 0.202750877 72.2207792 0.202750877"></polygon>
                    <path d="M74.8311688,4.11845333 L76.5714286,4.11845333" id="Stroke-21" stroke="#879BA6" stroke-width="3"></path>
                    <path d="M79.1818182,4.11845333 L80.9220779,4.11845333" id="Stroke-22" stroke="#879BA6" stroke-width="3"></path>
                    <path d="M83.5324675,4.11845333 L85.2727273,4.11845333" id="Stroke-23" stroke="#879BA6" stroke-width="3"></path>
                    <polygon id="Fill-24" fill="#CDD5D7" points="1.74025974 48.9324884 1.74983117 48.9324884 0.87012987 48.9324884 0.87012987 48.3407691 0.87012987 45.4517867 0.797038961 45.4517867 1.74025974 45.4517867 1.74025974 45.2150989"></polygon>
                    <polygon id="Fill-25" fill="#CDD5D7" points="1.74025974 56.7640674 1.74025974 56.7640674 0.87012987 56.7640674 0.87012987 51.5430147 1.74025974 51.5430147"></polygon>
                    <polygon id="Fill-26" fill="#CDD5D7" points="1.74025974 62.8552954 1.74025974 62.8552954 0.87012987 62.8552954 0.87012987 57.6342428 1.74025974 57.6342428"></polygon>
                    <path d="M30.5930701,107.234243 L5.95447273,107.234243 C3.15787532,107.234243 0.870303896,104.946552 0.870303896,102.149808 L0.870303896,40.9625516 C0.870303896,38.1666779 3.15700519,35.8798568 5.95273247,35.8798568 L30.5930701,35.8798568 C33.3879273,35.8798568 35.6754987,38.1666779 35.6754987,40.9625516 L35.6754987,102.151548 C35.6754987,104.947422 33.3879273,107.234243 30.5930701,107.234243" id="Fill-27" fill="#CDD5D7"></path>
                    <path d="M1.74025974,102.867267 L1.74025974,41.1170077 C1.74025974,38.7153235 3.70501299,36.7504674 6.10744156,36.7504674 L30.4388831,36.7504674 C32.850013,36.7504674 34.8051948,38.7048814 34.8051948,41.1161375 L34.8051948,102.866397 C34.8051948,105.278524 32.8491429,107.234678 30.4371429,107.234678 L6.10744156,107.234678 C3.69544156,107.234678 1.74025974,105.278524 1.74025974,102.867267" id="Fill-28" fill="#E5E8EC"></path>
                </g>
                <polygon id="Fill-30" fill="url(#linearGradient-4)" points="49.5974026 199.93847 80.0519481 199.93847 80.0519481 145.987593 49.5974026 145.987593"></polygon>
                <g id="Group-40" transform="translate(58.298701, 138.823439)">
                    <path d="M1.47173766,3.21686456 C1.47173766,3.59539088 1.16371169,3.90082246 0.786945455,3.90082246 C0.409309091,3.90082246 0.102153247,3.59539088 0.102153247,3.21686456 C0.102153247,2.8400786 0.409309091,2.53203649 0.786945455,2.53203649 C1.16371169,2.53203649 1.47173766,2.8400786 1.47173766,3.21686456" id="Fill-32" fill="#596273"></path>
                    <path d="M6.66876234,0.837456842 C6.66876234,1.08023579 6.47124286,1.27776561 6.22847662,1.27776561 C5.98571039,1.27776561 5.78993117,1.08023579 5.78993117,0.837456842 C5.78993117,0.59554807 5.98571039,0.398888421 6.22847662,0.398888421 C6.47124286,0.398888421 6.66876234,0.59554807 6.66876234,0.837456842" id="Fill-34" fill="#596273"></path>
                    <path d="M8.93249221,3.1530807 C8.93249221,3.33233684 8.78718052,3.47765614 8.60619351,3.68301754 L3.91532338,3.68301754 C3.73694675,3.47765614 3.58902468,3.33233684 3.58902468,3.1530807 C3.58902468,2.97208421 3.73694675,2.82415439 3.91532338,2.81284211 L8.60619351,2.81284211 C8.78718052,2.82415439 8.93249221,2.97208421 8.93249221,3.1530807" id="Fill-36" fill="#596273"></path>
                    <path d="M8.7012987,65.6528225 C9.01454545,65.9773979 8.75263636,66.2410611 8.42894805,66.3359102 L4.12702597,66.3359102 C3.80507792,66.2410611 3.53968831,65.9773979 3.48051948,65.6528225 L3.48051948,64.4780856 C3.53968831,64.1552505 3.80507792,63.8924575 4.12702597,63.7253839 L8.42894805,63.7253839 C8.75263636,63.8924575 9.01454545,64.1552505 8.7012987,64.4780856 L8.7012987,65.6528225 Z" id="Fill-38" fill="#CDD5D7"></path>
                </g>
                <g id="Group-43" transform="translate(100.935065, 30.921684)">
                    <mask id="mask-6" fill="white">
                        <use xlink:href="#path-5"></use>
                    </mask>
                    <g id="Clip-42"></g>
                    <path d="M0.576025974,20.7354105 C0.576025974,32.1477614 9.82724675,41.3994667 21.239,41.3994667 C32.6524935,41.3994667 41.9037143,32.1477614 41.9037143,20.7354105 C41.9037143,9.3213193 32.6524935,0.0696140351 21.239,0.0696140351 C9.82724675,0.0696140351 0.576025974,9.3213193 0.576025974,20.7354105" id="Fill-41" fill="url(#linearGradient-7)" mask="url(#mask-6)"></path>
                </g>
                <g id="Group-46" transform="translate(46.987013, 30.921684)">
                    <mask id="mask-9" fill="white">
                        <use xlink:href="#path-8"></use>
                    </mask>
                    <g id="Clip-45"></g>
                    <path d="M0.140090909,20.7354105 C0.140090909,32.1477614 9.39218182,41.3994667 20.8039351,41.3994667 C32.2165584,41.3994667 41.4695195,32.1477614 41.4695195,20.7354105 C41.4695195,9.3213193 32.2165584,0.0696140351 20.8039351,0.0696140351 C9.39218182,0.0696140351 0.140090909,9.3213193 0.140090909,20.7354105" id="Fill-44" fill="url(#linearGradient-4)" mask="url(#mask-9)"></path>
                </g>
                <g id="Group-49" transform="translate(155.753247, 30.921684)">
                    <mask id="mask-11" fill="white">
                        <use xlink:href="#path-10"></use>
                    </mask>
                    <g id="Clip-48"></g>
                    <path d="M0.140090909,20.7354105 C0.140090909,32.1477614 9.39218182,41.3994667 20.8048052,41.3994667 C32.2165584,41.3994667 41.4686494,32.1477614 41.4686494,20.7354105 C41.4686494,9.3213193 32.2165584,0.0696140351 20.8048052,0.0696140351 C9.39218182,0.0696140351 0.140090909,9.3213193 0.140090909,20.7354105" id="Fill-47" fill="url(#linearGradient-12)" mask="url(#mask-11)"></path>
                </g>
                <g id="Group-141" transform="translate(58.298701, 41.363789)">
                    <polyline id="Stroke-50" stroke="#B0D9EF" points="174.896104 126.81319 98.7597403 126.81319 98.7597403 75.0377516"></polyline>
                    <path d="M80.0230597,99.2428996 C77.3430597,99.2428996 74.8109818,98.2839663 72.8175143,96.5305628 L80.3859039,88.9609067 L90.9283974,88.9609067 C90.7743844,91.6375663 89.6588779,94.1306189 87.7480727,96.0423944 C85.6841247,98.1055804 82.9414753,99.2428996 80.0230597,99.2428996" id="Fill-52" fill="#39CBFF"></path>
                    <path d="M80.9220779,87.2202077 L80.9220779,77.3341446 C86.3125325,77.673513 90.5970519,81.8425235 91.0851948,87.2202077 L80.9220779,87.2202077 Z" id="Fill-54" fill="#F95830"></path>
                    <path d="M80.6162273,75.0122554 C87.6112013,75.3437923 93.1800325,81.1217572 93.1800325,88.198894 C93.1800325,95.490094 87.2692403,101.401196 79.9792922,101.401196 C76.6162403,101.401196 73.5481623,100.143792 71.2170844,98.0736449" id="Stroke-56" stroke="#D9E1E4" stroke-width="2"></path>
                    <path d="M69.8228753,96.0986947 C68.0913169,93.8362386 67.147226,91.0656 67.147226,88.1992421 C67.147226,81.7086035 71.9799273,76.2230175 78.3118623,75.3215158 L78.3118623,87.4326175 L69.8228753,96.0986947 Z" id="Fill-58" fill="#B6C2C9"></path>
                    <path d="M79.1818182,74.3545768 C71.9719221,74.8557979 66.2769221,80.8608786 66.2769221,88.1990681 C66.2769221,91.7293698 67.5977792,94.9498891 69.7678831,97.3985628 L79.1818182,87.7883453 L79.1818182,74.3545768 Z M77.4415584,76.7780154 L77.4415584,87.0774119 L69.9332078,94.7427874 C68.6880519,92.7996856 68.0171818,90.5337488 68.0171818,88.1990681 C68.0171818,82.4872365 72.0284805,77.609033 77.4415584,76.3672926 L77.4415584,76.7780154 Z" id="Fill-60" fill="#B6C2C9"></path>
                    <path d="M69.6103896,108.104418 L75.7012987,108.104418" id="Stroke-62" stroke="#F95830" stroke-width="2"></path>
                    <path d="M90.4935065,108.104418 L78.3116883,108.104418" id="Stroke-64" stroke="#A5B6BE" stroke-width="2"></path>
                    <path d="M69.6103896,113.325471 L75.7012987,113.325471" id="Stroke-66" stroke="#39CBFF" stroke-width="2"></path>
                    <path d="M90.4935065,113.325471 L78.3116883,113.325471" id="Stroke-68" stroke="#A5B6BE" stroke-width="2"></path>
                    <path d="M69.6103896,117.676348 L75.7012987,117.676348" id="Stroke-70" stroke="#D8E5ED" stroke-width="2"></path>
                    <path d="M90.4935065,117.676348 L78.3116883,117.676348" id="Stroke-72" stroke="#A5B6BE" stroke-width="2"></path>
                    <path d="M98.3246753,79.8237165 L174.896104,79.8237165" id="Stroke-74" stroke="#D8E5ED"></path>
                    <path d="M98.3246753,86.78512 L174.896104,86.78512" id="Stroke-76" stroke="#D8E5ED"></path>
                    <path d="M98.3246753,93.7465235 L174.896104,93.7465235" id="Stroke-78" stroke="#D8E5ED"></path>
                    <path d="M98.3246753,100.707927 L174.896104,100.707927" id="Stroke-80" stroke="#D8E5ED"></path>
                    <path d="M98.3246753,107.669331 L174.896104,107.669331" id="Stroke-82" stroke="#D8E5ED"></path>
                    <path d="M98.3246753,114.630734 L174.896104,114.630734" id="Stroke-84" stroke="#D8E5ED"></path>
                    <path d="M98.3246753,121.592138 L174.896104,121.592138" id="Stroke-86" stroke="#D8E5ED"></path>
                    <path d="M139.655844,127.248278 L139.655844,129.858804" id="Stroke-88" stroke="#D8E5ED"></path>
                    <path d="M133.564935,127.248278 L133.564935,129.858804" id="Stroke-90" stroke="#D8E5ED"></path>
                    <path d="M127.474026,127.248278 L127.474026,129.858804" id="Stroke-92" stroke="#D8E5ED"></path>
                    <path d="M121.383117,127.248278 L121.383117,129.858804" id="Stroke-94" stroke="#D8E5ED"></path>
                    <path d="M114.422078,127.248278 L114.422078,129.858804" id="Stroke-96" stroke="#D8E5ED"></path>
                    <path d="M108.331169,127.248278 L108.331169,129.858804" id="Stroke-98" stroke="#D8E5ED"></path>
                    <path d="M102.24026,127.248278 L102.24026,129.858804" id="Stroke-100" stroke="#D8E5ED"></path>
                    <path d="M171.850649,127.248278 L171.850649,129.858804" id="Stroke-102" stroke="#D8E5ED"></path>
                    <path d="M165.75974,127.248278 L165.75974,129.858804" id="Stroke-104" stroke="#D8E5ED"></path>
                    <path d="M158.798701,127.248278 L158.798701,129.858804" id="Stroke-106" stroke="#D8E5ED"></path>
                    <path d="M152.707792,127.248278 L152.707792,129.858804" id="Stroke-108" stroke="#D8E5ED"></path>
                    <path d="M146.616883,127.248278 L146.616883,129.858804" id="Stroke-110" stroke="#D8E5ED"></path>
                    <polyline id="Stroke-112" stroke="#F95830" stroke-width="3" points="102.829164 120.313241 133.129696 101.143276 151.931462 107.041325 169.724748 91.0562021"></polyline>
                    <polyline id="Stroke-114" stroke="#39CBFF" stroke-width="2" points="102.829164 111.465297 119.250255 102.617353 134.957839 113.676413 152.806813 94.5073179 168.514397 100.405367"></polyline>
                    <path d="M13.9220779,14.1254709 L13.0519481,14.1254709 C12.0913247,14.1254709 11.3116883,14.9051481 11.3116883,15.8658218 L11.3116883,17.6061726 L15.6623377,17.6061726 L15.6623377,15.8658218 C15.6623377,14.9051481 14.8827013,14.1254709 13.9220779,14.1254709" id="Fill-116" fill="#FFFFFF"></path>
                    <path d="M1.74025974,19.3466105 L17.4025974,19.3466105 L17.4025974,3.68345263 L1.74025974,3.68345263 L1.74025974,19.3466105 Z M0,21.0869614 L19.1428571,21.0869614 L19.1428571,1.94310175 L0,1.94310175 L0,21.0869614 Z" id="Fill-118" fill="#FFFFFF"></path>
                    <polygon id="Fill-120" fill="#FFFFFF" points="3.48051948 5.42380351 5.22077922 5.42380351 5.22077922 0.202750877 3.48051948 0.202750877"></polygon>
                    <polygon id="Fill-121" fill="#FFFFFF" points="13.9220779 5.42380351 15.6623377 5.42380351 15.6623377 0.202750877 13.9220779 0.202750877"></polygon>
                    <polygon id="Fill-122" fill="#FFFFFF" points="0.87012987 8.03432982 18.2727273 8.03432982 18.2727273 6.29397895 0.87012987 6.29397895"></polygon>
                    <polygon id="Fill-123" fill="#FFFFFF" points="3.48051948 14.9957333 5.22077922 14.9957333 5.22077922 13.2553825 3.48051948 13.2553825"></polygon>
                    <polygon id="Fill-124" fill="#FFFFFF" points="6.09090909 14.9957333 7.83116883 14.9957333 7.83116883 13.2553825 6.09090909 13.2553825"></polygon>
                    <polygon id="Fill-125" fill="#FFFFFF" points="8.7012987 14.9957333 10.4415584 14.9957333 10.4415584 13.2553825 8.7012987 13.2553825"></polygon>
                    <polygon id="Fill-126" fill="#FFFFFF" points="6.09090909 12.385207 7.83116883 12.385207 7.83116883 10.6448561 6.09090909 10.6448561"></polygon>
                    <polygon id="Fill-127" fill="#FFFFFF" points="8.7012987 12.385207 10.4415584 12.385207 10.4415584 10.6448561 8.7012987 10.6448561"></polygon>
                    <polygon id="Fill-128" fill="#FFFFFF" points="3.48051948 17.6062596 5.22077922 17.6062596 5.22077922 15.8659088 3.48051948 15.8659088"></polygon>
                    <polygon id="Fill-129" fill="#FFFFFF" points="6.09090909 17.6062596 7.83116883 17.6062596 7.83116883 15.8659088 6.09090909 15.8659088"></polygon>
                    <polygon id="Fill-130" fill="#FFFFFF" points="8.7012987 17.6062596 10.4415584 17.6062596 10.4415584 15.8659088 8.7012987 15.8659088"></polygon>
                    <path d="M14.7922078,11.5876042 C14.7922078,12.3089796 14.2074805,12.8928674 13.487013,12.8928674 C12.7665455,12.8928674 12.1818182,12.3089796 12.1818182,11.5876042 C12.1818182,10.8662288 12.7665455,10.2823411 13.487013,10.2823411 C14.2074805,10.2823411 14.7922078,10.8662288 14.7922078,11.5876042" id="Fill-131" fill="#FFFFFF"></path>
                    <path d="M121.818182,15.8658218 L117.467532,15.8658218 L117.467532,14.1254709 L121.818182,14.1254709 C122.298494,14.1254709 122.688312,13.7356323 122.688312,13.2552954 L122.688312,4.55354105 C122.688312,4.07320421 122.298494,3.68336561 121.818182,3.68336561 L113.116883,3.68336561 C112.636571,3.68336561 112.246753,4.07320421 112.246753,4.55354105 L112.246753,6.29389193 L110.506494,6.29389193 L110.506494,4.55354105 C110.506494,3.11166035 111.675078,1.94301474 113.116883,1.94301474 L121.818182,1.94301474 C123.259987,1.94301474 124.428571,3.11166035 124.428571,4.55354105 L124.428571,13.2552954 C124.428571,14.6971761 123.259987,15.8658218 121.818182,15.8658218" id="Fill-132" fill="#FFFFFF"></path>
                    <polygon id="Fill-133" fill="#FFFFFF" points="127.909091 14.9935579 122.94326 10.0274667 124.173623 8.7970386 126.168831 10.7923509 126.168831 6.29180351 124.173623 8.28711579 122.94326 7.05668772 127.909091 2.09059649"></polygon>
                    <polygon id="Fill-134" fill="#FFFFFF" points="119.206139 8.52754526 117.900944 9.82584702 116.59749 11.1224084 116.59749 8.52754526 116.59749 5.93181193 117.900944 7.23011368"></polygon>
                    <path d="M111.376623,9.41216561 C110.896312,9.41216561 110.506494,9.80287439 110.506494,10.2823411 C110.506494,10.7618077 110.896312,11.1525165 111.376623,11.1525165 C111.856935,11.1525165 112.246753,10.7618077 112.246753,10.2823411 C112.246753,9.80287439 111.856935,9.41216561 111.376623,9.41216561 M111.376623,12.8928674 C109.937429,12.8928674 108.766234,11.7216112 108.766234,10.2823411 C108.766234,8.84307088 109.937429,7.67181474 111.376623,7.67181474 C112.815818,7.67181474 113.987013,8.84307088 113.987013,10.2823411 C113.987013,11.7216112 112.815818,12.8928674 111.376623,12.8928674" id="Fill-135" fill="#FFFFFF"></path>
                    <path d="M115.727273,19.3465235 L113.987013,19.3465235 L113.987013,16.7359972 C113.987013,16.2556604 113.597195,15.8658218 113.116883,15.8658218 L109.636364,15.8658218 C109.156052,15.8658218 108.766234,16.2556604 108.766234,16.7359972 L108.766234,19.3465235 L107.025974,19.3465235 L107.025974,16.7359972 C107.025974,15.2941165 108.194558,14.1254709 109.636364,14.1254709 L113.116883,14.1254709 C114.558688,14.1254709 115.727273,15.2941165 115.727273,16.7359972 L115.727273,19.3465235 Z" id="Fill-136" fill="#FFFFFF"></path>
                    <polygon id="Fill-137" fill="#FFFFFF" points="57.4285714 19.3465235 53.9480519 19.3465235 53.9480519 4.19328842 57.9384675 0.20266386 67.8701299 0.20266386 67.8701299 8.90441825 66.1298701 8.90441825 66.1298701 1.94301474 58.6589351 1.94301474 55.6883117 4.91379368 55.6883117 17.6061726 57.4285714 17.6061726"></polygon>
                    <polygon id="Fill-138" fill="#FFFFFF" points="60.038961 6.29389193 55.6883117 6.29389193 55.6883117 4.55354105 58.2987013 4.55354105 58.2987013 1.94301474 60.038961 1.94301474"></polygon>
                    <path d="M60.9090909,19.3466105 L73.0909091,19.3466105 L73.0909091,12.385207 L60.9090909,12.385207 L60.9090909,19.3466105 Z M59.1688312,21.0869614 L74.8311688,21.0869614 L74.8311688,10.6448561 L59.1688312,10.6448561 L59.1688312,21.0869614 Z" id="Fill-139" fill="#FFFFFF"></path>
                    <polygon id="Fill-140" fill="#FFFFFF" points="67 17.4612884 59.5168831 11.8486568 60.561039 10.4563761 67 15.2858498 73.438961 10.4563761 74.4831169 11.8486568"></polygon>
                </g>
                <g id="Group-144" transform="translate(54.818182, 157.967298)">
                    <mask id="mask-14" fill="white">
                        <use xlink:href="#path-13"></use>
                    </mask>
                    <g id="Clip-143"></g>
                    <path d="M0.175766234,9.5728 C0.175766234,14.7381614 4.36283117,18.9263158 9.52705195,18.9263158 C14.6921429,18.9263158 18.8800779,14.7381614 18.8800779,9.5728 C18.8800779,4.4074386 14.6921429,0.219284211 9.52705195,0.219284211 C4.36283117,0.219284211 0.175766234,4.4074386 0.175766234,9.5728" id="Fill-142" mask="url(#mask-14)"></path>
                </g>
                <g id="Group-151" transform="translate(60.038961, 75.300632)">
                    <polyline id="Stroke-145" stroke="#FFFFFF" stroke-width="2" points="0.35014026 93.3539004 2.50719221 95.5119354 8.97921818 89.0387004"></polyline>
                    <polygon id="Fill-147" fill="#FFFFFF" points="134.87013 63.7255579 207.961039 63.7255579 207.961039 0.202750877 134.87013 0.202750877"></polygon>
                    <polygon id="Fill-149" fill="#F3F3F3" points="136.61039 24.5676632 207.090909 24.5676632 207.090909 12.385207 136.61039 12.385207"></polygon>
                    <polygon id="Fill-150" fill="#F3F3F3" points="136.61039 48.9325754 207.090909 48.9325754 207.090909 36.7501193 136.61039 36.7501193"></polygon>
                </g>
                <polygon id="Fill-152" points="196.649351 137.285839 267.12987 137.285839 267.12987 125.103382 196.649351 125.103382"></polygon>
                <g id="Group-190" transform="translate(6.961039, 75.300632)">
                    <polygon id="Fill-154" fill="#E5E8EC" points="187.948052 12.385207 261.038961 12.385207 261.038961 0.202750877 187.948052 0.202750877"></polygon>
                    <path d="M193.168831,6.29389193 L224.493506,6.29389193" id="Stroke-156" stroke="#A5B6BE" stroke-width="2"></path>
                    <path d="M238.415584,6.29389193 L244.506494,6.29389193" id="Stroke-157" stroke="#A5B6BE" stroke-width="2"></path>
                    <path d="M248.857143,6.29389193 L254.948052,6.29389193" id="Stroke-158" stroke="#A5B6BE" stroke-width="2"></path>
                    <path d="M193.168831,18.4763481 L224.493506,18.4763481" id="Stroke-159" stroke="#D9E1E4" stroke-width="2"></path>
                    <path d="M238.415584,18.4763481 L244.506494,18.4763481" id="Stroke-160" stroke="#D9E1E4" stroke-width="2"></path>
                    <path d="M248.857143,18.4763481 L254.948052,18.4763481" id="Stroke-161" stroke="#D9E1E4" stroke-width="2"></path>
                    <path d="M193.168831,30.6588042 L224.493506,30.6588042" id="Stroke-162" stroke="#D9E1E4" stroke-width="2"></path>
                    <path d="M238.415584,30.6588042 L244.506494,30.6588042" id="Stroke-163" stroke="#D9E1E4" stroke-width="2"></path>
                    <path d="M248.857143,30.6588042 L254.948052,30.6588042" id="Stroke-164" stroke="#D9E1E4" stroke-width="2"></path>
                    <path d="M193.168831,42.8412604 L224.493506,42.8412604" id="Stroke-165" stroke="#D9E1E4" stroke-width="2"></path>
                    <path d="M238.415584,42.8412604 L244.506494,42.8412604" id="Stroke-166" stroke="#D9E1E4" stroke-width="2"></path>
                    <path d="M248.857143,42.8412604 L254.948052,42.8412604" id="Stroke-167" stroke="#D9E1E4" stroke-width="2"></path>
                    <path d="M193.168831,55.8938919 L224.493506,55.8938919" id="Stroke-168" stroke="#FFFFFF" stroke-width="2"></path>
                    <path d="M238.415584,55.8938919 L244.506494,55.8938919" id="Stroke-169" stroke="#FFFFFF" stroke-width="2"></path>
                    <path d="M248.857143,55.8938919 L254.948052,55.8938919" id="Stroke-170" stroke="#FFFFFF" stroke-width="2"></path>
                    <polygon id="Fill-171" fill="#F3F3F3" points="0 56.7641544 86.1428571 56.7641544 86.1428571 24.5676632 0 24.5676632"></polygon>
                    <polygon id="Fill-172" fill="#CDD5D7" points="0 31.5290667 86.1428571 31.5290667 86.1428571 23.6974877 0 23.6974877"></polygon>
                    <g id="Group-175" transform="translate(2.610390, 26.975439)">
                        <path d="M0,0.637751579 L2.61038961,0.637751579" id="Fill-173" fill="#D8E5ED"></path>
                        <path d="M0,0.637751579 L2.61038961,0.637751579" id="Stroke-174" stroke="#879BA6" stroke-width="3"></path>
                    </g>
                    <g id="Group-178" transform="translate(6.961039, 26.975439)">
                        <path d="M0,0.637751579 L2.61038961,0.637751579" id="Fill-176" fill="#D8E5ED"></path>
                        <path d="M0,0.637751579 L2.61038961,0.637751579" id="Stroke-177" stroke="#879BA6" stroke-width="3"></path>
                    </g>
                    <g id="Group-181" transform="translate(11.311688, 26.975439)">
                        <path d="M0,0.637751579 L2.61038961,0.637751579" id="Fill-179" fill="#D8E5ED"></path>
                        <path d="M0,0.637751579 L2.61038961,0.637751579" id="Stroke-180" stroke="#879BA6" stroke-width="3"></path>
                    </g>
                    <path d="M19.1428571,51.5430147 L19.1428571,49.2370498 C19.1428571,47.1460182 17.4487143,45.4517867 15.3577922,45.4517867 L9.00584416,45.4517867 C6.91492208,45.4517867 5.22077922,47.1460182 5.22077922,49.2370498 L5.22077922,51.5430147 L19.1428571,51.5430147 Z" id="Fill-182" fill="#B5D1DE"></path>
                    <path d="M15.2773922,39.3508126 C15.2773922,37.5217039 13.7946909,36.0380547 11.9648078,36.0380547 C10.1357948,36.0380547 8.65309351,37.5217039 8.65309351,39.3508126 C8.65309351,41.1799214 10.1357948,42.6635705 11.9648078,42.6635705 C13.7946909,42.6635705 15.2773922,41.1799214 15.2773922,39.3508126" id="Fill-183" fill="#B5D1DE"></path>
                    <g id="Group-186" transform="translate(21.753247, 41.768421)">
                        <path d="M0,0.20266386 L30.4545455,0.20266386" id="Fill-184" fill="#D8E5ED"></path>
                        <path d="M0,0.20266386 L30.4545455,0.20266386" id="Stroke-185" stroke="#B5D1DE" stroke-width="2"></path>
                    </g>
                    <g id="Group-189" transform="translate(21.753247, 45.249123)">
                        <path d="M0,0.20266386 L20.012987,0.20266386" id="Fill-187" fill="#D8E5ED"></path>
                        <path d="M0,0.20266386 L20.012987,0.20266386" id="Stroke-188" stroke="#B5D1DE" stroke-width="2"></path>
                    </g>
                </g>
                <polygon id="Fill-191" fill="url(#linearGradient-15)" points="73.0909091 126.843733 87.8831169 126.843733 87.8831169 112.050751 73.0909091 112.050751"></polygon>
                <g id="Group-197" transform="translate(75.701299, 114.458526)" stroke="#FFFFFF" stroke-width="3">
                    <polyline id="Stroke-193" points="4.76622338 8.55817544 8.81928831 4.50141754 4.76622338 0.443789474"></polyline>
                    <path d="M7.83116883,4.11845333 L0,4.11845333" id="Stroke-195"></path>
                </g>
            </g>
        </g>
    </g>
</svg>