<?xml version="1.0" encoding="UTF-8"?>
<svg width="394px" height="373px" viewBox="0 0 394 373" version="1.1" xmlns="http://www.w3.org/2000/svg" xmlns:xlink="http://www.w3.org/1999/xlink">
    <!-- Generator: Sketch 49.2 (51160) - http://www.bohemiancoding.com/sketch -->
    <title>Group 2</title>
    <desc>Created with Sketch.</desc>
    <defs>
        <path d="M150.268182,0.609292929 C137.966768,0.635555556 124.177576,5.61232323 116.208182,13.5817172 L12.9737374,116.816162 C2.76020202,127.03101 -2.53828283,146.804141 1.19888889,160.754848 L38.9868687,301.778586 C42.7253535,315.730606 57.2,330.203939 71.1507071,333.943737 L212.174444,371.730404 C215.184141,372.536667 218.465657,372.922727 221.86404,372.929293 L222.054444,372.929293 C234.357172,372.901717 248.145051,367.924949 256.113131,359.956869 L359.348889,256.721111 C369.561111,246.507576 374.860909,226.734444 371.122424,212.783737 L333.334444,71.76 C329.59596,57.8079798 315.122626,43.3346465 301.169293,39.5948485 L160.146869,1.80949495 C157.135859,1.00191919 153.85303,0.615858586 150.454646,0.609292929 L150.268182,0.609292929 Z" id="path-1"></path>
        <linearGradient x1="0%" y1="0%" x2="101.999998%" y2="100.999999%" id="linearGradient-3">
            <stop stop-color="#FF7675" offset="0%"></stop>
            <stop stop-color="#C86DD7" offset="100%"></stop>
        </linearGradient>
        <polygon id="path-4" points="0.907373737 141.24303 84.7652525 318.082424 327.03798 135.557172 280.421818 38.3854545 121.532929 0.304646465"></polygon>
        <linearGradient x1="0%" y1="0%" x2="101.999998%" y2="100.999999%" id="linearGradient-6">
            <stop stop-color="#CA8585" offset="0%"></stop>
            <stop stop-color="#C86DD7" offset="100%"></stop>
        </linearGradient>
        <linearGradient x1="0%" y1="0%" x2="101.999998%" y2="100.999999%" id="linearGradient-7">
            <stop stop-color="#3023AE" offset="0%"></stop>
            <stop stop-color="#C86DD7" offset="100%"></stop>
        </linearGradient>
        <path d="M3.77191919,0.275757576 C1.83767677,0.275757576 0.275050505,1.95131313 0.275050505,4.02343434 L0.275050505,34.759899 C0.275050505,36.8333333 1.83767677,38.5075758 3.77191919,38.5075758 L10.5476768,38.5075758 L10.5476768,52.5738384 L27.1535354,38.5075758 L131.03798,38.5075758 C132.973535,38.5075758 134.541414,36.8333333 134.541414,34.759899 L134.541414,4.02343434 C134.541414,1.95131313 132.973535,0.275757576 131.03798,0.275757576 L3.77191919,0.275757576 Z" id="path-8"></path>
        <linearGradient x1="50%" y1="0%" x2="50%" y2="100%" id="linearGradient-10">
            <stop stop-color="#B4EC51" offset="0%"></stop>
            <stop stop-color="#429321" offset="100%"></stop>
        </linearGradient>
    </defs>
    <g id="landing-page" stroke="none" stroke-width="1" fill="none" fill-rule="evenodd">
        <g id="features" transform="translate(-889.000000, -1554.000000)">
            <g id="Group-2" transform="translate(889.000000, 1553.000000)">
                <g id="goal-large" transform="translate(5.000000, 0.000000)">
                    <g id="Group-3" transform="translate(0.000000, 0.703838)">
                        <mask id="mask-2" fill="white">
                            <use xlink:href="#path-1"></use>
                        </mask>
                        <g id="Clip-2"></g>
                        <path d="M150.268182,0.609292929 C137.966768,0.635555556 124.177576,5.61232323 116.208182,13.5817172 L12.9737374,116.816162 C2.76020202,127.03101 -2.53828283,146.804141 1.19888889,160.754848 L38.9868687,301.778586 C42.7253535,315.730606 57.2,330.203939 71.1507071,333.943737 L212.174444,371.730404 C215.184141,372.536667 218.465657,372.922727 221.86404,372.929293 L222.054444,372.929293 C234.357172,372.901717 248.145051,367.924949 256.113131,359.956869 L359.348889,256.721111 C369.561111,246.507576 374.860909,226.734444 371.122424,212.783737 L333.334444,71.76 C329.59596,57.8079798 315.122626,43.3346465 301.169293,39.5948485 L160.146869,1.80949495 C157.135859,1.00191919 153.85303,0.615858586 150.454646,0.609292929 L150.268182,0.609292929 Z" id="Fill-1" fill="url(#linearGradient-3)" mask="url(#mask-2)"></path>
                    </g>
                    <g id="Group-6" transform="translate(31.515152, 30.905859)">
                        <mask id="mask-5" fill="white">
                            <use xlink:href="#path-4"></use>
                        </mask>
                        <g id="Clip-5"></g>
                        <polygon id="Fill-4" fill="url(#linearGradient-6)" mask="url(#mask-5)" points="0.907373737 141.24303 84.7652525 318.082424 327.03798 135.557172 280.421818 38.3854545 121.532929 0.304646465"></polygon>
                    </g>
                    <g id="Group-41" transform="translate(59.020202, 29.592727)">
                        <path d="M3.89612121,149.253919 C3.89612121,150.236141 3.09905051,151.031899 2.11814141,151.031899 C1.13723232,151.031899 0.338848485,150.236141 0.338848485,149.253919 C0.338848485,148.276949 1.13723232,147.475939 2.11814141,147.475939 C3.09905051,147.475939 3.89612121,148.276949 3.89612121,149.253919" id="Fill-17" fill="#596273"></path>
                        <path d="M17.3993131,143.071697 C17.3993131,143.703313 16.8871919,144.216747 16.2568889,144.216747 C15.6226465,144.216747 15.1170909,143.703313 15.1170909,143.071697 C15.1170909,142.442707 15.6226465,141.933212 16.2568889,141.933212 C16.8871919,141.933212 17.3993131,142.442707 17.3993131,143.071697" id="Fill-19" fill="#596273"></path>
                        <path d="M23.2826667,149.088596 C23.2826667,149.553444 22.9044848,149.932939 22.4343838,149.932939 L10.2472121,149.932939 C9.78236364,149.932939 9.40024242,149.553444 9.40024242,149.088596 C9.40024242,148.618495 9.78236364,148.235061 10.2472121,148.235061 L22.4343838,148.235061 C22.9044848,148.235061 23.2826667,148.618495 23.2826667,149.088596" id="Fill-21" fill="#596273"></path>
                        <polygon id="Fill-35" fill="#F3F3F3" points="95.0035354 132.493636 307.63101 132.493636 307.63101 0.317777778 95.0035354 0.317777778"></polygon>
                        <polygon id="Fill-37" fill="#CDD5D7" points="95.0035354 11.8194949 307.63101 11.8194949 307.63101 0.316464646 95.0035354 0.316464646"></polygon>
                        <path d="M98.7325657,5.94953535 L102.073172,5.94953535" id="Stroke-38" stroke="#879BA6" stroke-width="3"></path>
                        <path d="M105.244384,5.94953535 L108.58499,5.94953535" id="Stroke-39" stroke="#879BA6" stroke-width="3"></path>
                        <path d="M111.758828,5.94953535 L115.100747,5.94953535" id="Stroke-40" stroke="#879BA6" stroke-width="3"></path>
                    </g>
                    <polygon id="Fill-42" fill="url(#linearGradient-7)" points="160.607778 131.791111 291.920909 131.791111 291.920909 58.5709091 160.607778 58.5709091"></polygon>
                    <g id="Group-82" transform="translate(159.888889, 46.663434)">
                        <polygon id="Fill-46" fill="#E9F6FD" points="132.909192 85.1276768 199.876263 85.1276768 199.876263 11.9074747 132.909192 11.9074747"></polygon>
                        <polygon id="Fill-48" fill="#B0D9EF" points="138.916768 30.5591919 160.463939 30.5591919 160.463939 16.0622222 138.916768 16.0622222"></polygon>
                        <path d="M164.382848,17.8266768 L194.943354,17.8266768" id="Stroke-49" stroke="#B0D9EF" stroke-width="2"></path>
                        <path d="M164.382848,22.5278182 L190.633657,22.5278182" id="Stroke-50" stroke="#B0D9EF" stroke-width="2"></path>
                        <path d="M164.382848,28.7972323 L186.715273,28.7972323" id="Stroke-51" stroke="#D8E5ED" stroke-width="2"></path>
                        <path d="M0.241434343,92.6738485 L63.4621414,92.6738485" id="Stroke-52" stroke="#B0D9EF" stroke-width="2"></path>
                        <path d="M0.241434343,98.3918788 L40.2617374,98.3918788" id="Stroke-53" stroke="#D8E5ED" stroke-width="2"></path>
                        <path d="M86.0335556,98.3918788 L94.5387071,98.3918788" id="Stroke-54" stroke="#D8E5ED" stroke-width="2"></path>
                        <path d="M79.272899,98.3918788 L83.352798,98.3918788" id="Stroke-55" stroke="#D8E5ED" stroke-width="2"></path>
                        <path d="M106.167798,98.3918788 L114.674263,98.3918788" id="Stroke-56" stroke="#D8E5ED" stroke-width="2"></path>
                        <path d="M99.4084545,98.3918788 L103.488354,98.3918788" id="Stroke-57" stroke="#D8E5ED" stroke-width="2"></path>
                        <path d="M118.174414,98.3918788 L122.254313,98.3918788" id="Stroke-58" stroke="#D8E5ED" stroke-width="2"></path>
                        <path d="M126.053202,98.3918788 L130.133101,98.3918788" id="Stroke-59" stroke="#D8E5ED" stroke-width="2"></path>
                        <path d="M0.241434343,3.58865657 L13.9991111,3.58865657" id="Stroke-60" stroke="#B0D9EF" stroke-width="2"></path>
                        <path d="M26.5040606,3.58865657 L66.5243636,3.58865657" id="Stroke-61" stroke="#D8E5ED" stroke-width="2"></path>
                        <path d="M70.4632323,3.58865657 L74.5444444,3.58865657" id="Stroke-62" stroke="#D8E5ED" stroke-width="2"></path>
                        <path d="M173.764515,3.58865657 L177.844414,3.58865657" id="Stroke-63" stroke="#D8E5ED" stroke-width="2"></path>
                        <path d="M182.517848,3.58865657 L186.597747,3.58865657" id="Stroke-64" stroke="#D8E5ED" stroke-width="2"></path>
                        <path d="M200.463101,3.5899697 C200.463101,5.52289899 198.896535,7.09077778 196.962293,7.09077778 C195.028051,7.09077778 193.461485,5.52289899 193.461485,3.5899697 C193.461485,1.65572727 195.028051,0.0878484848 196.962293,0.0878484848 C198.896535,0.0878484848 200.463101,1.65572727 200.463101,3.5899697" id="Fill-65" fill="#D8E5ED"></path>
                        <polygon id="Fill-66" fill="#B0D9EF" points="138.916768 47.629899 160.463939 47.629899 160.463939 33.1329293 138.916768 33.1329293"></polygon>
                        <path d="M164.382848,34.8973838 L194.943354,34.8973838" id="Stroke-67" stroke="#B0D9EF" stroke-width="2"></path>
                        <path d="M164.382848,39.5985253 L190.633657,39.5985253" id="Stroke-68" stroke="#B0D9EF" stroke-width="2"></path>
                        <path d="M164.382848,45.8679394 L186.715273,45.8679394" id="Stroke-69" stroke="#D8E5ED" stroke-width="2"></path>
                        <polygon id="Fill-70" fill="#B0D9EF" points="138.916768 64.7006061 160.463939 64.7006061 160.463939 50.2036364 138.916768 50.2036364"></polygon>
                        <path d="M164.382848,51.9680909 L194.943354,51.9680909" id="Stroke-71" stroke="#B0D9EF" stroke-width="2"></path>
                        <path d="M164.382848,56.6692323 L190.633657,56.6692323" id="Stroke-72" stroke="#B0D9EF" stroke-width="2"></path>
                        <path d="M164.382848,62.9386465 L186.715273,62.9386465" id="Stroke-73" stroke="#D8E5ED" stroke-width="2"></path>
                        <polygon id="Fill-74" fill="#B0D9EF" points="138.916768 81.7713131 160.463939 81.7713131 160.463939 67.2743434 138.916768 67.2743434"></polygon>
                        <path d="M164.382848,69.038798 L194.943354,69.038798" id="Stroke-75" stroke="#B0D9EF" stroke-width="2"></path>
                        <path d="M164.382848,73.7399394 L190.633657,73.7399394" id="Stroke-76" stroke="#B0D9EF" stroke-width="2"></path>
                        <path d="M164.382848,80.0093535 L186.715273,80.0093535" id="Stroke-77" stroke="#D8E5ED" stroke-width="2"></path>
                        <polygon id="Fill-78" fill="#D8E5ED" points="138.916768 111.727778 167.904141 111.727778 167.904141 92.2238384 138.916768 92.2238384"></polygon>
                        <path d="M170.948505,93.9882929 L194.943354,93.9882929" id="Stroke-79" stroke="#D8E5ED" stroke-width="2"></path>
                        <path d="M170.948505,98.6894343 L191.559414,98.6894343" id="Stroke-80" stroke="#D8E5ED" stroke-width="2"></path>
                        <path d="M170.948505,104.958848 L188.484061,104.958848" id="Stroke-81" stroke="#D8E5ED" stroke-width="2"></path>
                    </g>
                    <g id="Group-88" transform="translate(254.434343, 46.663434)">
                        <mask id="mask-9" fill="white">
                            <use xlink:href="#path-8"></use>
                        </mask>
                        <g id="Clip-87"></g>
                        <path d="M3.77191919,0.275757576 C1.83767677,0.275757576 0.275050505,1.95131313 0.275050505,4.02343434 L0.275050505,34.759899 C0.275050505,36.8333333 1.83767677,38.5075758 3.77191919,38.5075758 L10.5476768,38.5075758 L10.5476768,52.5738384 L27.1535354,38.5075758 L131.03798,38.5075758 C132.973535,38.5075758 134.541414,36.8333333 134.541414,34.759899 L134.541414,4.02343434 C134.541414,1.95131313 132.973535,0.275757576 131.03798,0.275757576 L3.77191919,0.275757576 Z" id="Fill-86" fill="url(#linearGradient-10)" mask="url(#mask-9)"></path>
                    </g>
                    <g id="Group-99" transform="translate(162.828283, 192.421010)" fill="#88EEBE">
                        <polygon id="Fill-89" points="0.78 38.2974747 6.01676768 38.2974747 6.01676768 31.6517172 0.78 31.6517172"></polygon>
                        <polygon id="Fill-91" points="11.2574747 38.2961616 16.4916162 38.2961616 16.4916162 13.9677778 11.2574747 13.9677778"></polygon>
                        <polygon id="Fill-92" points="21.7283838 38.2974747 26.9677778 38.2974747 26.9677778 10.9318182 21.7283838 10.9318182"></polygon>
                        <polygon id="Fill-93" points="32.2084848 38.2974747 37.4439394 38.2974747 37.4439394 13.6762626 32.2084848 13.6762626"></polygon>
                        <polygon id="Fill-94" points="42.6833333 38.2961616 47.9187879 38.2961616 47.9187879 3.84484848 42.6833333 3.84484848"></polygon>
                        <polygon id="Fill-95" points="53.1594949 38.2974747 58.3962626 38.2974747 58.3962626 7.14606061 53.1594949 7.14606061"></polygon>
                        <polygon id="Fill-96" points="63.6330303 38.2974747 68.8711111 38.2974747 68.8711111 0.326969697 63.6330303 0.326969697"></polygon>
                        <polygon id="Fill-97" points="74.1105051 38.2974747 79.3485859 38.2974747 79.3485859 22.8957576 74.1105051 22.8957576"></polygon>
                        <polygon id="Fill-98" points="84.5840404 38.2974747 89.8221212 38.2974747 89.8221212 30.4593939 84.5840404 30.4593939"></polygon>
                    </g>
                </g>
                <g id="analytics" transform="translate(0.000000, 167.000000)" fill-rule="nonzero">
                    <path d="M189.63,111.404815 L0,111.404815 L0,11.6859259 C0,5.36592593 5.12333333,0.242592593 11.4433333,0.242592593 L178.186667,0.242592593 C184.506667,0.242592593 189.63,5.36592593 189.63,11.6859259 L189.63,111.404815 Z" id="Shape" fill="#38454F"></path>
                    <path d="M134.048519,176.794444 L55.5811111,176.794444 C55.5811111,169.572222 61.4366667,163.716667 68.6588889,163.716667 L120.97037,163.716667 C128.192963,163.716296 134.048519,169.572222 134.048519,176.794444" id="Shape" fill="#E8EDEE"></path>
                    <polygon id="Shape" fill="#B0B6BB" points="117.701111 163.716296 71.9285185 163.716296 78.4674074 137.560741 111.162222 137.560741"></polygon>
                    <path d="M178.186296,137.560741 L11.4433333,137.560741 C5.12333333,137.560741 0,132.437407 0,126.117407 L0,111.404815 L189.62963,111.404815 L189.62963,126.117407 C189.62963,132.437407 184.506296,137.560741 178.186296,137.560741" id="Shape" fill="#E8EDEE"></path>
                    <g id="Group" transform="translate(104.444444, 55.555556)" fill="#25AE88">
                        <path d="M3.44814815,46.0407407 C1.64,46.0407407 0.178518519,44.5759259 0.178518519,42.7711111 L0.178518519,32.962963 C0.178518519,31.1581481 1.64,29.6933333 3.44814815,29.6933333 C5.2562963,29.6933333 6.71777778,31.1581481 6.71777778,32.962963 L6.71777778,42.7714815 C6.71777778,44.5762963 5.2562963,46.0407407 3.44814815,46.0407407" id="Shape"></path>
                        <path d="M16.5262963,46.0407407 C14.7181481,46.0407407 13.2566667,44.5759259 13.2566667,42.7711111 L13.2566667,19.8851852 C13.2566667,18.0803704 14.7181481,16.6155556 16.5262963,16.6155556 C18.3344444,16.6155556 19.7959259,18.0803704 19.7959259,19.8851852 L19.7959259,42.7714815 C19.7955556,44.5762963 18.3340741,46.0407407 16.5262963,46.0407407" id="Shape"></path>
                        <path d="M29.6040741,46.0407407 C27.7959259,46.0407407 26.3344444,44.5759259 26.3344444,42.7711111 L26.3344444,26.4237037 C26.3344444,24.6188889 27.7959259,23.1540741 29.6040741,23.1540741 C31.4122222,23.1540741 32.8737037,24.6188889 32.8737037,26.4237037 L32.8737037,42.7711111 C32.8737037,44.5762963 31.4122222,46.0407407 29.6040741,46.0407407" id="Shape"></path>
                        <path d="M42.6818519,46.0407407 C40.8737037,46.0407407 39.4122222,44.5759259 39.4122222,42.7711111 L39.4122222,3.53777778 C39.4122222,1.73296296 40.8737037,0.268148148 42.6818519,0.268148148 C44.49,0.268148148 45.9514815,1.73296296 45.9514815,3.53777778 L45.9514815,42.7714815 C45.9514815,44.5762963 44.49,46.0407407 42.6818519,46.0407407" id="Shape"></path>
                        <path d="M55.76,46.0407407 C53.9518519,46.0407407 52.4903704,44.5759259 52.4903704,42.7711111 L52.4903704,16.6151852 C52.4903704,14.8103704 53.9518519,13.3455556 55.76,13.3455556 C57.5681481,13.3455556 59.0296296,14.8103704 59.0296296,16.6151852 L59.0296296,42.7711111 C59.0292593,44.5762963 57.5677778,46.0407407 55.76,46.0407407" id="Shape"></path>
                    </g>
                    <path d="M88.2759259,54.1888889 C88.2759259,73.1485185 72.9062963,88.5185185 53.9462963,88.5185185 C34.9862963,88.5185185 19.6166667,73.1488889 19.6166667,54.1888889 C19.6166667,35.2288889 34.9862963,19.8592593 53.9462963,19.8592593 C72.9062963,19.8592593 88.2759259,35.2292593 88.2759259,54.1888889" id="Shape" fill="#6C5CE7"></path>
                    <path d="M52.3562963,19.8955556 C52.34,19.9118519 52.33,19.9248148 52.3103704,19.9414815 L52.3103704,55.702963 C52.3103704,55.7714815 52.3659259,55.8240741 52.4314815,55.8240741 L88.192963,55.8240741 C88.2092593,55.8077778 88.2222222,55.7977778 88.2388889,55.7781481 C89.1511111,35.562963 72.5714815,18.9833333 52.3562963,19.8955556" id="Shape" fill="#FF7675"></path>
                    <g id="Group" transform="translate(114.074074, 12.962963)" fill="#DD691D">
                        <path d="M29.782963,23.2440741 L3.62703704,23.2440741 C1.81888889,23.2440741 0.357407407,21.7792593 0.357407407,19.9744444 C0.357407407,18.1696296 1.81888889,16.7048148 3.62703704,16.7048148 L29.782963,16.7048148 C31.5911111,16.7048148 33.0525926,18.1696296 33.0525926,19.9744444 C33.0522222,21.7792593 31.5907407,23.2440741 29.782963,23.2440741" id="Shape"></path>
                        <path d="M46.1303704,23.2440741 C45.2803704,23.2440741 44.427037,22.8844444 43.8088889,22.2959259 C43.6781481,22.1325926 43.5148148,21.9688889 43.4166667,21.8055556 C43.2859259,21.6092593 43.1877778,21.4133333 43.1225926,21.217037 C43.0244444,21.0207407 42.9592593,20.8248148 42.9262963,20.6285185 C42.8937037,20.3996296 42.8607407,20.1707407 42.8607407,19.9744444 C42.8607407,19.7781481 42.8933333,19.5492593 42.9262963,19.3203704 C42.9588889,19.1240741 43.0244444,18.9281481 43.1225926,18.7318519 C43.1881481,18.5355556 43.2859259,18.3396296 43.4166667,18.1433333 C43.5148148,17.98 43.6781481,17.8162963 43.8088889,17.652963 C45.0185185,16.4433333 47.2092593,16.4433333 48.4514815,17.652963 C49.04,18.2740741 49.3996296,19.0914815 49.3996296,19.9744444 C49.3996296,20.857037 49.04,21.6744444 48.4514815,22.2959259 C47.8303704,22.8844444 46.9803704,23.2440741 46.1303704,23.2440741" id="Shape"></path>
                        <path d="M46.1303704,6.89666667 L36.3218519,6.89666667 C34.5137037,6.89666667 33.0522222,5.43185185 33.0522222,3.62703704 C33.0522222,1.82222222 34.5137037,0.357407407 36.3218519,0.357407407 L46.1303704,0.357407407 C47.9385185,0.357407407 49.4,1.82222222 49.4,3.62703704 C49.4,5.43185185 47.9381481,6.89666667 46.1303704,6.89666667" id="Shape"></path>
                        <path d="M10.1659259,6.89666667 L3.62703704,6.89666667 C1.81888889,6.89666667 0.357407407,5.43185185 0.357407407,3.62703704 C0.357407407,1.82222222 1.81888889,0.357407407 3.62703704,0.357407407 L10.1659259,0.357407407 C11.9740741,0.357407407 13.4355556,1.82222222 13.4355556,3.62703704 C13.4355556,5.43185185 11.9740741,6.89666667 10.1659259,6.89666667" id="Shape"></path>
                        <path d="M23.2440741,6.89666667 C22.3940741,6.89666667 21.5407407,6.53703704 20.9225926,5.94851852 C20.3307407,5.32740741 19.9744444,4.47740741 19.9744444,3.62703704 C19.9744444,2.77703704 20.3307407,1.92703704 20.9225926,1.30555556 C21.2496296,1.01148148 21.5766667,0.782592593 22.0014815,0.618888889 C23.2111111,0.0959259259 24.6496296,0.39 25.5651852,1.30555556 C26.1537037,1.92666667 26.5133333,2.77666667 26.5133333,3.62703704 C26.5133333,4.47703704 26.1537037,5.32703704 25.5651852,5.94851852 C24.9440741,6.53703704 24.0940741,6.89666667 23.2440741,6.89666667" id="Shape"></path>
                    </g>
                </g>
            </g>
        </g>
    </g>
</svg>