<?xml version="1.0" encoding="UTF-8"?>
<svg width="389px" height="358px" viewBox="0 0 389 358" version="1.1" xmlns="http://www.w3.org/2000/svg" xmlns:xlink="http://www.w3.org/1999/xlink">
    <!-- Generator: Sketch 49.2 (51160) - http://www.bohemiancoding.com/sketch -->
    <title>managment-large</title>
    <desc>Created with Sketch.</desc>
    <defs>
        <path d="M131.940736,0.197928693 C109.445726,0.197928693 81.8382125,16.1564414 70.5907071,35.6612903 L8.43494737,143.453256 C2.83709802,153.161317 0.0259033457,165.942051 0,178.7378 L0,179.098166 C0.0259033457,191.893915 2.83709802,204.674649 8.43494737,214.38271 L70.5907071,322.173311 C81.8382125,341.67816 109.445726,357.636672 131.940736,357.636672 L256.252256,357.636672 C278.747267,357.636672 306.35478,341.67816 317.602285,322.173311 L379.759408,214.38271 C385.357258,204.674649 388.168452,191.89255 388.194356,179.096801 L388.194356,178.739165 C388.168452,165.943416 385.357258,153.161317 379.759408,143.453256 L317.602285,35.6612903 C306.35478,16.1564414 278.747267,0.197928693 256.252256,0.197928693 L131.940736,0.197928693 Z" id="path-1"></path>
        <linearGradient x1="13.021958%" y1="16.7611684%" x2="71.8969881%" y2="100%" id="linearGradient-3">
            <stop stop-color="#AF9EFF" offset="0%"></stop>
            <stop stop-color="#7258EE" offset="100%"></stop>
        </linearGradient>
        <path d="M1.29380395,70.6823837 L184.386832,254.001209 L222.976,187.0822 C232.785188,170.068523 234.034002,143.617059 226.730622,124.190017 L132.509247,29.8503769 L115.922925,46.4572767 L70.7052272,1.18484211 L1.29380395,70.6823837 Z" id="path-4"></path>
        <linearGradient x1="0%" y1="0%" x2="101.999998%" y2="100.999999%" id="linearGradient-6">
            <stop stop-color="#7A73BD" offset="0%"></stop>
            <stop stop-color="#C86DD7" offset="100%"></stop>
        </linearGradient>
        <path d="M1.35515398,0.0996468591 L14.6940137,23.2327334 C25.9415191,42.7375823 53.5490323,58.6960951 76.044043,58.6960951 L200.355563,58.6960951 C222.850573,58.6960951 250.458086,42.7375823 261.705592,23.2327334 L275.045815,0.0996468591 L1.35515398,0.0996468591 Z" id="path-7"></path>
        <linearGradient x1="0%" y1="0%" x2="101.999998%" y2="100.999999%" id="linearGradient-9">
            <stop stop-color="#3023AE" offset="0%"></stop>
            <stop stop-color="#C86DD7" offset="100%"></stop>
        </linearGradient>
        <polygon id="path-10" points="0.481256897 0.330336163 167.00296 0.330336163 167.00296 94.2181528 0.481256897 94.2181528"></polygon>
        <polygon id="path-12" points="22.7117809 0.559660441 22.7117809 9.76129711 13.5269998 9.76129711 13.5269998 3.62823769 1.27335394 3.62823769 1.27335394 43.4951715 28.8386038 64.9601969 56.405217 43.4951715 56.405217 3.62823769 44.1556611 3.62823769 44.1556611 9.76129711 34.9654267 9.76129711 34.9654267 0.559660441"></polygon>
        <linearGradient x1="50%" y1="0%" x2="50%" y2="100%" id="linearGradient-14">
            <stop stop-color="#FAD961" offset="0%"></stop>
            <stop stop-color="#F76B1C" offset="100%"></stop>
        </linearGradient>
        <path d="M3.41242497,0.298940577 C2.04091098,0.298940577 0.932520446,1.54793888 0.932520446,3.09314771 L0.932520446,26.0091952 C0.932520446,27.5557691 2.04091098,28.8034024 3.41242497,28.8034024 L8.22090393,28.8034024 L8.22090393,39.290893 L20.0028362,28.8034024 L53.4931356,28.8034024 C54.8660129,28.8034024 55.9771301,27.5557691 55.9771301,26.0091952 L55.9771301,3.09314771 C55.9771301,1.54793888 54.8660129,0.298940577 53.4931356,0.298940577 L3.41242497,0.298940577 Z" id="path-15"></path>
        <linearGradient x1="50%" y1="0%" x2="50%" y2="100%" id="linearGradient-17">
            <stop stop-color="#B4EC51" offset="0%"></stop>
            <stop stop-color="#429321" offset="100%"></stop>
        </linearGradient>
    </defs>
    <g id="landing-page" stroke="none" stroke-width="1" fill="none" fill-rule="evenodd">
        <g id="features" transform="translate(-894.000000, -596.000000)">
            <g id="managment-large" transform="translate(894.000000, 595.000000)">
                <g id="Group-3" transform="translate(0.000000, 1.167097)">
                    <mask id="mask-2" fill="white">
                        <use xlink:href="#path-1"></use>
                    </mask>
                    <g id="Clip-2"></g>
                    <path d="M131.940736,0.197928693 C109.445726,0.197928693 81.8382125,16.1564414 70.5907071,35.6612903 L8.43494737,143.453256 C2.83709802,153.161317 0.0259033457,165.942051 0,178.7378 L0,179.098166 C0.0259033457,191.893915 2.83709802,204.674649 8.43494737,214.38271 L70.5907071,322.173311 C81.8382125,341.67816 109.445726,357.636672 131.940736,357.636672 L256.252256,357.636672 C278.747267,357.636672 306.35478,341.67816 317.602285,322.173311 L379.759408,214.38271 C385.357258,204.674649 388.168452,191.89255 388.194356,179.096801 L388.194356,178.739165 C388.168452,165.943416 385.357258,153.161317 379.759408,143.453256 L317.602285,35.6612903 C306.35478,16.1564414 278.747267,0.197928693 256.252256,0.197928693 L131.940736,0.197928693 Z" id="Fill-1" fill="url(#linearGradient-3)" mask="url(#mask-2)"></path>
                </g>
                <g id="Group-6" transform="translate(156.783408, 28.467606)">
                    <mask id="mask-5" fill="white">
                        <use xlink:href="#path-4"></use>
                    </mask>
                    <g id="Clip-5"></g>
                    <path d="M1.29380395,70.6823837 L184.386832,254.001209 L222.976,187.0822 C232.785188,170.068523 234.034002,143.617059 226.730622,124.190017 L132.509247,29.8503769 L115.922925,46.4572767 L70.7052272,1.18484211 L1.29380395,70.6823837 Z" id="Fill-4" fill="url(#linearGradient-6)" opacity="0.496603261" mask="url(#mask-5)"></path>
                </g>
                <g id="Group-9" transform="translate(55.896693, 300.107674)">
                    <mask id="mask-8" fill="white">
                        <use xlink:href="#path-7"></use>
                    </mask>
                    <g id="Clip-8"></g>
                    <path d="M1.35515398,0.0996468591 L14.6940137,23.2327334 C25.9415191,42.7375823 53.5490323,58.6960951 76.044043,58.6960951 L200.355563,58.6960951 C222.850573,58.6960951 250.458086,42.7375823 261.705592,23.2327334 L275.045815,0.0996468591 L1.35515398,0.0996468591 Z" id="Fill-7" fill="url(#linearGradient-9)" mask="url(#mask-8)"></path>
                </g>
                <g id="Group-28" transform="translate(31.356682, 143.129745)">
                    <path d="M290.777598,45.9590424 C295.388394,41.3643667 302.844468,41.378017 307.436176,45.9945331 C312.029249,50.6110492 312.012889,58.0736435 307.403456,62.6724143 C302.794024,67.26709 295.335224,67.2548048 290.744878,62.6369236 C286.151806,58.0204075 286.168166,50.5537182 290.777598,45.9590424 Z M273.037897,73.2035857 L279.331046,79.5277487 L285.415606,74.3925229 C287.872334,76.0728693 290.554012,77.2549813 293.343393,77.934764 L294.0087,86.1112666 L302.924904,86.133107 L303.603845,78.200944 C306.428673,77.667219 309.174427,76.6270696 311.704775,75.0859559 L317.951571,80.4 L324.271988,74.0976774 L319.147215,68.0082988 C320.821389,65.552618 322.000673,62.8607878 322.680977,60.0706757 L330.850074,59.4031783 L330.869161,50.4745467 L322.946827,49.7988591 C322.4124,46.9705263 321.372176,44.218635 319.832972,41.6851477 L325.140432,35.429236 L318.851372,29.1009779 L312.766812,34.2321087 C310.312811,32.5558574 307.624316,31.3723803 304.839025,30.6994228 L304.176445,22.5188251 L295.256151,22.4997148 L294.579937,30.4332428 C291.755109,30.9628727 289.006628,32.0057521 286.473553,33.552326 L280.233573,28.2314567 L273.911794,34.5337793 L279.035203,40.6245229 C277.361029,43.0802037 276.181745,45.7693039 275.506894,48.562146 L267.333707,49.2269134 L267.311894,58.15691 L275.238318,58.8339626 C275.770018,61.6609304 276.811605,64.4141868 278.348082,66.947674 L273.037897,73.2035857 Z" id="Fill-10" fill="#614FB7"></path>
                    <path d="M324.384327,89.7625732 C327.056461,92.4407531 327.057824,96.776074 324.387053,99.4515239 C321.713555,102.125609 317.38497,102.124244 314.710109,99.4474289 C312.039337,96.773344 312.039337,92.4393881 314.710109,89.7625732 C317.382243,87.0884883 321.713555,87.0884883 324.384327,89.7625732 Z" id="Stroke-12" stroke="#614FB7" stroke-width="3"></path>
                    <path d="M314.413583,89.4652706 L309.973205,85.0180177" id="Stroke-14" stroke="#614FB7" stroke-width="3"></path>
                    <path d="M328.676647,103.743301 L324.682079,99.7451409" id="Stroke-16" stroke="#614FB7" stroke-width="3"></path>
                    <path d="M312.535046,96.4890092 L307.078983,97.9523165" id="Stroke-18" stroke="#614FB7" stroke-width="3"></path>
                    <path d="M332.018451,91.2635552 L326.561026,92.7241324" id="Stroke-20" stroke="#614FB7" stroke-width="3"></path>
                    <path d="M317.668816,101.629149 L316.207322,107.090616" id="Stroke-22" stroke="#614FB7" stroke-width="3"></path>
                    <path d="M322.889158,82.1229351 L321.427664,87.584402" id="Stroke-24" stroke="#614FB7" stroke-width="3"></path>
                    <path d="M183.717298,113.281143 L183.717298,6.28908183 C183.717298,3.51262003 181.46098,1.25486791 178.685232,1.25486791 L5.15871947,1.25486791 C2.38706148,1.25486791 0.129380395,3.51262003 0.129380395,6.28908183 L0.129380395,113.281143 L183.717298,113.281143 Z" id="Fill-26" fill="#2F4A60"></path>
                </g>
                <g id="Group-31" transform="translate(39.536686, 152.684924)">
                    <mask id="mask-11" fill="white">
                        <use xlink:href="#path-10"></use>
                    </mask>
                    <g id="Clip-30"></g>
                    <polygon id="Fill-29" fill="url(#linearGradient-3)" mask="url(#mask-11)" points="0.481256897 94.2181528 167.00296 94.2181528 167.00296 0.330336163 0.481256897 0.330336163"></polygon>
                </g>
                <g id="Group-53" transform="translate(29.993348, 13.452326)">
                    <path d="M1.13306688,243.163862 L1.13306688,258.632331 C1.13306688,261.612181 3.54753136,264.025546 6.52232612,264.025546 L180.047476,264.025546 C183.026361,264.025546 185.440825,261.612181 185.440825,258.632331 L185.440825,243.163862 L1.13306688,243.163862 Z" id="Fill-32" fill="#F3F3F3"></path>
                    <path d="M125.029996,286.815329 C125.029996,286.815329 123.695293,286.156022 122.161542,285.575886 C120.522814,284.958894 118.552797,284.187655 117.396689,283.63209 C115.362595,282.656096 115.189452,282.013169 114.431438,278.683872 C113.601168,275.050175 112.825431,267.374636 112.511864,264.026229 L74.0658454,264.026229 C73.7522786,267.374636 72.9765416,275.050175 72.1476345,278.683872 C71.3896208,282.013169 71.2151141,282.656096 69.1823831,283.63209 C68.0358192,284.18083 66.0971583,284.943879 64.4720642,285.554046 C62.9124101,286.146467 61.6390562,286.59829 61.6390562,286.59829 C61.6390562,286.59829 60.4052389,287.284898 62.3888898,287.38318 L124.191546,287.38318 C126.055224,287.417305 125.029996,286.815329 125.029996,286.815329" id="Fill-34" fill="#E5E8EC"></path>
                    <path d="M112.913093,268.06766 C112.742676,266.477405 112.602253,265.048223 112.506819,264.025819 L74.0635278,264.025819 C73.9680944,265.048223 73.8303977,266.477405 73.6586176,268.06766 L112.913093,268.06766 Z" id="Fill-36" fill="#CDD5D7"></path>
                    <polygon id="Fill-38" fill="#FFFFFF" points="21.2175668 228.0589 156.993362 228.0589 156.993362 145.715104 21.2175668 145.715104"></polygon>
                    <polygon id="Fill-40" fill="#D9E1E4" points="21.2175668 157.671362 156.993362 157.671362 156.993362 145.713739 21.2175668 145.713739"></polygon>
                    <path d="M25.0898443,151.569288 L28.558166,151.569288" id="Stroke-41" stroke="#879BA6" stroke-width="3"></path>
                    <path d="M31.8506176,151.569288 L35.3189392,151.569288" id="Stroke-42" stroke="#879BA6" stroke-width="3"></path>
                    <path d="M38.6141175,151.569288 L42.0838025,151.569288" id="Stroke-43" stroke="#879BA6" stroke-width="3"></path>
                    <path d="M305.480065,279.395733 C305.480065,281.757227 303.572761,283.669628 301.211466,283.669628 L173.491612,283.669628 C171.131681,283.669628 169.223013,281.757227 169.223013,279.395733 L169.223013,191.879855 C169.223013,189.519726 171.131681,187.605961 173.491612,187.605961 L301.211466,187.605961 C303.572761,187.605961 305.480065,189.519726 305.480065,191.879855 L305.480065,279.395733 Z" id="Fill-44" fill="#5E7382"></path>
                    <polygon id="Fill-45" fill="#F3F3F3" points="175.902804 272.280265 298.800546 272.280265 298.800546 193.73943 175.902804 193.73943"></polygon>
                    <path d="M237.197482,190.577758 C237.197482,190.895808 236.942539,191.152433 236.627609,191.152433 C236.309952,191.152433 236.055008,190.895808 236.055008,190.577758 C236.055008,190.262437 236.309952,190.008542 236.627609,190.008542 C236.942539,190.008542 237.197482,190.262437 237.197482,190.577758" id="Fill-46" fill="#E5E8EC"></path>
                    <polygon id="Fill-47" fill="#E5E8EC" points="145.81266 284.190112 328.887964 284.190112 328.887964 278.831022 145.81266 278.831022"></polygon>
                    <path d="M146.081782,284.190658 C148.245393,286.485266 152.226328,287.384818 154.973446,287.384818 L319.726905,287.384818 C322.475386,287.384818 326.457685,286.485266 328.621296,284.190658 L146.081782,284.190658 Z" id="Fill-48" fill="#CDD5D7"></path>
                    <path d="M224.915479,278.831841 L224.915479,279.405152 C224.915479,280.461681 225.773016,281.321648 226.828237,281.321648 L247.874023,281.321648 C248.929244,281.321648 249.786781,280.461681 249.786781,279.405152 L249.786781,278.831841 L224.915479,278.831841 Z" id="Fill-49" fill="#CDD5D7"></path>
                    <path d="M235.962029,101.110576 L235.962029,134.781659" id="Stroke-50" stroke="#614FB7" stroke-width="2"></path>
                    <polyline id="Stroke-51" stroke="#614FB7" stroke-width="2" points="92.8198677 127.501296 92.8198677 63.0202228 112.004704 63.0202228"></polyline>
                    <path d="M267.329345,68.3966486 C267.462951,67.2623124 267.548841,66.1197861 267.548841,64.9472292 C267.548841,48.8699593 254.530365,35.832601 238.467564,35.832601 C235.744986,35.832601 233.112388,36.2339185 230.61067,36.9369066 C227.761302,16.1189032 209.93571,0.0648387097 188.34868,0.0648387097 C164.780725,0.0648387097 145.676326,19.1984007 145.676326,42.7833107 C145.676326,42.8788625 145.679053,42.9716842 145.679053,43.065871 C132.700113,44.5496537 122.616895,55.5708693 122.616895,68.9604041 C122.616895,83.3627878 134.274764,95.0351205 148.655211,95.0351205 L192.482309,95.0351205 L205.300375,95.0351205 L216.782374,95.0351205 L242.314893,95.0351205 L265.780597,95.0351205 C265.784687,95.0173752 265.792867,94.9996299 265.799684,94.9791545 C266.173237,95.0105501 266.544064,95.0351205 266.924434,95.0351205 C274.276895,95.0351205 280.237391,89.0685942 280.237391,81.7042818 C280.237391,74.4805671 274.496391,68.6082275 267.329345,68.3966486" id="Fill-52" fill="#FFFFFF"></path>
                </g>
                <g id="Group-56" transform="translate(193.593426, 65.323294)">
                    <mask id="mask-13" fill="white">
                        <use xlink:href="#path-12"></use>
                    </mask>
                    <g id="Clip-55"></g>
                    <polygon id="Fill-54" fill="url(#linearGradient-14)" mask="url(#mask-13)" points="22.7117809 0.559660441 22.7117809 9.76129711 13.5269998 9.76129711 13.5269998 3.62823769 1.27335394 3.62823769 1.27335394 43.4951715 28.8386038 64.9601969 56.405217 43.4951715 56.405217 3.62823769 44.1556611 3.62823769 44.1556611 9.76129711 34.9654267 9.76129711 34.9654267 0.559660441"></polygon>
                </g>
                <g id="Group-147" transform="translate(58.623361, 85.798676)">
                    <path d="M166.338744,13.5523823 L161.279411,13.5523823 C158.487303,13.5523823 156.220079,15.8196896 156.220079,18.6179919 L156.220079,23.6836014 L171.399439,23.6836014 L171.399439,18.6179919 C171.399439,15.8196896 169.134942,13.5523823 166.338744,13.5523823" id="Fill-57" fill="#009AA2"></path>
                    <path d="M168.869637,5.95342207 C168.869637,8.75035925 166.605139,11.0190316 163.808941,11.0190316 C161.016833,11.0190316 158.749609,8.75035925 158.749609,5.95342207 C158.749609,3.15648489 161.016833,0.887812564 163.808941,0.887812564 C166.605139,0.887812564 168.869637,3.15648489 168.869637,5.95342207" id="Fill-59" fill="#009AA2"></path>
                    <g id="Group-64" transform="translate(10.906672, 125.582343)">
                        <path d="M0.890666093,0.430665535 L77.9190363,0.430665535" id="Fill-61" fill="#D8E5ED"></path>
                        <path d="M0.890666093,0.430665535 L77.9190363,0.430665535" id="Stroke-63" stroke="#B5D1DE" stroke-width="2"></path>
                    </g>
                    <g id="Group-68" transform="translate(10.906672, 133.772496)">
                        <path d="M0.890666093,0.947873684 L77.9190363,0.947873684" id="Fill-65" fill="#D8E5ED"></path>
                        <path d="M0.890666093,0.947873684 L77.9190363,0.947873684" id="Stroke-67" stroke="#B5D1DE" stroke-width="2"></path>
                    </g>
                    <g id="Group-72" transform="translate(10.906672, 143.327674)">
                        <path d="M0.890666093,0.0986913413 L77.9190363,0.0986913413" id="Fill-69" fill="#D8E5ED"></path>
                        <path d="M0.890666093,0.0986913413 L77.9190363,0.0986913413" id="Stroke-71" stroke="#B5D1DE" stroke-width="2"></path>
                    </g>
                    <g id="Group-76" transform="translate(0.000000, 125.582343)">
                        <path d="M5.58776067,0.430665535 L1.07921518,0.430665535" id="Fill-73" fill="#D8E5ED"></path>
                        <path d="M5.58776067,0.430665535 L1.07921518,0.430665535" id="Stroke-75" stroke="#B5D1DE" stroke-width="2"></path>
                    </g>
                    <g id="Group-80" transform="translate(0.000000, 133.772496)">
                        <path d="M5.58776067,0.947873684 L1.07921518,0.947873684" id="Fill-77" fill="#D8E5ED"></path>
                        <path d="M5.58776067,0.947873684 L1.07921518,0.947873684" id="Stroke-79" stroke="#B5D1DE" stroke-width="2"></path>
                    </g>
                    <g id="Group-84" transform="translate(0.000000, 143.327674)">
                        <path d="M5.58776067,0.0986913413 L1.07921518,0.0986913413" id="Fill-81" fill="#D8E5ED"></path>
                        <path d="M5.58776067,0.0986913413 L1.07921518,0.0986913413" id="Stroke-83" stroke="#B5D1DE" stroke-width="2"></path>
                    </g>
                    <path d="M104.894235,125.693047 C104.894235,127.273746 103.615428,128.55414 102.03805,128.55414 C100.45931,128.55414 99.1818658,127.273746 99.1818658,125.693047 C99.1818658,124.115077 100.45931,122.831953 102.03805,122.831953 C103.615428,122.831953 104.894235,124.115077 104.894235,125.693047" id="Fill-85" fill="#F5B1AE"></path>
                    <path d="M117.273308,125.693047 C117.273308,127.273746 115.9945,128.55414 114.417123,128.55414 C112.838382,128.55414 111.560938,127.273746 111.560938,125.693047 C111.560938,124.115077 112.838382,122.831953 114.417123,122.831953 C115.9945,122.831953 117.273308,124.115077 117.273308,125.693047" id="Fill-87" fill="#B0D9EF"></path>
                    <path d="M104.894235,134.789713 C104.894235,136.367682 103.615428,137.650806 102.03805,137.650806 C100.45931,137.650806 99.1818658,136.367682 99.1818658,134.789713 C99.1818658,133.209013 100.45931,131.928619 102.03805,131.928619 C103.615428,131.928619 104.894235,133.209013 104.894235,134.789713" id="Fill-89" fill="#D8E5ED"></path>
                    <path d="M117.273308,134.789713 C117.273308,136.367682 115.9945,137.650806 114.417123,137.650806 C112.838382,137.650806 111.560938,136.367682 111.560938,134.789713 C111.560938,133.209013 112.838382,131.928619 114.417123,131.928619 C115.9945,131.928619 117.273308,133.209013 117.273308,134.789713" id="Fill-91" fill="#B2DDC9"></path>
                    <path d="M104.894235,143.885014 C104.894235,145.464348 103.615428,146.746107 102.03805,146.746107 C100.45931,146.746107 99.1818658,145.464348 99.1818658,143.885014 C99.1818658,142.305679 100.45931,141.023921 102.03805,141.023921 C103.615428,141.023921 104.894235,142.305679 104.894235,143.885014" id="Fill-93" fill="#D8E5ED"></path>
                    <path d="M117.273308,143.885014 C117.273308,145.464348 115.9945,146.746107 114.417123,146.746107 C112.838382,146.746107 111.560938,145.464348 111.560938,143.885014 C111.560938,142.305679 112.838382,141.023921 114.417123,141.023921 C115.9945,141.023921 117.273308,142.305679 117.273308,143.885014" id="Fill-95" fill="#B0D9EF"></path>
                    <path d="M19.1972422,116.796357 L19.1972422,114.339311 C19.1972422,111.624275 17.0009111,109.425219 14.2892398,109.425219 L5.70023573,109.425219 C2.98992776,109.425219 0.792233379,111.624275 0.792233379,114.339311 L0.792233379,116.796357 L19.1972422,116.796357 Z" id="Fill-97" fill="#B5D1DE"></path>
                    <path d="M14.2897852,101.43982 C14.2897852,99.0674058 12.3674842,97.1413548 9.99528311,97.1413548 C7.62171865,97.1413548 5.69941773,99.0674058 5.69941773,101.43982 C5.69941773,103.814964 7.62171865,105.73965 9.99528311,105.73965 C12.3674842,105.73965 14.2897852,103.814964 14.2897852,101.43982" id="Fill-99" fill="#B5D1DE"></path>
                    <g id="Group-104" transform="translate(27.266680, 102.376910)">
                        <path d="M0.435448875,0.885219015 L47.4704714,0.885219015" id="Fill-101" fill="#D8E5ED"></path>
                        <path d="M0.435448875,0.885219015 L47.4704714,0.885219015" id="Stroke-103" stroke="#B5D1DE" stroke-width="2"></path>
                    </g>
                    <g id="Group-108" transform="translate(27.266680, 110.567063)">
                        <path d="M0.435448875,0.0374016978 L31.9230106,0.0374016978" id="Fill-105" fill="#D8E5ED"></path>
                        <path d="M0.435448875,0.0374016978 L31.9230106,0.0374016978" id="Stroke-107" stroke="#B5D1DE" stroke-width="2"></path>
                    </g>
                    <path d="M175.300211,148.38796 L175.300211,145.930914 C175.300211,143.215878 173.102516,141.016822 170.390845,141.016822 L161.804567,141.016822 C159.092896,141.016822 156.896565,143.215878 156.896565,145.930914 L156.896565,148.38796 L175.300211,148.38796 Z" id="Fill-109" fill="#B5D1DE"></path>
                    <path d="M170.391527,133.031423 C170.391527,130.659009 168.469226,128.732958 166.099751,128.732958 C163.726187,128.732958 161.803886,130.659009 161.803886,133.031423 C161.803886,135.406568 163.726187,137.331254 166.099751,137.331254 C168.469226,137.331254 170.391527,135.406568 170.391527,133.031423" id="Fill-111" fill="#B5D1DE"></path>
                    <g id="Group-116" transform="translate(182.686754, 133.772496)">
                        <path d="M1.11834287,1.08123667 L58.8078205,1.08123667" id="Fill-113" fill="#D8E5ED"></path>
                        <path d="M1.11834287,1.08123667 L58.8078205,1.08123667" id="Stroke-115" stroke="#B5D1DE" stroke-width="2"></path>
                    </g>
                    <path d="M156.896565,156.69414 L172.583086,156.69414" id="Stroke-117" stroke="#D8E5ED" stroke-width="2"></path>
                    <path d="M156.896565,163.519267 L177.450188,163.519267" id="Stroke-119" stroke="#D8E5ED" stroke-width="2"></path>
                    <path d="M156.896565,170.344395 L172.583086,170.344395" id="Stroke-121" stroke="#D8E5ED" stroke-width="2"></path>
                    <path d="M156.896565,177.169522 L174.72352,177.169522" id="Stroke-123" stroke="#D8E5ED" stroke-width="2"></path>
                    <path d="M156.896565,183.994649 L169.270184,183.994649" id="Stroke-125" stroke="#D8E5ED" stroke-width="2"></path>
                    <g id="Group-130" transform="translate(182.686754, 155.612903)">
                        <path d="M1.11834287,1.08123667 L58.8078205,1.08123667" id="Fill-127" fill="#D8E5ED"></path>
                        <path d="M1.11834287,1.08123667 L58.8078205,1.08123667" id="Stroke-129" stroke="#B5D1DE" stroke-width="2"></path>
                    </g>
                    <g id="Group-134" transform="translate(182.686754, 193.833616)">
                        <path d="M1.11834287,1.08123667 L17.0134538,1.08123667" id="Fill-131" fill="#D8E5ED"></path>
                        <path d="M1.11834287,1.08123667 L17.0134538,1.08123667" id="Stroke-133" stroke="#B5D1DE" stroke-width="2"></path>
                    </g>
                    <g id="Group-138" transform="translate(205.863432, 193.833616)">
                        <path d="M0.236947447,1.08123667 L16.1320584,1.08123667" id="Fill-135" fill="#D8E5ED"></path>
                        <path d="M0.236947447,1.08123667 L16.1320584,1.08123667" id="Stroke-137" stroke="#B5D1DE" stroke-width="2"></path>
                    </g>
                    <g id="Group-142" transform="translate(227.676776, 193.833616)">
                        <path d="M0.719022344,1.08123667 L16.6141333,1.08123667" id="Fill-139" fill="#D8E5ED"></path>
                        <path d="M0.719022344,1.08123667 L16.6141333,1.08123667" id="Stroke-141" stroke="#B5D1DE" stroke-width="2"></path>
                    </g>
                    <g id="Group-146" transform="translate(182.686754, 141.962649)">
                        <path d="M1.11834287,0.233419355 L39.7375047,0.233419355" id="Fill-143" fill="#D8E5ED"></path>
                        <path d="M1.11834287,0.233419355 L39.7375047,0.233419355" id="Stroke-145" stroke="#B5D1DE" stroke-width="2"></path>
                    </g>
                </g>
                <polygon id="Fill-148" fill="url(#linearGradient-9)" points="242.428049 275.636862 313.775407 275.636862 313.775407 248.334988 242.428049 248.334988"></polygon>
                <g id="Group-152" transform="translate(227.676776, 152.684924)">
                    <mask id="mask-16" fill="white">
                        <use xlink:href="#path-15"></use>
                    </mask>
                    <g id="Clip-151"></g>
                    <path d="M3.41242497,0.298940577 C2.04091098,0.298940577 0.932520446,1.54793888 0.932520446,3.09314771 L0.932520446,26.0091952 C0.932520446,27.5557691 2.04091098,28.8034024 3.41242497,28.8034024 L8.22090393,28.8034024 L8.22090393,39.290893 L20.0028362,28.8034024 L53.4931356,28.8034024 C54.8660129,28.8034024 55.9771301,27.5557691 55.9771301,26.0091952 L55.9771301,3.09314771 C55.9771301,1.54793888 54.8660129,0.298940577 53.4931356,0.298940577 L3.41242497,0.298940577 Z" id="Fill-150" fill="url(#linearGradient-17)" mask="url(#mask-16)"></path>
                </g>
                <g id="Group-163" transform="translate(68.166699, 103.544007)">
                    <polygon id="Fill-153" fill="#FFFFFF" points="39.7897204 21.8544672 39.7897204 0.160117487 1.14601855 0.160117487 1.14601855 21.8544672 23.2402091 21.8544672 33.9287476 27.2053671 33.9287476 21.8544672"></polygon>
                    <polyline id="Stroke-155" stroke="#AB9AFE" stroke-width="2" stroke-linecap="round" points="3.57479804 2.52420509 20.4705961 14.3617059 37.3623042 2.52420509"></polyline>
                    <polygon id="Fill-157" fill="#FFFFFF" points="225.680991 26.4607457 216.97883 31.4949596 208.276669 36.5223484 208.276669 26.4607457 208.276669 16.401873 216.97883 21.4292618"></polygon>
                    <path d="M171.989081,60.1598119 L203.345763,60.1598119" id="Stroke-159" stroke="#FFFFFF" stroke-width="2"></path>
                    <path d="M171.989081,66.9849392 L203.345763,66.9849392" id="Stroke-161" stroke="#FFFFFF" stroke-width="2"></path>
                </g>
            </g>
        </g>
    </g>
</svg>