<?xml version="1.0" encoding="UTF-8"?>
<svg width="259px" height="240px" viewBox="0 0 259 240" version="1.1" xmlns="http://www.w3.org/2000/svg" xmlns:xlink="http://www.w3.org/1999/xlink">
    <!-- Generator: Sketch 49.2 (51160) - http://www.bohemiancoding.com/sketch -->
    <title>managment</title>
    <desc>Created with Sketch.</desc>
    <defs>
        <path d="M87.960491,0.131952462 C72.9638171,0.131952462 54.5588083,10.770961 47.0604714,23.7741935 L5.62329825,95.6355042 C1.89139868,102.107545 0.0172688971,110.628034 0,119.158533 L0,119.398778 C0.0172688971,127.929277 1.89139868,136.449766 5.62329825,142.921806 L47.0604714,214.782207 C54.5588083,227.78544 72.9638171,238.424448 87.960491,238.424448 L170.834837,238.424448 C185.831511,238.424448 204.23652,227.78544 211.734857,214.782207 L253.172939,142.921806 C256.904838,136.449766 258.778968,127.928367 258.796237,119.397868 L258.796237,119.159443 C258.778968,110.628944 256.904838,102.107545 253.172939,95.6355042 L211.734857,23.7741935 C204.23652,10.770961 185.831511,0.131952462 170.834837,0.131952462 L87.960491,0.131952462 Z" id="path-1"></path>
        <linearGradient x1="13.021958%" y1="16.7611684%" x2="71.8969881%" y2="100%" id="linearGradient-3">
            <stop stop-color="#AF9EFF" offset="0%"></stop>
            <stop stop-color="#7258EE" offset="100%"></stop>
        </linearGradient>
        <path d="M0.862535968,47.1215891 L122.924554,169.334139 L148.650667,124.721467 C155.190125,113.379015 156.022668,95.7447063 151.153748,82.7933447 L88.3394978,19.9002513 L77.2819503,30.9715178 L47.1368181,0.789894737 L0.862535968,47.1215891 Z" id="path-4"></path>
        <linearGradient x1="0%" y1="0%" x2="101.999998%" y2="100.999999%" id="linearGradient-6">
            <stop stop-color="#7A73BD" offset="0%"></stop>
            <stop stop-color="#C86DD7" offset="100%"></stop>
        </linearGradient>
        <path d="M0.903435988,0.0664312394 L9.79600913,15.488489 C17.2943461,28.4917216 35.6993549,39.1307301 50.6960287,39.1307301 L133.570375,39.1307301 C148.567049,39.1307301 166.972058,28.4917216 174.470395,15.488489 L183.363877,0.0664312394 L0.903435988,0.0664312394 Z" id="path-7"></path>
        <linearGradient x1="0%" y1="0%" x2="101.999998%" y2="100.999999%" id="linearGradient-9">
            <stop stop-color="#3023AE" offset="0%"></stop>
            <stop stop-color="#C86DD7" offset="100%"></stop>
        </linearGradient>
        <polygon id="path-10" points="0.320837931 0.220224109 111.335307 0.220224109 111.335307 62.8121019 0.320837931 62.8121019"></polygon>
        <polygon id="path-12" points="15.1411872 0.373106961 15.1411872 6.50753141 9.01799987 6.50753141 9.01799987 2.41882513 0.848902628 2.41882513 0.848902628 28.996781 19.2257359 43.306798 37.603478 28.996781 37.603478 2.41882513 29.4371074 2.41882513 29.4371074 6.50753141 23.3102845 6.50753141 23.3102845 0.373106961"></polygon>
        <linearGradient x1="50%" y1="0%" x2="50%" y2="100%" id="linearGradient-14">
            <stop stop-color="#FAD961" offset="0%"></stop>
            <stop stop-color="#F76B1C" offset="100%"></stop>
        </linearGradient>
        <path d="M2.27494998,0.199293718 C1.36060732,0.199293718 0.621680297,1.03195925 0.621680297,2.06209847 L0.621680297,17.3394635 C0.621680297,18.3705127 1.36060732,19.2022683 2.27494998,19.2022683 L5.48060262,19.2022683 L5.48060262,26.1939287 L13.3352242,19.2022683 L35.6620904,19.2022683 C36.5773419,19.2022683 37.3180867,18.3705127 37.3180867,17.3394635 L37.3180867,2.06209847 C37.3180867,1.03195925 36.5773419,0.199293718 35.6620904,0.199293718 L2.27494998,0.199293718 Z" id="path-15"></path>
        <linearGradient x1="50%" y1="0%" x2="50%" y2="100%" id="linearGradient-17">
            <stop stop-color="#B4EC51" offset="0%"></stop>
            <stop stop-color="#429321" offset="100%"></stop>
        </linearGradient>
    </defs>
    <g id="landing-page" stroke="none" stroke-width="1" fill="none" fill-rule="evenodd">
        <g id="home" transform="translate(-579.000000, -926.000000)">
            <g id="managment" transform="translate(579.000000, 926.000000)">
                <g id="Group-3" transform="translate(0.000000, 0.778065)">
                    <mask id="mask-2" fill="white">
                        <use xlink:href="#path-1"></use>
                    </mask>
                    <g id="Clip-2"></g>
                    <path d="M87.960491,0.131952462 C72.9638171,0.131952462 54.5588083,10.770961 47.0604714,23.7741935 L5.62329825,95.6355042 C1.89139868,102.107545 0.0172688971,110.628034 0,119.158533 L0,119.398778 C0.0172688971,127.929277 1.89139868,136.449766 5.62329825,142.921806 L47.0604714,214.782207 C54.5588083,227.78544 72.9638171,238.424448 87.960491,238.424448 L170.834837,238.424448 C185.831511,238.424448 204.23652,227.78544 211.734857,214.782207 L253.172939,142.921806 C256.904838,136.449766 258.778968,127.928367 258.796237,119.397868 L258.796237,119.159443 C258.778968,110.628944 256.904838,102.107545 253.172939,95.6355042 L211.734857,23.7741935 C204.23652,10.770961 185.831511,0.131952462 170.834837,0.131952462 L87.960491,0.131952462 Z" id="Fill-1" fill="url(#linearGradient-3)" mask="url(#mask-2)"></path>
                </g>
                <g id="Group-6" transform="translate(104.522272, 18.978404)">
                    <mask id="mask-5" fill="white">
                        <use xlink:href="#path-4"></use>
                    </mask>
                    <g id="Clip-5"></g>
                    <path d="M0.862535968,47.1215891 L122.924554,169.334139 L148.650667,124.721467 C155.190125,113.379015 156.022668,95.7447063 151.153748,82.7933447 L88.3394978,19.9002513 L77.2819503,30.9715178 L47.1368181,0.789894737 L0.862535968,47.1215891 Z" id="Fill-4" fill="url(#linearGradient-6)" opacity="0.496603261" mask="url(#mask-5)"></path>
                </g>
                <g id="Group-9" transform="translate(37.264462, 200.071783)">
                    <mask id="mask-8" fill="white">
                        <use xlink:href="#path-7"></use>
                    </mask>
                    <g id="Clip-8"></g>
                    <path d="M0.903435988,0.0664312394 L9.79600913,15.488489 C17.2943461,28.4917216 35.6993549,39.1307301 50.6960287,39.1307301 L133.570375,39.1307301 C148.567049,39.1307301 166.972058,28.4917216 174.470395,15.488489 L183.363877,0.0664312394 L0.903435988,0.0664312394 Z" id="Fill-7" fill="url(#linearGradient-9)" mask="url(#mask-8)"></path>
                </g>
                <g id="Group-28" transform="translate(20.904454, 95.419830)">
                    <path d="M193.851732,30.6393616 C196.925596,27.5762445 201.896312,27.5853447 204.957451,30.6630221 C208.019499,33.7406995 208.008592,38.7157623 204.935638,41.7816095 C201.862683,44.8447267 196.890149,44.8365365 193.829919,41.7579491 C190.767871,38.6802716 190.778777,33.7024788 193.851732,30.6393616 Z M182.025264,48.8023905 L186.220698,53.0184992 L190.277071,49.5950153 C191.914889,50.7152462 193.702674,51.5033209 195.562262,51.9565093 L196.0058,57.407511 L201.949936,57.4220713 L202.402563,52.1339626 C204.285782,51.778146 206.116285,51.0847131 207.803183,50.0573039 L211.967714,53.6 L216.181325,49.3984516 L212.76481,45.3388659 C213.880926,43.7017453 214.667116,41.9071919 215.120651,40.0471171 L220.566716,39.6021188 L220.579441,33.6496978 L215.297885,33.1992394 C214.9416,31.3136842 214.248118,29.47909 213.221982,27.7900985 L216.760288,23.6194907 L212.567581,19.400652 L208.511208,22.8214058 C206.875207,21.7039049 205.082878,20.9149202 203.226017,20.4662818 L202.784297,15.0125501 L196.837434,14.9998098 L196.386625,20.2888285 C194.503406,20.6419151 192.671085,21.3371681 190.982369,22.3682173 L186.822382,18.8209711 L182.607862,23.0225195 L186.023469,27.0830153 C184.907352,28.7201358 184.121163,30.5128693 183.671263,32.374764 L178.222471,32.8179423 L178.207929,38.7712733 L183.492212,39.2226418 C183.846679,41.1072869 184.54107,42.9427912 185.565388,44.6317827 L182.025264,48.8023905 Z" id="Fill-10" fill="#614FB7"></path>
                    <path d="M216.256218,59.8417154 C218.037641,61.6271688 218.03855,64.5173827 216.258035,66.301016 C214.475703,68.0837392 211.58998,68.0828292 209.806739,66.2982859 C208.026225,64.5155626 208.026225,61.6262587 209.806739,59.8417154 C211.588162,58.0589922 214.475703,58.0589922 216.256218,59.8417154 Z" id="Stroke-12" stroke="#614FB7" stroke-width="3"></path>
                    <path d="M209.609056,59.6435138 L206.648803,56.6786784" id="Stroke-14" stroke="#614FB7" stroke-width="3"></path>
                    <path d="M219.117765,69.1622003 L216.454719,66.4967606" id="Stroke-16" stroke="#614FB7" stroke-width="3"></path>
                    <path d="M208.356697,64.3260061 L204.719322,65.3015443" id="Stroke-18" stroke="#614FB7" stroke-width="3"></path>
                    <path d="M221.345634,60.8423701 L217.70735,61.8160883" id="Stroke-20" stroke="#614FB7" stroke-width="3"></path>
                    <path d="M211.779211,67.752766 L210.804881,71.393744" id="Stroke-22" stroke="#614FB7" stroke-width="3"></path>
                    <path d="M215.259439,54.7486234 L214.285109,58.3896014" id="Stroke-24" stroke="#614FB7" stroke-width="3"></path>
                    <path d="M122.478199,75.520762 L122.478199,4.19272122 C122.478199,2.34174669 120.973987,0.836578608 119.123488,0.836578608 L3.43914631,0.836578608 C1.59137432,0.836578608 0.0862535968,2.34174669 0.0862535968,4.19272122 L0.0862535968,75.520762 L122.478199,75.520762 Z" id="Fill-26" fill="#2F4A60"></path>
                </g>
                <g id="Group-31" transform="translate(26.357790, 101.789949)">
                    <mask id="mask-11" fill="white">
                        <use xlink:href="#path-10"></use>
                    </mask>
                    <g id="Clip-30"></g>
                    <polygon id="Fill-29" fill="url(#linearGradient-3)" mask="url(#mask-11)" points="0.320837931 62.8121019 111.335307 62.8121019 111.335307 0.220224109 0.320837931 0.220224109"></polygon>
                </g>
                <g id="Group-53" transform="translate(19.995565, 8.968217)">
                    <path d="M0.755377917,162.109241 L0.755377917,172.421554 C0.755377917,174.408121 2.36502091,176.017031 4.34821741,176.017031 L120.031651,176.017031 C122.017574,176.017031 123.627217,174.408121 123.627217,172.421554 L123.627217,162.109241 L0.755377917,162.109241 Z" id="Fill-32" fill="#F3F3F3"></path>
                    <path d="M83.353331,191.210219 C83.353331,191.210219 82.4635283,190.770681 81.4410278,190.383924 C80.3485429,189.972596 79.0351978,189.458437 78.2644597,189.08806 C76.9083968,188.437398 76.7929678,188.00878 76.2876254,185.789248 C75.7341118,183.366783 75.2169538,178.249758 75.0079092,176.017486 L49.3772303,176.017486 C49.1681857,178.249758 48.6510277,183.366783 48.098423,185.789248 C47.5930805,188.00878 47.4767427,188.437398 46.1215887,189.08806 C45.3572128,189.453887 44.0647722,189.962586 42.9813761,190.369364 C41.9416067,190.764311 41.0927041,191.065527 41.0927041,191.065527 C41.0927041,191.065527 40.2701593,191.523265 41.5925932,191.588786 L82.7943641,191.588786 C84.0368158,191.611537 83.353331,191.210219 83.353331,191.210219" id="Fill-34" fill="#E5E8EC"></path>
                    <path d="M75.2753953,178.711773 C75.1617842,177.651603 75.0681686,176.698816 75.0045463,176.017213 L49.3756852,176.017213 C49.3120629,176.698816 49.2202651,177.651603 49.105745,178.711773 L75.2753953,178.711773 Z" id="Fill-36" fill="#CDD5D7"></path>
                    <polygon id="Fill-38" fill="#FFFFFF" points="14.1450445 152.039267 104.662241 152.039267 104.662241 97.1434024 14.1450445 97.1434024"></polygon>
                    <polygon id="Fill-40" fill="#D9E1E4" points="14.1450445 105.114241 104.662241 105.114241 104.662241 97.1424924 14.1450445 97.1424924"></polygon>
                    <path d="M16.7265629,101.046192 L19.0387773,101.046192" id="Stroke-41" stroke="#879BA6" stroke-width="3"></path>
                    <path d="M21.233745,101.046192 L23.5459595,101.046192" id="Stroke-42" stroke="#879BA6" stroke-width="3"></path>
                    <path d="M25.742745,101.046192 L28.0558683,101.046192" id="Stroke-43" stroke="#879BA6" stroke-width="3"></path>
                    <path d="M203.653377,186.263822 C203.653377,187.838151 202.38184,189.113085 200.807644,189.113085 L115.661074,189.113085 C114.087787,189.113085 112.815342,187.838151 112.815342,186.263822 L112.815342,127.919904 C112.815342,126.346484 114.087787,125.07064 115.661074,125.07064 L200.807644,125.07064 C202.38184,125.07064 203.653377,126.346484 203.653377,127.919904 L203.653377,186.263822 Z" id="Fill-44" fill="#5E7382"></path>
                    <polygon id="Fill-45" fill="#F3F3F3" points="117.268536 181.520177 199.200364 181.520177 199.200364 129.15962 117.268536 129.15962"></polygon>
                    <path d="M158.131655,127.051838 C158.131655,127.263872 157.961692,127.434956 157.751739,127.434956 C157.539968,127.434956 157.370006,127.263872 157.370006,127.051838 C157.370006,126.841624 157.539968,126.672361 157.751739,126.672361 C157.961692,126.672361 158.131655,126.841624 158.131655,127.051838" id="Fill-46" fill="#E5E8EC"></path>
                    <polygon id="Fill-47" fill="#E5E8EC" points="97.2084398 189.460075 219.258643 189.460075 219.258643 185.887348 97.2084398 185.887348"></polygon>
                    <path d="M97.3878546,189.460439 C98.8302619,190.990177 101.484219,191.589878 103.315631,191.589878 L213.15127,191.589878 C214.983591,191.589878 217.638457,190.990177 219.080864,189.460439 L97.3878546,189.460439 Z" id="Fill-48" fill="#CDD5D7"></path>
                    <path d="M149.943653,185.887894 L149.943653,186.270101 C149.943653,186.974454 150.515344,187.547765 151.218824,187.547765 L165.249349,187.547765 C165.952829,187.547765 166.524521,186.974454 166.524521,186.270101 L166.524521,185.887894 L149.943653,185.887894 Z" id="Fill-49" fill="#CDD5D7"></path>
                    <path d="M157.308019,67.4070506 L157.308019,89.8544394" id="Stroke-50" stroke="#614FB7" stroke-width="2"></path>
                    <polyline id="Stroke-51" stroke="#614FB7" stroke-width="2" points="61.8799118 85.0008638 61.8799118 42.0134818 74.6698024 42.0134818"></polyline>
                    <path d="M178.219563,45.5977657 C178.308634,44.8415416 178.365894,44.0798574 178.365894,43.2981528 C178.365894,32.5799728 169.68691,23.8884007 158.978376,23.8884007 C157.163324,23.8884007 155.408259,24.1559457 153.740447,24.6246044 C151.840868,10.7459355 139.95714,0.0432258065 125.565787,0.0432258065 C109.853817,0.0432258065 97.1175509,12.7989338 97.1175509,28.5222071 C97.1175509,28.5859083 97.1193687,28.6477895 97.1193687,28.7105806 C88.4667423,29.6997691 81.7445969,37.0472462 81.7445969,45.9736027 C81.7445969,55.5751919 89.5165095,63.356747 99.1034741,63.356747 L128.321539,63.356747 L136.866917,63.356747 L144.521582,63.356747 L161.543262,63.356747 L177.187065,63.356747 C177.189791,63.3449168 177.195245,63.3330866 177.199789,63.3194363 C177.448825,63.3403667 177.696043,63.356747 177.949623,63.356747 C182.851263,63.356747 186.824927,59.3790628 186.824927,54.4695212 C186.824927,49.6537114 182.997594,45.7388183 178.219563,45.5977657" id="Fill-52" fill="#FFFFFF"></path>
                </g>
                <g id="Group-56" transform="translate(129.062284, 43.548862)">
                    <mask id="mask-13" fill="white">
                        <use xlink:href="#path-12"></use>
                    </mask>
                    <g id="Clip-55"></g>
                    <polygon id="Fill-54" fill="url(#linearGradient-14)" mask="url(#mask-13)" points="15.1411872 0.373106961 15.1411872 6.50753141 9.01799987 6.50753141 9.01799987 2.41882513 0.848902628 2.41882513 0.848902628 28.996781 19.2257359 43.306798 37.603478 28.996781 37.603478 2.41882513 29.4371074 2.41882513 29.4371074 6.50753141 23.3102845 6.50753141 23.3102845 0.373106961"></polygon>
                </g>
                <g id="Group-147" transform="translate(39.082241, 57.199117)">
                    <path d="M110.892496,9.03492156 L107.519607,9.03492156 C105.658202,9.03492156 104.146719,10.5464598 104.146719,12.4119946 L104.146719,15.7890676 L114.266293,15.7890676 L114.266293,12.4119946 C114.266293,10.5464598 112.756628,9.03492156 110.892496,9.03492156" id="Fill-57" fill="#009AA2"></path>
                    <path d="M112.579758,3.96894805 C112.579758,5.83357284 111.070093,7.34602105 109.205961,7.34602105 C107.344555,7.34602105 105.833072,5.83357284 105.833072,3.96894805 C105.833072,2.10432326 107.344555,0.591875042 109.205961,0.591875042 C111.070093,0.591875042 112.579758,2.10432326 112.579758,3.96894805" id="Fill-59" fill="#009AA2"></path>
                    <g id="Group-64" transform="translate(7.271115, 83.721562)">
                        <path d="M0.593777395,0.287110357 L51.9460242,0.287110357" id="Fill-61" fill="#D8E5ED"></path>
                        <path d="M0.593777395,0.287110357 L51.9460242,0.287110357" id="Stroke-63" stroke="#B5D1DE" stroke-width="2"></path>
                    </g>
                    <g id="Group-68" transform="translate(7.271115, 89.181664)">
                        <path d="M0.593777395,0.631915789 L51.9460242,0.631915789" id="Fill-65" fill="#D8E5ED"></path>
                        <path d="M0.593777395,0.631915789 L51.9460242,0.631915789" id="Stroke-67" stroke="#B5D1DE" stroke-width="2"></path>
                    </g>
                    <g id="Group-72" transform="translate(7.271115, 95.551783)">
                        <path d="M0.593777395,0.0657942275 L51.9460242,0.0657942275" id="Fill-69" fill="#D8E5ED"></path>
                        <path d="M0.593777395,0.0657942275 L51.9460242,0.0657942275" id="Stroke-71" stroke="#B5D1DE" stroke-width="2"></path>
                    </g>
                    <g id="Group-76" transform="translate(0.000000, 83.721562)">
                        <path d="M3.72517378,0.287110357 L0.719476789,0.287110357" id="Fill-73" fill="#D8E5ED"></path>
                        <path d="M3.72517378,0.287110357 L0.719476789,0.287110357" id="Stroke-75" stroke="#B5D1DE" stroke-width="2"></path>
                    </g>
                    <g id="Group-80" transform="translate(0.000000, 89.181664)">
                        <path d="M3.72517378,0.631915789 L0.719476789,0.631915789" id="Fill-77" fill="#D8E5ED"></path>
                        <path d="M3.72517378,0.631915789 L0.719476789,0.631915789" id="Stroke-79" stroke="#B5D1DE" stroke-width="2"></path>
                    </g>
                    <g id="Group-84" transform="translate(0.000000, 95.551783)">
                        <path d="M3.72517378,0.0657942275 L0.719476789,0.0657942275" id="Fill-81" fill="#D8E5ED"></path>
                        <path d="M3.72517378,0.0657942275 L0.719476789,0.0657942275" id="Stroke-83" stroke="#B5D1DE" stroke-width="2"></path>
                    </g>
                    <path d="M69.9294901,83.7953643 C69.9294901,84.849164 69.0769519,85.7027599 68.025367,85.7027599 C66.9728731,85.7027599 66.1212439,84.849164 66.1212439,83.7953643 C66.1212439,82.7433847 66.9728731,81.8879688 68.025367,81.8879688 C69.0769519,81.8879688 69.9294901,82.7433847 69.9294901,83.7953643" id="Fill-85" fill="#F5B1AE"></path>
                    <path d="M78.1822052,83.7953643 C78.1822052,84.849164 77.329667,85.7027599 76.278082,85.7027599 C75.2255882,85.7027599 74.3739589,84.849164 74.3739589,83.7953643 C74.3739589,82.7433847 75.2255882,81.8879688 76.278082,81.8879688 C77.329667,81.8879688 78.1822052,82.7433847 78.1822052,83.7953643" id="Fill-87" fill="#B0D9EF"></path>
                    <path d="M69.9294901,89.8598085 C69.9294901,90.9117881 69.0769519,91.7672041 68.025367,91.7672041 C66.9728731,91.7672041 66.1212439,90.9117881 66.1212439,89.8598085 C66.1212439,88.8060088 66.9728731,87.9524129 68.025367,87.9524129 C69.0769519,87.9524129 69.9294901,88.8060088 69.9294901,89.8598085" id="Fill-89" fill="#D8E5ED"></path>
                    <path d="M78.1822052,89.8598085 C78.1822052,90.9117881 77.329667,91.7672041 76.278082,91.7672041 C75.2255882,91.7672041 74.3739589,90.9117881 74.3739589,89.8598085 C74.3739589,88.8060088 75.2255882,87.9524129 76.278082,87.9524129 C77.329667,87.9524129 78.1822052,88.8060088 78.1822052,89.8598085" id="Fill-91" fill="#B2DDC9"></path>
                    <path d="M69.9294901,95.9233426 C69.9294901,96.9762323 69.0769519,97.8307382 68.025367,97.8307382 C66.9728731,97.8307382 66.1212439,96.9762323 66.1212439,95.9233426 C66.1212439,94.870453 66.9728731,94.015947 68.025367,94.015947 C69.0769519,94.015947 69.9294901,94.870453 69.9294901,95.9233426" id="Fill-93" fill="#D8E5ED"></path>
                    <path d="M78.1822052,95.9233426 C78.1822052,96.9762323 77.329667,97.8307382 76.278082,97.8307382 C75.2255882,97.8307382 74.3739589,96.9762323 74.3739589,95.9233426 C74.3739589,94.870453 75.2255882,94.015947 76.278082,94.015947 C77.329667,94.015947 78.1822052,94.870453 78.1822052,95.9233426" id="Fill-95" fill="#B0D9EF"></path>
                    <path d="M12.7981615,77.8642377 L12.7981615,76.2262071 C12.7981615,74.4161834 11.3339408,72.950146 9.52615989,72.950146 L3.80015715,72.950146 C1.99328518,72.950146 0.528155586,74.4161834 0.528155586,76.2262071 L0.528155586,77.8642377 L12.7981615,77.8642377 Z" id="Fill-97" fill="#B5D1DE"></path>
                    <path d="M9.52652345,67.6265467 C9.52652345,66.0449372 8.2449895,64.7609032 6.66352208,64.7609032 C5.08114576,64.7609032 3.79961182,66.0449372 3.79961182,67.6265467 C3.79961182,69.2099762 5.08114576,70.4931002 6.66352208,70.4931002 C8.2449895,70.4931002 9.52652345,69.2099762 9.52652345,67.6265467" id="Fill-99" fill="#B5D1DE"></path>
                    <g id="Group-104" transform="translate(18.177786, 68.251273)">
                        <path d="M0.29029925,0.59014601 L31.6469809,0.59014601" id="Fill-101" fill="#D8E5ED"></path>
                        <path d="M0.29029925,0.59014601 L31.6469809,0.59014601" id="Stroke-103" stroke="#B5D1DE" stroke-width="2"></path>
                    </g>
                    <g id="Group-108" transform="translate(18.177786, 73.711375)">
                        <path d="M0.29029925,0.0249344652 L21.2820071,0.0249344652" id="Fill-105" fill="#D8E5ED"></path>
                        <path d="M0.29029925,0.0249344652 L21.2820071,0.0249344652" id="Stroke-107" stroke="#B5D1DE" stroke-width="2"></path>
                    </g>
                    <path d="M116.866807,98.9253066 L116.866807,97.2872761 C116.866807,95.4772523 115.401677,94.0112149 113.593897,94.0112149 L107.869712,94.0112149 C106.061931,94.0112149 104.59771,95.4772523 104.59771,97.2872761 L104.59771,98.9253066 L116.866807,98.9253066 Z" id="Fill-109" fill="#B5D1DE"></path>
                    <path d="M113.594351,88.6876156 C113.594351,87.1060061 112.312817,85.8219722 110.733167,85.8219722 C109.150791,85.8219722 107.869257,87.1060061 107.869257,88.6876156 C107.869257,90.2710452 109.150791,91.5541691 110.733167,91.5541691 C112.312817,91.5541691 113.594351,90.2710452 113.594351,88.6876156" id="Fill-111" fill="#B5D1DE"></path>
                    <g id="Group-116" transform="translate(121.791169, 89.181664)">
                        <path d="M0.745561912,0.720824448 L39.2052136,0.720824448" id="Fill-113" fill="#D8E5ED"></path>
                        <path d="M0.745561912,0.720824448 L39.2052136,0.720824448" id="Stroke-115" stroke="#B5D1DE" stroke-width="2"></path>
                    </g>
                    <path d="M104.59771,104.46276 L115.055391,104.46276" id="Stroke-117" stroke="#D8E5ED" stroke-width="2"></path>
                    <path d="M104.59771,109.012845 L118.300125,109.012845" id="Stroke-119" stroke="#D8E5ED" stroke-width="2"></path>
                    <path d="M104.59771,113.56293 L115.055391,113.56293" id="Stroke-121" stroke="#D8E5ED" stroke-width="2"></path>
                    <path d="M104.59771,118.113015 L116.482347,118.113015" id="Stroke-123" stroke="#D8E5ED" stroke-width="2"></path>
                    <path d="M104.59771,122.663099 L112.84679,122.663099" id="Stroke-125" stroke="#D8E5ED" stroke-width="2"></path>
                    <g id="Group-130" transform="translate(121.791169, 103.741935)">
                        <path d="M0.745561912,0.720824448 L39.2052136,0.720824448" id="Fill-127" fill="#D8E5ED"></path>
                        <path d="M0.745561912,0.720824448 L39.2052136,0.720824448" id="Stroke-129" stroke="#B5D1DE" stroke-width="2"></path>
                    </g>
                    <g id="Group-134" transform="translate(121.791169, 129.222411)">
                        <path d="M0.745561912,0.720824448 L11.3423025,0.720824448" id="Fill-131" fill="#D8E5ED"></path>
                        <path d="M0.745561912,0.720824448 L11.3423025,0.720824448" id="Stroke-133" stroke="#B5D1DE" stroke-width="2"></path>
                    </g>
                    <g id="Group-138" transform="translate(137.242288, 129.222411)">
                        <path d="M0.157964964,0.720824448 L10.7547056,0.720824448" id="Fill-135" fill="#D8E5ED"></path>
                        <path d="M0.157964964,0.720824448 L10.7547056,0.720824448" id="Stroke-137" stroke="#B5D1DE" stroke-width="2"></path>
                    </g>
                    <g id="Group-142" transform="translate(151.784517, 129.222411)">
                        <path d="M0.479348229,0.720824448 L11.0760889,0.720824448" id="Fill-139" fill="#D8E5ED"></path>
                        <path d="M0.479348229,0.720824448 L11.0760889,0.720824448" id="Stroke-141" stroke="#B5D1DE" stroke-width="2"></path>
                    </g>
                    <g id="Group-146" transform="translate(121.791169, 94.641766)">
                        <path d="M0.745561912,0.155612903 L26.4916698,0.155612903" id="Fill-143" fill="#D8E5ED"></path>
                        <path d="M0.745561912,0.155612903 L26.4916698,0.155612903" id="Stroke-145" stroke="#B5D1DE" stroke-width="2"></path>
                    </g>
                </g>
                <polygon id="Fill-148" fill="url(#linearGradient-9)" points="161.6187 183.757908 209.183605 183.757908 209.183605 165.556659 161.6187 165.556659"></polygon>
                <g id="Group-152" transform="translate(151.784517, 101.789949)">
                    <mask id="mask-16" fill="white">
                        <use xlink:href="#path-15"></use>
                    </mask>
                    <g id="Clip-151"></g>
                    <path d="M2.27494998,0.199293718 C1.36060732,0.199293718 0.621680297,1.03195925 0.621680297,2.06209847 L0.621680297,17.3394635 C0.621680297,18.3705127 1.36060732,19.2022683 2.27494998,19.2022683 L5.48060262,19.2022683 L5.48060262,26.1939287 L13.3352242,19.2022683 L35.6620904,19.2022683 C36.5773419,19.2022683 37.3180867,18.3705127 37.3180867,17.3394635 L37.3180867,2.06209847 C37.3180867,1.03195925 36.5773419,0.199293718 35.6620904,0.199293718 L2.27494998,0.199293718 Z" id="Fill-150" fill="url(#linearGradient-17)" mask="url(#mask-16)"></path>
                </g>
                <g id="Group-163" transform="translate(45.444466, 69.029338)">
                    <polygon id="Fill-153" fill="#FFFFFF" points="26.5264802 14.5696448 26.5264802 0.106744992 0.764012365 0.106744992 0.764012365 14.5696448 15.4934727 14.5696448 22.619165 18.1369114 22.619165 14.5696448"></polygon>
                    <polyline id="Stroke-155" stroke="#AB9AFE" stroke-width="2" stroke-linecap="round" points="2.3831987 1.6828034 13.6470641 9.57447063 24.9082028 1.6828034"></polyline>
                    <polygon id="Fill-157" fill="#FFFFFF" points="150.453994 17.6404971 144.652553 20.9966397 138.851113 24.3482323 138.851113 17.6404971 138.851113 10.934582 144.652553 14.2861745"></polygon>
                    <path d="M114.659388,40.1065413 L135.563842,40.1065413" id="Stroke-159" stroke="#FFFFFF" stroke-width="2"></path>
                    <path d="M114.659388,44.6566261 L135.563842,44.6566261" id="Stroke-161" stroke="#FFFFFF" stroke-width="2"></path>
                </g>
            </g>
        </g>
    </g>
</svg>