<?xml version="1.0" encoding="UTF-8"?>
<svg width="389px" height="390px" viewBox="0 0 389 390" version="1.1" xmlns="http://www.w3.org/2000/svg" xmlns:xlink="http://www.w3.org/1999/xlink">
    <!-- Generator: Sketch 49.2 (51160) - http://www.bohemiancoding.com/sketch -->
    <title>mobile-app-large</title>
    <desc>Created with Sketch.</desc>
    <defs>
        <path d="M224.010429,1.01541115 C218.620071,1.02935911 213.410786,1.64446394 208.633286,2.92628104 L85.956,35.8448506 C63.7566429,41.8006275 40.7271429,64.862177 34.7796429,87.0910335 L1.90821429,209.939045 C0.629571429,214.714825 0.0153214286,219.918807 0,225.308297 L0,225.725341 C0.0557142857,245.315245 7.96992857,267.256773 20.6393571,279.943833 L110.445214,369.874671 C123.117429,382.563126 145.032643,390.489749 164.596714,390.542751 L164.972786,390.542751 C170.365929,390.528803 175.576607,389.915093 180.3555,388.631881 L303.031393,355.714706 C325.23075,349.758929 348.26025,326.69738 354.209143,304.467129 L387.079179,181.620512 C393.026679,159.391655 384.5985,127.887408 368.348036,111.615723 L278.540786,21.6834914 C265.871357,8.99643123 243.957536,1.06980818 224.394857,1.01541115 L224.010429,1.01541115 Z" id="path-1"></path>
        <linearGradient x1="0.25781251%" y1="49.7500002%" x2="88.8402899%" y2="93.1415775%" id="linearGradient-3">
            <stop stop-color="#3023AE" offset="0%"></stop>
            <stop stop-color="#53A0FD" offset="47.5247532%"></stop>
            <stop stop-color="#B4EC51" offset="100%"></stop>
        </linearGradient>
        <path d="M0.203357143,86.9180788 L99.0962143,185.948562 L43.3833214,241.741778 L100.576821,299.014873 L159.567107,283.185338 C181.766464,277.229561 204.795964,254.168012 210.744857,231.937761 L233.487429,146.943105 L86.8752857,0.126926394 L0.203357143,86.9180788 Z" id="path-4"></path>
        <linearGradient x1="0%" y1="0%" x2="101.999998%" y2="100.999999%" id="linearGradient-6">
            <stop stop-color="#3023AE" offset="0%"></stop>
            <stop stop-color="#C86DD7" offset="100%"></stop>
        </linearGradient>
        <path d="M4.2705,3.65296952 C0.129535714,7.80388104 0.129535714,14.5393487 4.2705,18.6874706 L59.5488214,74.0427212 C63.687,78.1922379 70.4117143,78.1922379 74.5610357,74.0427212 C78.7033929,69.8890201 78.7033929,63.1577368 74.5610357,59.0040357 L19.2841071,3.65296952 C17.2101429,1.57611896 14.4940714,0.538391078 11.7766071,0.538391078 C9.05914286,0.538391078 6.34307143,1.57611896 4.2705,3.65296952" id="path-7"></path>
        <linearGradient x1="50%" y1="0%" x2="50%" y2="97.7939848%" id="linearGradient-9">
            <stop stop-color="#FAD961" offset="0%"></stop>
            <stop stop-color="#FFB78E" offset="100%"></stop>
        </linearGradient>
        <path d="M3.44732143,4.19554498 C-0.696428571,8.34087732 -0.696428571,15.076345 3.44732143,19.2342305 L58.7228571,74.5825071 C62.8666071,78.7334186 69.5941071,78.7334186 73.73925,74.5825071 C77.8843929,70.4302007 77.8843929,63.6933383 73.73925,59.5466112 L18.4609286,4.19554498 C16.38975,2.11869442 13.6736786,1.07957175 10.9562143,1.07957175 C8.23875,1.07957175 5.52128571,2.11869442 3.44732143,4.19554498" id="path-10"></path>
        <path d="M3.51975,4.23599405 C-0.625392857,8.38411599 -0.625392857,15.1223732 3.51975,19.2732848 L58.7938929,74.6243509 C62.9348571,78.7710781 69.6609643,78.7710781 73.8061071,74.6243509 C77.9568214,70.4776238 77.9568214,63.7407613 73.8061071,59.5898498 L18.5319643,4.23599405 C16.4621786,2.16193309 13.7447143,1.1256 11.02725,1.1256 C8.30978571,1.1256 5.59232143,2.16193309 3.51975,4.23599405" id="path-12"></path>
        <path d="M3.93203571,4.08675093 C-0.218678571,8.23487286 -0.218678571,14.9717353 3.93203571,19.1226468 L59.2061786,74.4751078 C63.3401786,78.6232297 70.0690714,78.6232297 74.2142143,74.4751078 C78.3635357,70.3241963 78.3635357,63.5901234 74.2142143,59.4406067 L18.9386786,4.08675093 C16.8661071,2.01268996 14.1500357,0.974962082 11.4325714,0.974962082 C8.7165,0.974962082 6.00182143,2.01268996 3.93203571,4.08675093" id="path-14"></path>
        <path d="M37.15725,7.817829 L8.15935714,36.8518929 C-1.69789286,46.7186766 -1.69789286,62.7211658 8.15935714,72.5851599 L37.15725,101.616434 C38.58075,103.04331 40.1379643,104.23865 41.7801429,105.251271 C45.4726071,109.264098 50.7459643,111.791468 56.61825,111.791468 L118.344107,111.791468 L118.344107,38.5033309 L103.32075,38.5033309 C102.848571,37.9370439 102.356893,37.38331 101.827607,36.8518929 L72.8366786,7.817829 C67.9115357,2.88443717 61.4528571,0.417043866 54.9941786,0.417043866 C48.5368929,0.417043866 42.0796071,2.88443717 37.15725,7.817829" id="path-16"></path>
        <linearGradient x1="159.38859%" y1="60.0521323%" x2="50%" y2="100%" id="linearGradient-18">
            <stop stop-color="#B4EC51" offset="0%"></stop>
            <stop stop-color="#429321" offset="100%"></stop>
        </linearGradient>
        <path d="M13.2042857,0.753189591 C6.05892857,0.753189591 0.267428571,5.88603717 0.267428571,12.2198037 L0.267428571,56.5966186 L82.9112143,56.5966186 L82.9112143,12.2198037 C82.9112143,5.88603717 77.1197143,0.753189591 69.9743571,0.753189591 L13.2042857,0.753189591 Z" id="path-19"></path>
        <polygon id="path-21" points="12.0830357 0.821534572 1.21596429 0.821534572 1.21596429 24.5832714 12.0830357 30.8682201 22.9515 24.5832714 22.9515 0.821534572"></polygon>
        <polygon id="path-23" points="0.743785714 16.2423941 13.4313214 7.84572491 1.74664286 1.08933532"></polygon>
        <polygon id="path-25" points="1.34271429 8.86253086 14.03025 16.1280208 13.0273929 0.970777695"></polygon>
        <path d="M6.16896429,0.909406691 C3.39578571,0.909406691 1.15189286,3.1564223 1.15189286,5.93346022 L1.15189286,15.14469 C1.15189286,17.9189383 3.39578571,20.1701383 6.16896429,20.1701383 L6.58542857,20.1701383 C9.36,20.1701383 11.6052857,17.9189383 11.6052857,15.14469 L11.6052857,5.93346022 C11.6052857,3.1564223 9.36,0.909406691 6.58542857,0.909406691 L6.16896429,0.909406691 Z" id="path-27"></path>
        <path d="M0.851035714,26.3197918 L0.851035714,46.6782275 C0.851035714,60.7335822 12.2320714,72.1262721 26.2678929,72.1262721 C40.3023214,72.1262721 51.6819643,60.7335822 51.6819643,46.6782275 L51.6819643,26.3197918 C51.6819643,12.265832 40.3023214,0.870352416 26.2678929,0.870352416 C12.2320714,0.870352416 0.851035714,12.265832 0.851035714,26.3197918" id="path-29"></path>
        <path d="M24.1577143,0.884300372 C20.0446071,0.884300372 16.4273571,3.0029948 14.3283214,6.20823494 L10.2918214,6.20823494 C5.26082143,6.20823494 1.18114286,10.2908015 1.18114286,15.3315926 L1.18114286,59.206281 L7.59107143,59.206281 L7.59107143,28.7090766 C7.59107143,25.1621115 10.4631429,22.2874379 14.0051786,22.2874379 L17.7436071,22.2874379 L49.2723214,22.2874379 L55.1487857,22.2874379 C61.6422857,22.2874379 66.9031071,17.0179004 66.9031071,10.5153636 L66.9031071,0.884300372 L24.1577143,0.884300372 Z" id="path-31"></path>
        <path d="M1.18114286,5.93346022 L1.18114286,15.14469 C1.18114286,17.7431941 5.29425,19.8549145 7.81532143,20.1171361 L7.81532143,0.961014126 C5.29425,1.22323569 1.18114286,3.33635093 1.18114286,5.93346022" id="path-33"></path>
        <path d="M0.600321429,0.742031227 C0.591964286,1.00843717 0.558535714,1.25950037 0.564107143,1.52032714 L0.663,7.66440149 C0.830142857,17.8561725 9.21375,25.9794617 19.3857857,25.8162706 L23.4195,25.6837651 L29.1190714,42.827197 C17.5388571,51.3912416 9.70542857,67.7187182 9.70542857,86.4661651 C9.70542857,100.868824 14.3297143,113.839028 21.7174286,122.962385 L53.9439643,122.962385 L53.9439643,37.4739717 L37.7283214,0.397516729 L37.4831786,0.186902602 L0.600321429,0.742031227 Z" id="path-35"></path>
        <linearGradient x1="0%" y1="0%" x2="101.999998%" y2="100.999999%" id="linearGradient-37">
            <stop stop-color="#239DAE" offset="0%"></stop>
            <stop stop-color="#6DB4D7" offset="100%"></stop>
        </linearGradient>
        <polygon id="path-38" points="1.31903571 19.3248922 1.31903571 37.4865249 22.2495 55.652342 22.2495 1.1576803"></polygon>
        <path d="M6.786,0.449124164 C3.32057143,0.449124164 0.507,3.26521636 0.507,6.73686245 L0.507,61.2315242 C0.507,64.7073546 3.32057143,67.5192625 6.786,67.5192625 L61.2035357,67.5192625 C64.6731429,67.5192625 67.4853214,64.7073546 67.4853214,61.2315242 L67.4853214,6.73686245 C67.4853214,3.26521636 64.6731429,0.449124164 61.2035357,0.449124164 L6.786,0.449124164 Z" id="path-40"></path>
    </defs>
    <g id="landing-page" stroke="none" stroke-width="1" fill="none" fill-rule="evenodd">
        <g id="features" transform="translate(-156.000000, -1058.000000)">
            <g id="mobile-app-large" transform="translate(156.000000, 1057.000000)">
                <g id="Group-3" transform="translate(0.000000, 0.379384)">
                    <mask id="mask-2" fill="white">
                        <use xlink:href="#path-1"></use>
                    </mask>
                    <g id="Clip-2"></g>
                    <path d="M224.010429,1.01541115 C218.620071,1.02935911 213.410786,1.64446394 208.633286,2.92628104 L85.956,35.8448506 C63.7566429,41.8006275 40.7271429,64.862177 34.7796429,87.0910335 L1.90821429,209.939045 C0.629571429,214.714825 0.0153214286,219.918807 0,225.308297 L0,225.725341 C0.0557142857,245.315245 7.96992857,267.256773 20.6393571,279.943833 L110.445214,369.874671 C123.117429,382.563126 145.032643,390.489749 164.596714,390.542751 L164.972786,390.542751 C170.365929,390.528803 175.576607,389.915093 180.3555,388.631881 L303.031393,355.714706 C325.23075,349.758929 348.26025,326.69738 354.209143,304.467129 L387.079179,181.620512 C393.026679,159.391655 384.5985,127.887408 368.348036,111.615723 L278.540786,21.6834914 C265.871357,8.99643123 243.957536,1.06980818 224.394857,1.01541115 L224.010429,1.01541115 Z" id="Fill-1" fill="url(#linearGradient-3)" mask="url(#mask-2)"></path>
                </g>
                <g id="Group-6" transform="translate(143.464286, 72.908752)">
                    <mask id="mask-5" fill="white">
                        <use xlink:href="#path-4"></use>
                    </mask>
                    <g id="Clip-5"></g>
                    <path d="M0.203357143,86.9180788 L99.0962143,185.948562 L43.3833214,241.741778 L100.576821,299.014873 L159.567107,283.185338 C181.766464,277.229561 204.795964,254.168012 210.744857,231.937761 L233.487429,146.943105 L86.8752857,0.126926394 L0.203357143,86.9180788 Z" id="Fill-4" fill="url(#linearGradient-6)" opacity="0.138530344" mask="url(#mask-5)"></path>
                </g>
                <g id="Group-57" transform="translate(41.785714, 21.301317)">
                    <path d="M35.939475,84.7640961 L282.798332,132.998915" id="Stroke-7" stroke="#FCFCFD" stroke-width="2" stroke-dasharray="4"></path>
                    <path d="M26.1201107,254.825519 L139.945789,21.4106694" id="Stroke-9" stroke="#FCFCFD" stroke-width="2" stroke-dasharray="4"></path>
                    <path d="M24.7272536,259.009905 L306.477182,134.393292" id="Stroke-11" stroke="#FCFCFD" stroke-width="2" stroke-dasharray="4"></path>
                    <path d="M277.666768,282.259752 L301.466518,152.525634" id="Stroke-13" stroke="#FCFCFD" stroke-width="2" stroke-dasharray="4"></path>
                    <path d="M153.449539,10.7362992 C153.449539,15.936097 149.241718,20.1497743 144.047754,20.1497743 C138.856575,20.1497743 134.647361,15.936097 134.647361,10.7362992 C134.647361,5.53650141 138.856575,1.32282409 144.047754,1.32282409 C149.241718,1.32282409 153.449539,5.53650141 153.449539,10.7362992 Z" id="Stroke-15" stroke="#FCFCFD" stroke-width="3"></path>
                    <path d="M35.8251214,80.0116092 C35.8251214,88.4612806 28.9861929,95.3097267 20.5496571,95.3097267 C12.1117286,95.3097267 5.27140714,88.4612806 5.27140714,80.0116092 C5.27140714,71.5619378 12.1117286,64.7134917 20.5496571,64.7134917 C28.9861929,64.7134917 35.8251214,71.5619378 35.8251214,80.0116092 Z" id="Stroke-17" stroke="#FCFCFD" stroke-width="3"></path>
                    <path d="M28.9044321,80.0116092 C28.9044321,84.6325668 25.1632179,88.3789877 20.550075,88.3789877 C15.9341464,88.3789877 12.194325,84.6325668 12.194325,80.0116092 C12.194325,75.3906516 15.9341464,71.6456256 20.550075,71.6456256 C25.1632179,71.6456256 28.9044321,75.3906516 28.9044321,80.0116092" id="Fill-19" fill="#FFFFFF"></path>
                    <path d="M289.325121,297.599713 C289.325121,306.049385 282.4848,312.899226 274.048264,312.899226 C265.611729,312.899226 258.770014,306.049385 258.770014,297.599713 C258.770014,289.151437 265.611729,282.301596 274.048264,282.301596 C282.4848,282.301596 289.325121,289.151437 289.325121,297.599713 Z" id="Stroke-21" stroke="#FCFCFD" stroke-width="3"></path>
                    <path d="M282.403039,297.599713 C282.403039,302.220671 278.661825,305.965697 274.048682,305.965697 C269.434146,305.965697 265.694325,302.220671 265.694325,297.599713 C265.694325,292.978756 269.434146,289.23373 274.048682,289.23373 C278.661825,289.23373 282.403039,292.978756 282.403039,297.599713" id="Fill-23" fill="#88EEBE"></path>
                    <path d="M25.2970714,278.66369 C12.6958929,278.66369 2.44585714,268.39939 2.44585714,255.780674 C2.44585714,243.161959 12.6958929,232.896264 25.2970714,232.896264 C37.89825,232.896264 48.1482857,243.161959 48.1482857,255.780674 C48.1482857,268.39939 37.89825,278.66369 25.2970714,278.66369" id="Fill-25" fill="#FFFFFF"></path>
                    <path d="M25.2970714,230.804768 C11.5245,230.804768 0.356571429,241.988239 0.356571429,255.779977 C0.356571429,269.57311 11.5245,280.756581 25.2970714,280.756581 C39.0710357,280.756581 50.2375714,269.57311 50.2375714,255.779977 C50.2375714,241.988239 39.0710357,230.804768 25.2970714,230.804768 M25.2970714,234.989155 C36.7463571,234.989155 46.059,244.316153 46.059,255.779977 C46.059,267.245196 36.7463571,276.572194 25.2970714,276.572194 C13.8477857,276.572194 4.53514286,267.245196 4.53514286,255.779977 C4.53514286,244.316153 13.8477857,234.989155 25.2970714,234.989155" id="Fill-27" fill="#FCFCFD"></path>
                    <path d="M16.536,252.857323 C16.536,257.701447 20.4596786,261.629192 25.2984643,261.629192 C30.1358571,261.629192 34.0581429,257.701447 34.0581429,252.857323 C34.0581429,248.011803 30.1358571,244.084059 25.2984643,244.084059 C20.4596786,244.084059 16.536,248.011803 16.536,252.857323" id="Fill-29" fill="#39CBFF"></path>
                    <path d="M16.536,252.857323 C16.536,257.701447 20.4596786,261.629192 25.2984643,261.629192 C30.1358571,261.629192 34.0581429,257.701447 34.0581429,252.857323 C34.0581429,248.011803 30.1358571,244.084059 25.2984643,244.084059 C20.4596786,244.084059 16.536,248.011803 16.536,252.857323 Z" id="Stroke-31" stroke="#FCFCFD" stroke-width="3"></path>
                    <path d="M18.7259893,262.604572 L31.8675964,262.604572 C36.7063821,262.604572 40.6314536,266.532316 40.6314536,271.377836 L40.6314536,272.090577 C36.6228107,275.871867 31.2366321,278.201176 25.2988821,278.201176 C19.3569536,278.201176 13.9721679,275.871867 9.96631071,272.090577 L9.96631071,271.377836 C9.96631071,266.532316 13.8872036,262.604572 18.7259893,262.604572" id="Fill-33" fill="#39CBFF"></path>
                    <path d="M18.7259893,262.604572 L31.8675964,262.604572 C36.7063821,262.604572 40.6314536,266.532316 40.6314536,271.377836 L40.6314536,272.090577 C36.6228107,275.871867 31.2366321,278.201176 25.2988821,278.201176 C19.3569536,278.201176 13.9721679,275.871867 9.96631071,272.090577 L9.96631071,271.377836 C9.96631071,266.532316 13.8872036,262.604572 18.7259893,262.604572 Z" id="Stroke-35" stroke="#FCFCFD" stroke-width="3"></path>
                    <path d="M304.691539,156.03215 C292.090361,156.03215 281.840325,145.76785 281.840325,133.149135 C281.840325,120.53042 292.090361,110.264724 304.691539,110.264724 C317.292718,110.264724 327.542754,120.53042 327.542754,133.149135 C327.542754,145.76785 317.292718,156.03215 304.691539,156.03215" id="Fill-37" fill="#FFFFFF"></path>
                    <path d="M304.691539,108.173229 C290.918968,108.173229 279.751039,119.356699 279.751039,133.148437 C279.751039,146.941571 290.918968,158.125041 304.691539,158.125041 C318.465504,158.125041 329.632039,146.941571 329.632039,133.148437 C329.632039,119.356699 318.465504,108.173229 304.691539,108.173229 M304.691539,112.357615 C316.140825,112.357615 325.453468,121.684613 325.453468,133.148437 C325.453468,144.613657 316.140825,153.940655 304.691539,153.940655 C293.242254,153.940655 283.929611,144.613657 283.929611,133.148437 C283.929611,121.684613 293.242254,112.357615 304.691539,112.357615" id="Fill-39" fill="#FCFCFD"></path>
                    <path d="M295.930329,130.225643 C295.930329,135.069768 299.854007,138.997513 304.692793,138.997513 C309.530186,138.997513 313.452471,135.069768 313.452471,130.225643 C313.452471,125.380124 309.530186,121.452379 304.692793,121.452379 C299.854007,121.452379 295.930329,125.380124 295.930329,130.225643" id="Fill-41" fill="#88EEBE"></path>
                    <path d="M295.930329,130.225643 C295.930329,135.069768 299.854007,138.997513 304.692793,138.997513 C309.530186,138.997513 313.452471,135.069768 313.452471,130.225643 C313.452471,125.380124 309.530186,121.452379 304.692793,121.452379 C299.854007,121.452379 295.930329,125.380124 295.930329,130.225643 Z" id="Stroke-43" stroke="#FCFCFD" stroke-width="3"></path>
                    <path d="M298.120318,139.972893 L311.261925,139.972893 C316.100711,139.972893 320.025782,143.900637 320.025782,148.746157 L320.025782,149.458898 C316.017139,153.240188 310.630961,155.569497 304.693211,155.569497 C298.751282,155.569497 293.366496,153.240188 289.360639,149.458898 L289.360639,148.746157 C289.360639,143.900637 293.281532,139.972893 298.120318,139.972893" id="Fill-45" fill="#88EEBE"></path>
                    <path d="M298.120318,139.972893 L311.261925,139.972893 C316.100711,139.972893 320.025782,143.900637 320.025782,148.746157 L320.025782,149.458898 C316.017139,153.240188 310.630961,155.569497 304.693211,155.569497 C298.751282,155.569497 293.366496,153.240188 289.360639,149.458898 L289.360639,148.746157 C289.360639,143.900637 293.281532,139.972893 298.120318,139.972893 Z" id="Stroke-47" stroke="#FCFCFD" stroke-width="3"></path>
                    <path d="M31.7609036,71.1375016 L138.459332,15.8324636" id="Stroke-49" stroke="#FCFCFD" stroke-width="2" stroke-dasharray="4"></path>
                    <path d="M286.977461,117.852273 L152.480389,17.2261433" id="Stroke-51" stroke="#FCFCFD" stroke-width="2" stroke-dasharray="4"></path>
                    <path d="M18.0376393,230.416597 L21.1534607,93.1324509" id="Stroke-53" stroke="#FCFCFD" stroke-width="2" stroke-dasharray="4"></path>
                    <path d="M48.405825,263.194292 L260.120111,294.810122" id="Stroke-55" stroke="#FCFCFD" stroke-width="2" stroke-dasharray="4"></path>
                </g>
                <g id="Group-60" transform="translate(114.214286, 215.177897)">
                    <mask id="mask-8" fill="white">
                        <use xlink:href="#path-7"></use>
                    </mask>
                    <g id="Clip-59"></g>
                    <path d="M4.2705,3.65296952 C0.129535714,7.80388104 0.129535714,14.5393487 4.2705,18.6874706 L59.5488214,74.0427212 C63.687,78.1922379 70.4117143,78.1922379 74.5610357,74.0427212 C78.7033929,69.8890201 78.7033929,63.1577368 74.5610357,59.0040357 L19.2841071,3.65296952 C17.2101429,1.57611896 14.4940714,0.538391078 11.7766071,0.538391078 C9.05914286,0.538391078 6.34307143,1.57611896 4.2705,3.65296952" id="Fill-58" fill="url(#linearGradient-9)" mask="url(#mask-8)"></path>
                </g>
                <g id="Group-63" transform="translate(105.857143, 167.754849)">
                    <mask id="mask-11" fill="white">
                        <use xlink:href="#path-10"></use>
                    </mask>
                    <g id="Clip-62"></g>
                    <path d="M3.44732143,4.19554498 C-0.696428571,8.34087732 -0.696428571,15.076345 3.44732143,19.2342305 L58.7228571,74.5825071 C62.8666071,78.7334186 69.5941071,78.7334186 73.73925,74.5825071 C77.8843929,70.4302007 77.8843929,63.6933383 73.73925,59.5466112 L18.4609286,4.19554498 C16.38975,2.11869442 13.6736786,1.07957175 10.9562143,1.07957175 C8.23875,1.07957175 5.52128571,2.11869442 3.44732143,4.19554498" id="Fill-61" fill="url(#linearGradient-9)" mask="url(#mask-11)"></path>
                </g>
                <g id="Group-66" transform="translate(101.678571, 125.910983)">
                    <mask id="mask-13" fill="white">
                        <use xlink:href="#path-12"></use>
                    </mask>
                    <g id="Clip-65"></g>
                    <path d="M3.51975,4.23599405 C-0.625392857,8.38411599 -0.625392857,15.1223732 3.51975,19.2732848 L58.7938929,74.6243509 C62.9348571,78.7710781 69.6609643,78.7710781 73.8061071,74.6243509 C77.9568214,70.4776238 77.9568214,63.7407613 73.8061071,59.5898498 L18.5319643,4.23599405 C16.4621786,2.16193309 13.7447143,1.1256 11.02725,1.1256 C8.30978571,1.1256 5.59232143,2.16193309 3.51975,4.23599405" id="Fill-64" fill="url(#linearGradient-9)" mask="url(#mask-13)"></path>
                </g>
                <g id="Group-69" transform="translate(122.571429, 107.778641)">
                    <mask id="mask-15" fill="white">
                        <use xlink:href="#path-14"></use>
                    </mask>
                    <g id="Clip-68"></g>
                    <path d="M3.93203571,4.08675093 C-0.218678571,8.23487286 -0.218678571,14.9717353 3.93203571,19.1226468 L59.2061786,74.4751078 C63.3401786,78.6232297 70.0690714,78.6232297 74.2142143,74.4751078 C78.3635357,70.3241963 78.3635357,63.5901234 74.2142143,59.4406067 L18.9386786,4.08675093 C16.8661071,2.01268996 14.1500357,0.974962082 11.4325714,0.974962082 C8.7165,0.974962082 6.00182143,2.01268996 3.93203571,4.08675093" id="Fill-67" fill="url(#linearGradient-9)" mask="url(#mask-15)"></path>
                </g>
                <g id="Group-72" transform="translate(136.500000, 199.835146)">
                    <mask id="mask-17" fill="white">
                        <use xlink:href="#path-16"></use>
                    </mask>
                    <g id="Clip-71"></g>
                    <path d="M37.15725,7.817829 L8.15935714,36.8518929 C-1.69789286,46.7186766 -1.69789286,62.7211658 8.15935714,72.5851599 L37.15725,101.616434 C38.58075,103.04331 40.1379643,104.23865 41.7801429,105.251271 C45.4726071,109.264098 50.7459643,111.791468 56.61825,111.791468 L118.344107,111.791468 L118.344107,38.5033309 L103.32075,38.5033309 C102.848571,37.9370439 102.356893,37.38331 101.827607,36.8518929 L72.8366786,7.817829 C67.9115357,2.88443717 61.4528571,0.417043866 54.9941786,0.417043866 C48.5368929,0.417043866 42.0796071,2.88443717 37.15725,7.817829" id="Fill-70" fill="url(#linearGradient-9)" mask="url(#mask-17)"></path>
                </g>
                <g id="Group-83" transform="translate(130.928571, 68.724366)">
                    <polygon id="Fill-73" fill="#CDD5D7" points="3.97437857 37.8518219 3.97437857 37.8518219 1.1427 37.8518219 1.1427 28.5345877 3.97437857 28.5345877"></polygon>
                    <polygon id="Fill-75" fill="#CDD5D7" points="3.97437857 62.3056562 3.97437857 62.3056562 1.1427 62.3056562 1.1427 46.5849157 3.97437857 46.5849157"></polygon>
                    <polygon id="Fill-77" fill="#CDD5D7" points="3.97437857 80.9378929 3.97437857 80.9378929 1.1427 80.9378929 1.1427 65.9452357 3.97437857 65.9452357"></polygon>
                    <path d="M105.134807,198.710941 C105.134807,207.036476 98.3307,213.850052 90.0181286,213.850052 L17.3304857,213.850052 C9.01652143,213.850052 2.21380714,207.036476 2.21380714,198.710941 L2.21380714,16.0624654 C2.21380714,7.73553606 9.01652143,0.924749442 17.3304857,0.924749442 L90.0181286,0.924749442 C98.3307,0.924749442 105.134807,7.73553606 105.134807,16.0624654 L105.134807,198.710941 Z" id="Fill-79" fill="#CDD5D7"></path>
                    <path d="M17.3303464,211.714899 C10.1724536,211.714899 4.34473929,205.883259 4.34473929,198.71122 L4.34473929,16.0627444 C4.34473929,8.89489011 10.1724536,3.05627599 17.3303464,3.05627599 L90.0193821,3.05627599 C97.1786679,3.05627599 103.003596,8.89489011 103.003596,16.0627444 L103.003596,198.71122 C103.003596,205.883259 97.1786679,211.714899 90.0193821,211.714899 L17.3303464,211.714899 Z" id="Fill-81" fill="#E5E8EC"></path>
                </g>
                <polygon id="Fill-84" fill="url(#linearGradient-18)" points="139.826143 256.371789 229.375714 256.371789 229.375714 96.5296149 139.826143 96.5296149"></polygon>
                <g id="Group-94" transform="translate(165.750000, 74.303548)">
                    <path d="M4.55798571,9.31974483 C4.55798571,10.44395 3.64566429,11.3575411 2.52302143,11.3575411 C1.39898571,11.3575411 0.485271429,10.44395 0.485271429,9.31974483 C0.485271429,8.19553963 1.39898571,7.27776416 2.52302143,7.27776416 C3.64566429,7.27776416 4.55798571,8.19553963 4.55798571,9.31974483" id="Fill-86" fill="#596273"></path>
                    <path d="M20.0153571,2.2327887 C20.0153571,2.95808238 19.4303571,3.54250171 18.7074643,3.54250171 C17.9831786,3.54250171 17.40375,2.95808238 17.40375,2.2327887 C17.40375,1.51028461 17.9831786,0.924470483 18.7074643,0.924470483 C19.4303571,0.924470483 20.0153571,1.51028461 20.0153571,2.2327887" id="Fill-88" fill="#596273"></path>
                    <path d="M26.7512143,9.12363658 C26.7512143,9.66202766 26.3166429,10.0930195 25.7803929,10.0930195 L11.8309286,10.0930195 C11.2932857,10.0930195 10.8587143,9.66202766 10.8587143,9.12363658 C10.8587143,8.58803509 11.2932857,8.15146409 11.8309286,8.15146409 L25.7803929,8.15146409 C26.3166429,8.15146409 26.7512143,8.58803509 26.7512143,9.12363658" id="Fill-90" fill="#596273"></path>
                    <path d="M26.9919,195.266075 C26.9919,196.232669 26.2132929,197.016544 25.2508286,197.016544 L12.4574357,197.016544 C11.4949714,197.016544 10.7121857,196.232669 10.7121857,195.266075 L10.7121857,191.769323 C10.7121857,190.806914 11.4949714,190.023039 12.4574357,190.023039 L25.2508286,190.023039 C26.2132929,190.023039 26.9919,190.806914 26.9919,191.769323 L26.9919,195.266075 Z" id="Fill-92" fill="#CDD5D7"></path>
                </g>
                <g id="Group-97" transform="translate(143.464286, 199.835146)">
                    <mask id="mask-20" fill="white">
                        <use xlink:href="#path-19"></use>
                    </mask>
                    <g id="Clip-96"></g>
                    <path d="M13.2042857,0.753189591 C6.05892857,0.753189591 0.267428571,5.88603717 0.267428571,12.2198037 L0.267428571,56.5966186 L82.9112143,56.5966186 L82.9112143,12.2198037 C82.9112143,5.88603717 77.1197143,0.753189591 69.9743571,0.753189591 L13.2042857,0.753189591 Z" id="Fill-95" fill="#C3E5FF" mask="url(#mask-20)"></path>
                </g>
                <g id="Group-100" transform="translate(172.714286, 176.123622)">
                    <mask id="mask-22" fill="white">
                        <use xlink:href="#path-21"></use>
                    </mask>
                    <g id="Clip-99"></g>
                    <polygon id="Fill-98" fill="#F3F3F3" mask="url(#mask-22)" points="12.0830357 0.821534572 1.21596429 0.821534572 1.21596429 24.5832714 12.0830357 30.8682201 22.9515 24.5832714 22.9515 0.821534572"></polygon>
                </g>
                <g id="Group-103" transform="translate(171.321429, 199.835146)">
                    <mask id="mask-24" fill="white">
                        <use xlink:href="#path-23"></use>
                    </mask>
                    <g id="Clip-102"></g>
                    <polygon id="Fill-101" mask="url(#mask-24)" points="0.743785714 16.2423941 13.4313214 7.84572491 1.74664286 1.08933532"></polygon>
                </g>
                <g id="Group-106" transform="translate(183.857143, 198.440351)">
                    <mask id="mask-26" fill="white">
                        <use xlink:href="#path-25"></use>
                    </mask>
                    <g id="Clip-105"></g>
                    <polygon id="Fill-104" mask="url(#mask-26)" points="1.34271429 8.86253086 14.03025 16.1280208 13.0273929 0.970777695"></polygon>
                </g>
                <g id="Group-109" transform="translate(204.750000, 153.806894)">
                    <mask id="mask-28" fill="white">
                        <use xlink:href="#path-27"></use>
                    </mask>
                    <g id="Clip-108"></g>
                    <path d="M6.16896429,0.909406691 C3.39578571,0.909406691 1.15189286,3.1564223 1.15189286,5.93346022 L1.15189286,15.14469 C1.15189286,17.9189383 3.39578571,20.1701383 6.16896429,20.1701383 L6.58542857,20.1701383 C9.36,20.1701383 11.6052857,17.9189383 11.6052857,15.14469 L11.6052857,5.93346022 C11.6052857,3.1564223 9.36,0.909406691 6.58542857,0.909406691 L6.16896429,0.909406691 Z" id="Fill-107" fill="#F3F3F3" mask="url(#mask-28)"></path>
                </g>
                <g id="Group-112" transform="translate(158.785714, 123.121392)">
                    <mask id="mask-30" fill="white">
                        <use xlink:href="#path-29"></use>
                    </mask>
                    <g id="Clip-111"></g>
                    <path d="M0.851035714,26.3197918 L0.851035714,46.6782275 C0.851035714,60.7335822 12.2320714,72.1262721 26.2678929,72.1262721 C40.3023214,72.1262721 51.6819643,60.7335822 51.6819643,46.6782275 L51.6819643,26.3197918 C51.6819643,12.265832 40.3023214,0.870352416 26.2678929,0.870352416 C12.2320714,0.870352416 0.851035714,12.265832 0.851035714,26.3197918" id="Fill-110" fill="#FFFFFF" mask="url(#mask-30)"></path>
                </g>
                <g id="Group-115" transform="translate(151.821429, 121.726596)">
                    <mask id="mask-32" fill="white">
                        <use xlink:href="#path-31"></use>
                    </mask>
                    <g id="Clip-114"></g>
                    <path d="M24.1577143,0.884300372 C20.0446071,0.884300372 16.4273571,3.0029948 14.3283214,6.20823494 L10.2918214,6.20823494 C5.26082143,6.20823494 1.18114286,10.2908015 1.18114286,15.3315926 L1.18114286,59.206281 L7.59107143,59.206281 L7.59107143,28.7090766 C7.59107143,25.1621115 10.4631429,22.2874379 14.0051786,22.2874379 L17.7436071,22.2874379 L49.2723214,22.2874379 L55.1487857,22.2874379 C61.6422857,22.2874379 66.9031071,17.0179004 66.9031071,10.5153636 L66.9031071,0.884300372 L24.1577143,0.884300372 Z" id="Fill-113" fill="#0984E3" mask="url(#mask-32)"></path>
                </g>
                <g id="Group-118" transform="translate(151.821429, 153.806894)">
                    <mask id="mask-34" fill="white">
                        <use xlink:href="#path-33"></use>
                    </mask>
                    <g id="Clip-117"></g>
                    <path d="M1.18114286,5.93346022 L1.18114286,15.14469 C1.18114286,17.7431941 5.29425,19.8549145 7.81532143,20.1171361 L7.81532143,0.961014126 C5.29425,1.22323569 1.18114286,3.33635093 1.18114286,5.93346022" id="Fill-116" fill="#F3F3F3" mask="url(#mask-34)"></path>
                </g>
                <path d="M183.965786,210.891551 L183.965786,255.785835" id="Stroke-119" stroke="#F3F3F3"></path>
                <g id="Group-123" transform="translate(203.357143, 188.676782)">
                    <mask id="mask-36" fill="white">
                        <use xlink:href="#path-35"></use>
                    </mask>
                    <g id="Clip-122"></g>
                    <path d="M0.600321429,0.742031227 C0.591964286,1.00843717 0.558535714,1.25950037 0.564107143,1.52032714 L0.663,7.66440149 C0.830142857,17.8561725 9.21375,25.9794617 19.3857857,25.8162706 L23.4195,25.6837651 L29.1190714,42.827197 C17.5388571,51.3912416 9.70542857,67.7187182 9.70542857,86.4661651 C9.70542857,100.868824 14.3297143,113.839028 21.7174286,122.962385 L53.9439643,122.962385 L53.9439643,37.4739717 L37.7283214,0.397516729 L37.4831786,0.186902602 L0.600321429,0.742031227 Z" id="Fill-121" fill="url(#linearGradient-9)" mask="url(#mask-36)"></path>
                </g>
                <polygon id="Fill-124" fill="url(#linearGradient-37)" points="161.113179 349.58737 270.517929 349.58737 270.517929 304.062638 161.113179 304.062638"></polygon>
                <g id="Group-128" transform="translate(253.500000, 53.381615)">
                    <mask id="mask-39" fill="white">
                        <use xlink:href="#path-38"></use>
                    </mask>
                    <g id="Clip-127"></g>
                    <polygon id="Fill-126" mask="url(#mask-39)" points="1.31903571 19.3248922 1.31903571 37.4865249 22.2495 55.652342 22.2495 1.1576803"></polygon>
                </g>
                <g id="Group-131" transform="translate(189.428571, 47.802433)">
                    <mask id="mask-41" fill="white">
                        <use xlink:href="#path-40"></use>
                    </mask>
                    <g id="Clip-130"></g>
                    <path d="M6.786,0.449124164 C3.32057143,0.449124164 0.507,3.26521636 0.507,6.73686245 L0.507,61.2315242 C0.507,64.7073546 3.32057143,67.5192625 6.786,67.5192625 L61.2035357,67.5192625 C64.6731429,67.5192625 67.4853214,64.7073546 67.4853214,61.2315242 L67.4853214,6.73686245 C67.4853214,3.26521636 64.6731429,0.449124164 61.2035357,0.449124164 L6.786,0.449124164 Z" id="Fill-129" mask="url(#mask-41)"></path>
                </g>
                <g id="Group-142" transform="translate(199.178571, 307.650760)">
                    <path d="M0.586114286,40.0765103 L0.586114286,0.0905118216" id="Stroke-134" stroke="#B0D9EF" stroke-width="3"></path>
                    <path d="M3.37182857,40.0765103 L3.37182857,0.0905118216" id="Stroke-136" stroke="#FFFFFF" stroke-width="3"></path>
                    <path d="M27.5142214,28.4536791 C27.5142214,32.8193891 23.9805429,36.3579854 19.6222929,36.3579854 C15.26265,36.3579854 11.7289714,32.8193891 11.7289714,28.4536791 C11.7289714,24.0893639 15.26265,20.5507676 19.6222929,20.5507676 C23.9805429,20.5507676 27.5142214,24.0893639 27.5142214,28.4536791" id="Fill-138" fill="#B0D9EF"></path>
                    <path d="M28.9070786,27.0588836 C28.9070786,31.4245936 25.3734,34.9631899 21.01515,34.9631899 C16.6555071,34.9631899 13.1218286,31.4245936 13.1218286,27.0588836 C13.1218286,22.6945683 16.6555071,19.155972 21.01515,19.155972 C25.3734,19.155972 28.9070786,22.6945683 28.9070786,27.0588836" id="Fill-140" fill="#FFFFFF"></path>
                </g>
            </g>
        </g>
    </g>
</svg>