<?xml version="1.0" encoding="UTF-8"?>
<svg width="256px" height="257px" viewBox="0 0 256 257" version="1.1" xmlns="http://www.w3.org/2000/svg" xmlns:xlink="http://www.w3.org/1999/xlink">
    <!-- Generator: Sketch 49.2 (51160) - http://www.bohemiancoding.com/sketch -->
    <title>mobile-app</title>
    <desc>Created with Sketch.</desc>
    <defs>
        <path d="M147.042743,0.665715985 C143.504457,0.674860435 140.085029,1.0781307 136.949029,1.91850568 L56.4224,23.5003229 C41.8505143,27.4050032 26.7337143,42.5244374 22.8297143,57.097948 L1.25257143,137.638609 C0.413257143,140.769669 0.0100571429,144.181463 0,147.714879 L0,147.988298 C0.0365714286,160.831678 5.23154286,175.216813 13.5478857,183.534605 L72.4973714,242.494363 C80.8155429,250.81307 95.2009143,256.009861 108.042971,256.04461 L108.289829,256.04461 C111.829943,256.035465 115.250286,255.633109 118.3872,254.79182 L198.912914,233.210917 C213.4848,229.306237 228.6016,214.186803 232.506514,199.612378 L254.082743,119.072631 C257.986743,104.499121 252.4544,83.8445508 241.787429,73.176635 L182.837029,14.2159625 C174.520686,5.89817047 160.136229,0.701379341 147.295086,0.665715985 L147.042743,0.665715985 Z" id="path-1"></path>
        <linearGradient x1="0.25781251%" y1="49.7500002%" x2="88.8402899%" y2="93.1415775%" id="linearGradient-3">
            <stop stop-color="#3023AE" offset="0%"></stop>
            <stop stop-color="#53A0FD" offset="47.5247532%"></stop>
            <stop stop-color="#B4EC51" offset="100%"></stop>
        </linearGradient>
        <path d="M0.133485714,56.9845568 L65.0477714,121.910154 L28.4772571,158.48887 L66.0196571,196.037812 L104.741486,185.659775 C119.313371,181.755095 134.430171,166.635661 138.335086,152.061236 L153.263543,96.3376988 L57.0258286,0.0832144981 L0.133485714,56.9845568 Z" id="path-4"></path>
        <linearGradient x1="0%" y1="0%" x2="101.999998%" y2="100.999999%" id="linearGradient-6">
            <stop stop-color="#3023AE" offset="0%"></stop>
            <stop stop-color="#C86DD7" offset="100%"></stop>
        </linearGradient>
        <path d="M2.8032,2.39493155 C0.0850285714,5.11631997 0.0850285714,9.53217504 2.8032,12.2517346 L39.0884571,48.5433147 C41.8048,51.2637886 46.2189714,51.2637886 48.9426286,48.5433147 C51.6617143,45.8200973 51.6617143,41.4069856 48.9426286,38.6837683 L12.6582857,2.39493155 C11.2969143,1.03332289 9.51405714,0.352975783 7.73028571,0.352975783 C5.94651429,0.352975783 4.16365714,1.03332289 2.8032,2.39493155" id="path-7"></path>
        <linearGradient x1="50%" y1="0%" x2="50%" y2="97.7939848%" id="linearGradient-9">
            <stop stop-color="#FAD961" offset="0%"></stop>
            <stop stop-color="#FFB78E" offset="100%"></stop>
        </linearGradient>
        <path d="M2.26285714,2.75065066 C-0.457142857,5.46838131 -0.457142857,9.88423638 2.26285714,12.610197 L38.5462857,48.8972049 C41.2662857,51.6185933 45.6822857,51.6185933 48.4032,48.8972049 C51.1241143,46.174902 51.1241143,41.7581325 48.4032,39.0394874 L12.1179429,2.75065066 C10.7584,1.38904201 8.97554286,0.707780457 7.19177143,0.707780457 C5.408,0.707780457 3.62422857,1.38904201 2.26285714,2.75065066" id="path-10"></path>
        <path d="M2.3104,2.77716957 C-0.410514286,5.4967291 -0.410514286,9.91441306 2.3104,12.6358015 L38.5929143,48.9246382 C41.3110857,51.6432833 45.7261714,51.6432833 48.4470857,48.9246382 C51.1716571,46.2059931 51.1716571,41.7892236 48.4470857,39.0678352 L12.1645714,2.77716957 C10.8059429,1.4173898 9.02217143,0.737957143 7.2384,0.737957143 C5.45462857,0.737957143 3.67085714,1.4173898 2.3104,2.77716957" id="path-12"></path>
        <path d="M2.58102857,2.67932395 C-0.143542857,5.39888348 -0.143542857,9.815653 2.58102857,12.5370414 L38.8635429,48.8267926 C41.5771429,51.5463522 45.9940571,51.5463522 48.7149714,48.8267926 C51.4386286,46.1054042 51.4386286,41.6904636 48.7149714,38.9699896 L12.4315429,2.67932395 C11.0710857,1.31954418 9.28822857,0.639197079 7.50445714,0.639197079 C5.7216,0.639197079 3.93965714,1.31954418 2.58102857,2.67932395" id="path-14"></path>
        <path d="M24.3904,5.12546442 L5.35588571,24.1605523 C-1.11451429,30.6293364 -1.11451429,41.1207643 5.35588571,47.5877196 L24.3904,66.6209785 C25.3248,67.5564558 26.3469714,68.3401352 27.4249143,69.0040223 C29.8486857,71.6348807 33.3101714,73.2918551 37.1648,73.2918551 L77.6822857,73.2918551 L77.6822857,25.2432552 L67.8208,25.2432552 C67.5108571,24.8719905 67.1881143,24.5089558 66.8406857,24.1605523 L47.8107429,5.12546442 C44.5778286,1.89107233 40.3382857,0.273419065 36.0987429,0.273419065 C31.8601143,0.273419065 27.6214857,1.89107233 24.3904,5.12546442" id="path-16"></path>
        <linearGradient x1="159.38859%" y1="60.0521323%" x2="50%" y2="100%" id="linearGradient-18">
            <stop stop-color="#B4EC51" offset="0%"></stop>
            <stop stop-color="#429321" offset="100%"></stop>
        </linearGradient>
        <path d="M8.66742857,0.493800319 C3.97714286,0.493800319 0.175542857,3.85895805 0.175542857,8.01145295 L0.175542857,37.1054362 L54.4237714,37.1054362 L54.4237714,8.01145295 C54.4237714,3.85895805 50.6221714,0.493800319 45.9318857,0.493800319 L8.66742857,0.493800319 Z" id="path-19"></path>
        <polygon id="path-21" points="7.93142857 0.538608125 0.798171429 0.538608125 0.798171429 16.1170937 7.93142857 20.2375831 15.0656 16.1170937 15.0656 0.538608125"></polygon>
        <polygon id="path-23" points="0.488228571 10.6487124 8.81645714 5.14375332 1.14651429 0.714181572"></polygon>
        <polygon id="path-25" points="0.881371429 5.81038375 9.2096 10.5737279 8.55131429 0.636453744"></polygon>
        <path d="M4.04937143,0.596218163 C2.22902857,0.596218163 0.756114286,2.06938911 0.756114286,3.89004918 L0.756114286,9.92904418 C0.756114286,11.7478754 2.22902857,13.2237896 4.04937143,13.2237896 L4.32274286,13.2237896 C6.144,13.2237896 7.61782857,11.7478754 7.61782857,9.92904418 L7.61782857,3.89004918 C7.61782857,2.06938911 6.144,0.596218163 4.32274286,0.596218163 L4.04937143,0.596218163 Z" id="path-27"></path>
        <path d="M0.558628571,17.2555778 L0.558628571,30.6028175 C0.558628571,39.8176801 8.02925714,47.2868672 17.2425143,47.2868672 C26.4548571,47.2868672 33.9245714,39.8176801 33.9245714,30.6028175 L33.9245714,17.2555778 C33.9245714,8.04162963 26.4548571,0.570613702 17.2425143,0.570613702 C8.02925714,0.570613702 0.558628571,8.04162963 0.558628571,17.2555778" id="path-29"></path>
        <path d="M15.8573714,0.579758152 C13.1574857,0.579758152 10.7830857,1.96880016 9.40525714,4.07019485 L6.75565714,4.07019485 C3.45325714,4.07019485 0.775314286,6.74677546 0.775314286,10.0515798 L0.775314286,38.8163628 L4.98285714,38.8163628 L4.98285714,18.8220221 C4.98285714,16.4965884 6.86811429,14.6119172 9.19314286,14.6119172 L11.6470857,14.6119172 L32.3428571,14.6119172 L36.2002286,14.6119172 C40.4626286,14.6119172 43.9158857,11.1571439 43.9158857,6.89400112 L43.9158857,0.579758152 L15.8573714,0.579758152 Z" id="path-31"></path>
        <path d="M0.775314286,3.89004918 L0.775314286,9.92904418 C0.775314286,11.6326553 3.4752,13.0171251 5.13005714,13.1890407 L5.13005714,0.630052629 C3.4752,0.801968295 0.775314286,2.18735252 0.775314286,3.89004918" id="path-33"></path>
        <path d="M0.394057143,0.486484758 C0.388571429,0.66114376 0.366628571,0.825743866 0.370285714,0.996745088 L0.4352,5.02487546 C0.544914286,11.7067253 6.048,17.0324532 12.7250286,16.9254631 L15.3728,16.8385909 L19.1140571,28.0780348 C11.5126857,33.6927273 6.37074286,44.3972209 6.37074286,56.6882766 C6.37074286,66.130836 9.40617143,74.6342604 14.2555429,80.6156454 L35.4093714,80.6156454 L35.4093714,24.5683947 L24.7652571,0.260616835 L24.6043429,0.122535635 L0.394057143,0.486484758 Z" id="path-35"></path>
        <linearGradient x1="0%" y1="0%" x2="101.999998%" y2="100.999999%" id="linearGradient-37">
            <stop stop-color="#239DAE" offset="0%"></stop>
            <stop stop-color="#6DB4D7" offset="100%"></stop>
        </linearGradient>
        <polygon id="path-38" points="0.865828571 12.669636 0.865828571 24.5766247 14.6048 36.4863569 14.6048 0.758989379"></polygon>
        <path d="M4.4544,0.294451301 C2.17965714,0.294451301 0.3328,2.14071583 0.3328,4.41676952 L0.3328,40.144137 C0.3328,42.422934 2.17965714,44.2664552 4.4544,44.2664552 L40.1746286,44.2664552 C42.4521143,44.2664552 44.2980571,42.422934 44.2980571,40.144137 L44.2980571,4.41676952 C44.2980571,2.14071583 42.4521143,0.294451301 40.1746286,0.294451301 L4.4544,0.294451301 Z" id="path-40"></path>
    </defs>
    <g id="landing-page" stroke="none" stroke-width="1" fill="none" fill-rule="evenodd">
        <g id="home" transform="translate(-979.000000, -922.000000)">
            <g id="mobile-app" transform="translate(979.000000, 922.000000)">
                <g id="Group-3" transform="translate(0.000000, 0.248729)">
                    <mask id="mask-2" fill="white">
                        <use xlink:href="#path-1"></use>
                    </mask>
                    <g id="Clip-2"></g>
                    <path d="M147.042743,0.665715985 C143.504457,0.674860435 140.085029,1.0781307 136.949029,1.91850568 L56.4224,23.5003229 C41.8505143,27.4050032 26.7337143,42.5244374 22.8297143,57.097948 L1.25257143,137.638609 C0.413257143,140.769669 0.0100571429,144.181463 0,147.714879 L0,147.988298 C0.0365714286,160.831678 5.23154286,175.216813 13.5478857,183.534605 L72.4973714,242.494363 C80.8155429,250.81307 95.2009143,256.009861 108.042971,256.04461 L108.289829,256.04461 C111.829943,256.035465 115.250286,255.633109 118.3872,254.79182 L198.912914,233.210917 C213.4848,229.306237 228.6016,214.186803 232.506514,199.612378 L254.082743,119.072631 C257.986743,104.499121 252.4544,83.8445508 241.787429,73.176635 L182.837029,14.2159625 C174.520686,5.89817047 160.136229,0.701379341 147.295086,0.665715985 L147.042743,0.665715985 Z" id="Fill-1" fill="url(#linearGradient-3)" mask="url(#mask-2)"></path>
                </g>
                <g id="Group-6" transform="translate(94.171429, 47.799871)">
                    <mask id="mask-5" fill="white">
                        <use xlink:href="#path-4"></use>
                    </mask>
                    <g id="Clip-5"></g>
                    <path d="M0.133485714,56.9845568 L65.0477714,121.910154 L28.4772571,158.48887 L66.0196571,196.037812 L104.741486,185.659775 C119.313371,181.755095 134.430171,166.635661 138.335086,152.061236 L153.263543,96.3376988 L57.0258286,0.0832144981 L0.133485714,56.9845568 Z" id="Fill-4" fill="url(#linearGradient-6)" opacity="0.138530344" mask="url(#mask-5)"></path>
                </g>
                <g id="Group-57" transform="translate(27.428571, 13.965405)">
                    <path d="M23.59104,55.5723793 L185.631726,87.1957175" id="Stroke-7" stroke="#FCFCFD" stroke-width="2" stroke-dasharray="4"></path>
                    <path d="M17.1455086,167.06673 L91.8618514,14.0370971" id="Stroke-9" stroke="#FCFCFD" stroke-width="2" stroke-dasharray="4"></path>
                    <path d="M16.2312229,169.810065 L201.174766,88.1098882" id="Stroke-11" stroke="#FCFCFD" stroke-width="2" stroke-dasharray="4"></path>
                    <path d="M182.263314,185.05295 L197.885714,99.9976736" id="Stroke-13" stroke="#FCFCFD" stroke-width="2" stroke-dasharray="4"></path>
                    <path d="M100.725851,7.03884921 C100.725851,10.4479003 97.9637943,13.2104387 94.5544229,13.2104387 C91.14688,13.2104387 88.3839086,10.4479003 88.3839086,7.03884921 C88.3839086,3.62979812 91.14688,0.867259671 94.5544229,0.867259671 C97.9637943,0.867259671 100.725851,3.62979812 100.725851,7.03884921 Z" id="Stroke-15" stroke="#FCFCFD" stroke-width="3"></path>
                    <path d="M23.5159771,52.4565907 C23.5159771,57.9962988 19.0268343,62.4862239 13.4890057,62.4862239 C7.95026286,62.4862239 3.46020571,57.9962988 3.46020571,52.4565907 C3.46020571,46.9168827 7.95026286,42.4269576 13.4890057,42.4269576 C19.0268343,42.4269576 23.5159771,46.9168827 23.5159771,52.4565907 Z" id="Stroke-17" stroke="#FCFCFD" stroke-width="3"></path>
                    <path d="M18.9731657,52.4565907 C18.9731657,55.4861471 16.5173943,57.9423465 13.48928,57.9423465 C10.4593371,57.9423465 8.00448,55.4861471 8.00448,52.4565907 C8.00448,49.4270343 10.4593371,46.9717494 13.48928,46.9717494 C16.5173943,46.9717494 18.9731657,49.4270343 18.9731657,52.4565907" id="Fill-19" fill="#FFFFFF"></path>
                    <path d="M189.915977,195.110016 C189.915977,200.649724 185.42592,205.140564 179.888091,205.140564 C174.350263,205.140564 169.859291,200.649724 169.859291,195.110016 C169.859291,189.571223 174.350263,185.080383 179.888091,185.080383 C185.42592,185.080383 189.915977,189.571223 189.915977,195.110016 Z" id="Stroke-21" stroke="#FCFCFD" stroke-width="3"></path>
                    <path d="M185.372251,195.110016 C185.372251,198.139573 182.91648,200.594857 179.888366,200.594857 C176.859337,200.594857 174.40448,198.139573 174.40448,195.110016 C174.40448,192.08046 176.859337,189.625175 179.888366,189.625175 C182.91648,189.625175 185.372251,192.08046 185.372251,195.110016" id="Fill-23" fill="#88EEBE"></path>
                    <path d="M16.6052571,182.695327 C8.33371429,182.695327 1.60548571,175.965926 1.60548571,167.692942 C1.60548571,159.419958 8.33371429,152.689643 16.6052571,152.689643 C24.8768,152.689643 31.6050286,159.419958 31.6050286,167.692942 C31.6050286,175.965926 24.8768,182.695327 16.6052571,182.695327" id="Fill-25" fill="#FFFFFF"></path>
                    <path d="M16.6052571,151.318432 C7.5648,151.318432 0.234057143,158.650452 0.234057143,167.692485 C0.234057143,176.735432 7.5648,184.067452 16.6052571,184.067452 C25.6466286,184.067452 32.9764571,176.735432 32.9764571,167.692485 C32.9764571,158.650452 25.6466286,151.318432 16.6052571,151.318432 M16.6052571,154.061767 C24.1206857,154.061767 30.2336,160.176661 30.2336,167.692485 C30.2336,175.209223 24.1206857,181.324117 16.6052571,181.324117 C9.08982857,181.324117 2.97691429,175.209223 2.97691429,167.692485 C2.97691429,160.176661 9.08982857,154.061767 16.6052571,154.061767" id="Fill-27" fill="#FCFCFD"></path>
                    <path d="M10.8544,165.776357 C10.8544,168.952224 13.4299429,171.527302 16.6061714,171.527302 C19.7814857,171.527302 22.3561143,168.952224 22.3561143,165.776357 C22.3561143,162.599575 19.7814857,160.024498 16.6061714,160.024498 C13.4299429,160.024498 10.8544,162.599575 10.8544,165.776357" id="Fill-29" fill="#39CBFF"></path>
                    <path d="M10.8544,165.776357 C10.8544,168.952224 13.4299429,171.527302 16.6061714,171.527302 C19.7814857,171.527302 22.3561143,168.952224 22.3561143,165.776357 C22.3561143,162.599575 19.7814857,160.024498 16.6061714,160.024498 C13.4299429,160.024498 10.8544,162.599575 10.8544,165.776357 Z" id="Stroke-31" stroke="#FCFCFD" stroke-width="3"></path>
                    <path d="M12.2919314,172.166773 L20.9182171,172.166773 C24.0944457,172.166773 26.6709029,174.74185 26.6709029,177.918632 L26.6709029,178.385914 C24.0395886,180.864974 20.5040457,182.392097 16.6064457,182.392097 C12.7061029,182.392097 9.17147429,180.864974 6.54198857,178.385914 L6.54198857,177.918632 C6.54198857,174.74185 9.11570286,172.166773 12.2919314,172.166773" id="Fill-33" fill="#39CBFF"></path>
                    <path d="M12.2919314,172.166773 L20.9182171,172.166773 C24.0944457,172.166773 26.6709029,174.74185 26.6709029,177.918632 L26.6709029,178.385914 C24.0395886,180.864974 20.5040457,182.392097 16.6064457,182.392097 C12.7061029,182.392097 9.17147429,180.864974 6.54198857,178.385914 L6.54198857,177.918632 C6.54198857,174.74185 9.11570286,172.166773 12.2919314,172.166773 Z" id="Stroke-35" stroke="#FCFCFD" stroke-width="3"></path>
                    <path d="M200.002651,102.296588 C191.731109,102.296588 185.00288,95.5671874 185.00288,87.2942032 C185.00288,79.021219 191.731109,72.2909035 200.002651,72.2909035 C208.274194,72.2909035 215.002423,79.021219 215.002423,87.2942032 C215.002423,95.5671874 208.274194,102.296588 200.002651,102.296588" id="Fill-37" fill="#FFFFFF"></path>
                    <path d="M200.002651,70.9196932 C190.962194,70.9196932 183.631451,78.2517135 183.631451,87.293746 C183.631451,96.3366929 190.962194,103.668713 200.002651,103.668713 C209.044023,103.668713 216.373851,96.3366929 216.373851,87.293746 C216.373851,78.2517135 209.044023,70.9196932 200.002651,70.9196932 M200.002651,73.6630283 C207.51808,73.6630283 213.630994,79.7779223 213.630994,87.293746 C213.630994,94.8104842 207.51808,100.925378 200.002651,100.925378 C192.487223,100.925378 186.374309,94.8104842 186.374309,87.293746 C186.374309,79.7779223 192.487223,73.6630283 200.002651,73.6630283" id="Fill-39" fill="#FCFCFD"></path>
                    <path d="M194.251703,85.3775264 C194.251703,88.553394 196.827246,91.1284712 200.003474,91.1284712 C203.178789,91.1284712 205.753417,88.553394 205.753417,85.3775264 C205.753417,82.2007444 203.178789,79.6256672 200.003474,79.6256672 C196.827246,79.6256672 194.251703,82.2007444 194.251703,85.3775264" id="Fill-41" fill="#88EEBE"></path>
                    <path d="M194.251703,85.3775264 C194.251703,88.553394 196.827246,91.1284712 200.003474,91.1284712 C203.178789,91.1284712 205.753417,88.553394 205.753417,85.3775264 C205.753417,82.2007444 203.178789,79.6256672 200.003474,79.6256672 C196.827246,79.6256672 194.251703,82.2007444 194.251703,85.3775264 Z" id="Stroke-43" stroke="#FCFCFD" stroke-width="3"></path>
                    <path d="M195.689234,91.7679427 L204.31552,91.7679427 C207.491749,91.7679427 210.068206,94.3430199 210.068206,97.5198019 L210.068206,97.9870833 C207.436891,100.466144 203.901349,101.993267 200.003749,101.993267 C196.103406,101.993267 192.568777,100.466144 189.939291,97.9870833 L189.939291,97.5198019 C189.939291,94.3430199 192.513006,91.7679427 195.689234,91.7679427" id="Fill-45" fill="#88EEBE"></path>
                    <path d="M195.689234,91.7679427 L204.31552,91.7679427 C207.491749,91.7679427 210.068206,94.3430199 210.068206,97.5198019 L210.068206,97.9870833 C207.436891,100.466144 203.901349,101.993267 200.003749,101.993267 C196.103406,101.993267 192.568777,100.466144 189.939291,97.9870833 L189.939291,97.5198019 C189.939291,94.3430199 192.513006,91.7679427 195.689234,91.7679427 Z" id="Stroke-47" stroke="#FCFCFD" stroke-width="3"></path>
                    <path d="M20.8481829,46.6386171 L90.8861257,10.379957" id="Stroke-49" stroke="#FCFCFD" stroke-width="2" stroke-dasharray="4"></path>
                    <path d="M188.374949,77.2653931 L100.089691,11.2936705" id="Stroke-51" stroke="#FCFCFD" stroke-width="2" stroke-dasharray="4"></path>
                    <path d="M11.8400914,151.063942 L13.8853486,61.0587752" id="Stroke-53" stroke="#FCFCFD" stroke-width="2" stroke-dasharray="4"></path>
                    <path d="M31.77408,172.5534 L170.745509,193.281126" id="Stroke-55" stroke="#FCFCFD" stroke-width="2" stroke-dasharray="4"></path>
                </g>
                <g id="Group-60" transform="translate(74.971429, 141.073264)">
                    <mask id="mask-8" fill="white">
                        <use xlink:href="#path-7"></use>
                    </mask>
                    <g id="Clip-59"></g>
                    <path d="M2.8032,2.39493155 C0.0850285714,5.11631997 0.0850285714,9.53217504 2.8032,12.2517346 L39.0884571,48.5433147 C41.8048,51.2637886 46.2189714,51.2637886 48.9426286,48.5433147 C51.6617143,45.8200973 51.6617143,41.4069856 48.9426286,38.6837683 L12.6582857,2.39493155 C11.2969143,1.03332289 9.51405714,0.352975783 7.73028571,0.352975783 C5.94651429,0.352975783 4.16365714,1.03332289 2.8032,2.39493155" id="Fill-58" fill="url(#linearGradient-9)" mask="url(#mask-8)"></path>
                </g>
                <g id="Group-63" transform="translate(69.485714, 109.982133)">
                    <mask id="mask-11" fill="white">
                        <use xlink:href="#path-10"></use>
                    </mask>
                    <g id="Clip-62"></g>
                    <path d="M2.26285714,2.75065066 C-0.457142857,5.46838131 -0.457142857,9.88423638 2.26285714,12.610197 L38.5462857,48.8972049 C41.2662857,51.6185933 45.6822857,51.6185933 48.4032,48.8972049 C51.1241143,46.174902 51.1241143,41.7581325 48.4032,39.0394874 L12.1179429,2.75065066 C10.7584,1.38904201 8.97554286,0.707780457 7.19177143,0.707780457 C5.408,0.707780457 3.62422857,1.38904201 2.26285714,2.75065066" id="Fill-61" fill="url(#linearGradient-9)" mask="url(#mask-11)"></path>
                </g>
                <g id="Group-66" transform="translate(66.742857, 82.548782)">
                    <mask id="mask-13" fill="white">
                        <use xlink:href="#path-12"></use>
                    </mask>
                    <g id="Clip-65"></g>
                    <path d="M2.3104,2.77716957 C-0.410514286,5.4967291 -0.410514286,9.91441306 2.3104,12.6358015 L38.5929143,48.9246382 C41.3110857,51.6432833 45.7261714,51.6432833 48.4470857,48.9246382 C51.1716571,46.2059931 51.1716571,41.7892236 48.4470857,39.0678352 L12.1645714,2.77716957 C10.8059429,1.4173898 9.02217143,0.737957143 7.2384,0.737957143 C5.45462857,0.737957143 3.67085714,1.4173898 2.3104,2.77716957" id="Fill-64" fill="url(#linearGradient-9)" mask="url(#mask-13)"></path>
                </g>
                <g id="Group-69" transform="translate(80.457143, 70.660997)">
                    <mask id="mask-15" fill="white">
                        <use xlink:href="#path-14"></use>
                    </mask>
                    <g id="Clip-68"></g>
                    <path d="M2.58102857,2.67932395 C-0.143542857,5.39888348 -0.143542857,9.815653 2.58102857,12.5370414 L38.8635429,48.8267926 C41.5771429,51.5463522 45.9940571,51.5463522 48.7149714,48.8267926 C51.4386286,46.1054042 51.4386286,41.6904636 48.7149714,38.9699896 L12.4315429,2.67932395 C11.0710857,1.31954418 9.28822857,0.639197079 7.50445714,0.639197079 C5.7216,0.639197079 3.93965714,1.31954418 2.58102857,2.67932395" id="Fill-67" fill="url(#linearGradient-9)" mask="url(#mask-15)"></path>
                </g>
                <g id="Group-72" transform="translate(89.600000, 131.014369)">
                    <mask id="mask-17" fill="white">
                        <use xlink:href="#path-16"></use>
                    </mask>
                    <g id="Clip-71"></g>
                    <path d="M24.3904,5.12546442 L5.35588571,24.1605523 C-1.11451429,30.6293364 -1.11451429,41.1207643 5.35588571,47.5877196 L24.3904,66.6209785 C25.3248,67.5564558 26.3469714,68.3401352 27.4249143,69.0040223 C29.8486857,71.6348807 33.3101714,73.2918551 37.1648,73.2918551 L77.6822857,73.2918551 L77.6822857,25.2432552 L67.8208,25.2432552 C67.5108571,24.8719905 67.1881143,24.5089558 66.8406857,24.1605523 L47.8107429,5.12546442 C44.5778286,1.89107233 40.3382857,0.273419065 36.0987429,0.273419065 C31.8601143,0.273419065 27.6214857,1.89107233 24.3904,5.12546442" id="Fill-70" fill="url(#linearGradient-9)" mask="url(#mask-17)"></path>
                </g>
                <g id="Group-83" transform="translate(85.942857, 45.056536)">
                    <polygon id="Fill-73" fill="#CDD5D7" points="2.60882286 24.8161179 2.60882286 24.8161179 0.75008 24.8161179 0.75008 18.7076251 2.60882286 18.7076251"></polygon>
                    <polygon id="Fill-75" fill="#CDD5D7" points="2.60882286 40.8483511 2.60882286 40.8483511 0.75008 40.8483511 0.75008 30.5416412 2.60882286 30.5416412"></polygon>
                    <polygon id="Fill-77" fill="#CDD5D7" points="2.60882286 53.0638737 2.60882286 53.0638737 0.75008 53.0638737 0.75008 43.234504 2.60882286 43.234504"></polygon>
                    <path d="M69.0115657,130.277326 C69.0115657,135.735649 64.54528,140.202713 59.0888229,140.202713 L11.3759086,140.202713 C5.91853714,140.202713 1.45316571,135.735649 1.45316571,130.277326 L1.45316571,10.530749 C1.45316571,5.07151216 5.91853714,0.606277058 11.3759086,0.606277058 L59.0888229,0.606277058 C64.54528,0.606277058 69.0115657,5.07151216 69.0115657,10.530749 L69.0115657,130.277326 Z" id="Fill-79" fill="#CDD5D7"></path>
                    <path d="M11.3758171,138.80288 C6.67730286,138.80288 2.85193143,134.979586 2.85193143,130.277509 L2.85193143,10.5309319 C2.85193143,5.83159887 6.67730286,2.00373196 11.3758171,2.00373196 L59.0896457,2.00373196 C63.7890743,2.00373196 67.6126171,5.83159887 67.6126171,10.5309319 L67.6126171,130.277509 C67.6126171,134.979586 63.7890743,138.80288 59.0896457,138.80288 L11.3758171,138.80288 Z" id="Fill-81" fill="#E5E8EC"></path>
                </g>
                <polygon id="Fill-84" fill="url(#linearGradient-18)" points="91.7833143 168.080484 150.564571 168.080484 150.564571 63.2859975 91.7833143 63.2859975"></polygon>
                <g id="Group-94" transform="translate(108.800000, 48.714316)">
                    <path d="M2.99190857,6.11013883 C2.99190857,6.84718153 2.39305143,7.44614303 1.65613714,7.44614303 C0.918308571,7.44614303 0.318537143,6.84718153 0.318537143,6.11013883 C0.318537143,5.37309613 0.918308571,4.7713913 1.65613714,4.7713913 C2.39305143,4.7713913 2.99190857,5.37309613 2.99190857,6.11013883" id="Fill-86" fill="#596273"></path>
                    <path d="M13.1382857,1.46384361 C13.1382857,1.93935503 12.7542857,2.3225075 12.2797714,2.3225075 C11.8043429,2.3225075 11.424,1.93935503 11.424,1.46384361 C11.424,0.990161083 11.8043429,0.606094169 12.2797714,0.606094169 C12.7542857,0.606094169 13.1382857,0.990161083 13.1382857,1.46384361" id="Fill-88" fill="#596273"></path>
                    <path d="M17.5597714,5.98156786 C17.5597714,6.33454364 17.2745143,6.61710716 16.9225143,6.61710716 L7.76594286,6.61710716 C7.41302857,6.61710716 7.12777143,6.33454364 7.12777143,5.98156786 C7.12777143,5.63042097 7.41302857,5.34419967 7.76594286,5.34419967 L16.9225143,5.34419967 C17.2745143,5.34419967 17.5597714,5.63042097 17.5597714,5.98156786" id="Fill-90" fill="#596273"></path>
                    <path d="M17.71776,128.01883 C17.71776,128.65254 17.2066743,129.166458 16.5749029,129.166458 L8.17718857,129.166458 C7.54541714,129.166458 7.03158857,128.65254 7.03158857,128.01883 L7.03158857,125.726316 C7.03158857,125.095349 7.54541714,124.581431 8.17718857,124.581431 L16.5749029,124.581431 C17.2066743,124.581431 17.71776,125.095349 17.71776,125.726316 L17.71776,128.01883 Z" id="Fill-92" fill="#CDD5D7"></path>
                </g>
                <g id="Group-97" transform="translate(94.171429, 131.014369)">
                    <mask id="mask-20" fill="white">
                        <use xlink:href="#path-19"></use>
                    </mask>
                    <g id="Clip-96"></g>
                    <path d="M8.66742857,0.493800319 C3.97714286,0.493800319 0.175542857,3.85895805 0.175542857,8.01145295 L0.175542857,37.1054362 L54.4237714,37.1054362 L54.4237714,8.01145295 C54.4237714,3.85895805 50.6221714,0.493800319 45.9318857,0.493800319 L8.66742857,0.493800319 Z" id="Fill-95" fill="#C3E5FF" mask="url(#mask-20)"></path>
                </g>
                <g id="Group-100" transform="translate(113.371429, 115.468803)">
                    <mask id="mask-22" fill="white">
                        <use xlink:href="#path-21"></use>
                    </mask>
                    <g id="Clip-99"></g>
                    <polygon id="Fill-98" fill="#F3F3F3" mask="url(#mask-22)" points="7.93142857 0.538608125 0.798171429 0.538608125 0.798171429 16.1170937 7.93142857 20.2375831 15.0656 16.1170937 15.0656 0.538608125"></polygon>
                </g>
                <g id="Group-103" transform="translate(112.457143, 131.014369)">
                    <mask id="mask-24" fill="white">
                        <use xlink:href="#path-23"></use>
                    </mask>
                    <g id="Clip-102"></g>
                    <polygon id="Fill-101" mask="url(#mask-24)" points="0.488228571 10.6487124 8.81645714 5.14375332 1.14651429 0.714181572"></polygon>
                </g>
                <g id="Group-106" transform="translate(120.685714, 130.099924)">
                    <mask id="mask-26" fill="white">
                        <use xlink:href="#path-25"></use>
                    </mask>
                    <g id="Clip-105"></g>
                    <polygon id="Fill-104" mask="url(#mask-26)" points="0.881371429 5.81038375 9.2096 10.5737279 8.55131429 0.636453744"></polygon>
                </g>
                <g id="Group-109" transform="translate(134.400000, 100.837683)">
                    <mask id="mask-28" fill="white">
                        <use xlink:href="#path-27"></use>
                    </mask>
                    <g id="Clip-108"></g>
                    <path d="M4.04937143,0.596218163 C2.22902857,0.596218163 0.756114286,2.06938911 0.756114286,3.89004918 L0.756114286,9.92904418 C0.756114286,11.7478754 2.22902857,13.2237896 4.04937143,13.2237896 L4.32274286,13.2237896 C6.144,13.2237896 7.61782857,11.7478754 7.61782857,9.92904418 L7.61782857,3.89004918 C7.61782857,2.06938911 6.144,0.596218163 4.32274286,0.596218163 L4.04937143,0.596218163 Z" id="Fill-107" fill="#F3F3F3" mask="url(#mask-28)"></path>
                </g>
                <g id="Group-112" transform="translate(104.228571, 80.719892)">
                    <mask id="mask-30" fill="white">
                        <use xlink:href="#path-29"></use>
                    </mask>
                    <g id="Clip-111"></g>
                    <path d="M0.558628571,17.2555778 L0.558628571,30.6028175 C0.558628571,39.8176801 8.02925714,47.2868672 17.2425143,47.2868672 C26.4548571,47.2868672 33.9245714,39.8176801 33.9245714,30.6028175 L33.9245714,17.2555778 C33.9245714,8.04162963 26.4548571,0.570613702 17.2425143,0.570613702 C8.02925714,0.570613702 0.558628571,8.04162963 0.558628571,17.2555778" id="Fill-110" fill="#FFFFFF" mask="url(#mask-30)"></path>
                </g>
                <g id="Group-115" transform="translate(99.657143, 79.805447)">
                    <mask id="mask-32" fill="white">
                        <use xlink:href="#path-31"></use>
                    </mask>
                    <g id="Clip-114"></g>
                    <path d="M15.8573714,0.579758152 C13.1574857,0.579758152 10.7830857,1.96880016 9.40525714,4.07019485 L6.75565714,4.07019485 C3.45325714,4.07019485 0.775314286,6.74677546 0.775314286,10.0515798 L0.775314286,38.8163628 L4.98285714,38.8163628 L4.98285714,18.8220221 C4.98285714,16.4965884 6.86811429,14.6119172 9.19314286,14.6119172 L11.6470857,14.6119172 L32.3428571,14.6119172 L36.2002286,14.6119172 C40.4626286,14.6119172 43.9158857,11.1571439 43.9158857,6.89400112 L43.9158857,0.579758152 L15.8573714,0.579758152 Z" id="Fill-113" fill="#0984E3" mask="url(#mask-32)"></path>
                </g>
                <g id="Group-118" transform="translate(99.657143, 100.837683)">
                    <mask id="mask-34" fill="white">
                        <use xlink:href="#path-33"></use>
                    </mask>
                    <g id="Clip-117"></g>
                    <path d="M0.775314286,3.89004918 L0.775314286,9.92904418 C0.775314286,11.6326553 3.4752,13.0171251 5.13005714,13.1890407 L5.13005714,0.630052629 C3.4752,0.801968295 0.775314286,2.18735252 0.775314286,3.89004918" id="Fill-116" fill="#F3F3F3" mask="url(#mask-34)"></path>
                </g>
                <path d="M120.757029,138.263083 L120.757029,167.696326" id="Stroke-119" stroke="#F3F3F3"></path>
                <g id="Group-123" transform="translate(133.485714, 123.698809)">
                    <mask id="mask-36" fill="white">
                        <use xlink:href="#path-35"></use>
                    </mask>
                    <g id="Clip-122"></g>
                    <path d="M0.394057143,0.486484758 C0.388571429,0.66114376 0.366628571,0.825743866 0.370285714,0.996745088 L0.4352,5.02487546 C0.544914286,11.7067253 6.048,17.0324532 12.7250286,16.9254631 L15.3728,16.8385909 L19.1140571,28.0780348 C11.5126857,33.6927273 6.37074286,44.3972209 6.37074286,56.6882766 C6.37074286,66.130836 9.40617143,74.6342604 14.2555429,80.6156454 L35.4093714,80.6156454 L35.4093714,24.5683947 L24.7652571,0.260616835 L24.6043429,0.122535635 L0.394057143,0.486484758 Z" id="Fill-121" fill="url(#linearGradient-9)" mask="url(#mask-36)"></path>
                </g>
                <polygon id="Fill-124" fill="url(#linearGradient-37)" points="105.756343 229.19376 177.570743 229.19376 177.570743 199.347189 105.756343 199.347189"></polygon>
                <g id="Group-128" transform="translate(166.400000, 34.997640)">
                    <mask id="mask-39" fill="white">
                        <use xlink:href="#path-38"></use>
                    </mask>
                    <g id="Clip-127"></g>
                    <polygon id="Fill-126" mask="url(#mask-39)" points="0.865828571 12.669636 0.865828571 24.5766247 14.6048 36.4863569 14.6048 0.758989379"></polygon>
                </g>
                <g id="Group-131" transform="translate(124.342857, 31.339860)">
                    <mask id="mask-41" fill="white">
                        <use xlink:href="#path-40"></use>
                    </mask>
                    <g id="Clip-130"></g>
                    <path d="M4.4544,0.294451301 C2.17965714,0.294451301 0.3328,2.14071583 0.3328,4.41676952 L0.3328,40.144137 C0.3328,42.422934 2.17965714,44.2664552 4.4544,44.2664552 L40.1746286,44.2664552 C42.4521143,44.2664552 44.2980571,42.422934 44.2980571,40.144137 L44.2980571,4.41676952 C44.2980571,2.14071583 42.4521143,0.294451301 40.1746286,0.294451301 L4.4544,0.294451301 Z" id="Fill-129" mask="url(#mask-41)"></path>
                </g>
                <g id="Group-142" transform="translate(130.742857, 201.699605)">
                    <path d="M0.384731429,26.2746509 L0.384731429,0.0593406585" id="Stroke-134" stroke="#B0D9EF" stroke-width="3"></path>
                    <path d="M2.21330286,26.2746509 L2.21330286,0.0593406585" id="Stroke-136" stroke="#FFFFFF" stroke-width="3"></path>
                    <path d="M18.0606171,18.6545804 C18.0606171,21.5167934 15.7410743,23.8367404 12.8802743,23.8367404 C10.01856,23.8367404 7.69901714,21.5167934 7.69901714,18.6545804 C7.69901714,15.7932819 10.01856,13.4733349 12.8802743,13.4733349 C15.7410743,13.4733349 18.0606171,15.7932819 18.0606171,18.6545804" id="Fill-138" fill="#B0D9EF"></path>
                    <path d="M18.9749029,17.7401354 C18.9749029,20.6023484 16.65536,22.9222954 13.79456,22.9222954 C10.9328457,22.9222954 8.61330286,20.6023484 8.61330286,17.7401354 C8.61330286,14.8788369 10.9328457,12.5588898 13.79456,12.5588898 C16.65536,12.5588898 18.9749029,14.8788369 18.9749029,17.7401354" id="Fill-140" fill="#FFFFFF"></path>
                </g>
            </g>
        </g>
    </g>
</svg>